G04 #@! TF.GenerationSoftware,KiCad,Pcbnew,7.0.10*
G04 #@! TF.CreationDate,2024-02-23T22:27:58+01:00*
G04 #@! TF.ProjectId,WLED_Controller,574c4544-5f43-46f6-9e74-726f6c6c6572,rev?*
G04 #@! TF.SameCoordinates,Original*
G04 #@! TF.FileFunction,Legend,Top*
G04 #@! TF.FilePolarity,Positive*
%FSLAX46Y46*%
G04 Gerber Fmt 4.6, Leading zero omitted, Abs format (unit mm)*
G04 Created by KiCad (PCBNEW 7.0.10) date 2024-02-23 22:27:58*
%MOMM*%
%LPD*%
G01*
G04 APERTURE LIST*
G04 Aperture macros list*
%AMRoundRect*
0 Rectangle with rounded corners*
0 $1 Rounding radius*
0 $2 $3 $4 $5 $6 $7 $8 $9 X,Y pos of 4 corners*
0 Add a 4 corners polygon primitive as box body*
4,1,4,$2,$3,$4,$5,$6,$7,$8,$9,$2,$3,0*
0 Add four circle primitives for the rounded corners*
1,1,$1+$1,$2,$3*
1,1,$1+$1,$4,$5*
1,1,$1+$1,$6,$7*
1,1,$1+$1,$8,$9*
0 Add four rect primitives between the rounded corners*
20,1,$1+$1,$2,$3,$4,$5,0*
20,1,$1+$1,$4,$5,$6,$7,0*
20,1,$1+$1,$6,$7,$8,$9,0*
20,1,$1+$1,$8,$9,$2,$3,0*%
G04 Aperture macros list end*
%ADD10C,0.300000*%
%ADD11C,0.150000*%
%ADD12C,0.100000*%
%ADD13C,0.120000*%
%ADD14RoundRect,0.237500X0.237500X-0.250000X0.237500X0.250000X-0.237500X0.250000X-0.237500X-0.250000X0*%
%ADD15RoundRect,0.237500X0.250000X0.237500X-0.250000X0.237500X-0.250000X-0.237500X0.250000X-0.237500X0*%
%ADD16R,0.900000X1.500000*%
%ADD17R,1.500000X0.900000*%
%ADD18C,0.600000*%
%ADD19R,4.200000X4.200000*%
%ADD20R,1.500000X3.000000*%
%ADD21O,1.500000X3.000000*%
%ADD22RoundRect,0.237500X-0.250000X-0.237500X0.250000X-0.237500X0.250000X0.237500X-0.250000X0.237500X0*%
%ADD23RoundRect,0.237500X-0.237500X0.300000X-0.237500X-0.300000X0.237500X-0.300000X0.237500X0.300000X0*%
%ADD24R,1.500000X2.000000*%
%ADD25R,3.800000X2.000000*%
%ADD26RoundRect,0.250000X-0.537500X-0.425000X0.537500X-0.425000X0.537500X0.425000X-0.537500X0.425000X0*%
%ADD27RoundRect,0.237500X-0.237500X0.250000X-0.237500X-0.250000X0.237500X-0.250000X0.237500X0.250000X0*%
%ADD28RoundRect,0.250000X-0.250000X0.250000X-0.250000X-0.250000X0.250000X-0.250000X0.250000X0.250000X0*%
%ADD29RoundRect,0.237500X-0.300000X-0.237500X0.300000X-0.237500X0.300000X0.237500X-0.300000X0.237500X0*%
%ADD30C,2.000000*%
%ADD31RoundRect,0.150000X0.825000X0.150000X-0.825000X0.150000X-0.825000X-0.150000X0.825000X-0.150000X0*%
%ADD32RoundRect,0.237500X0.287500X0.237500X-0.287500X0.237500X-0.287500X-0.237500X0.287500X-0.237500X0*%
%ADD33R,1.700000X1.925000*%
%ADD34RoundRect,0.237500X0.300000X0.237500X-0.300000X0.237500X-0.300000X-0.237500X0.300000X-0.237500X0*%
%ADD35RoundRect,0.237500X0.237500X-0.287500X0.237500X0.287500X-0.237500X0.287500X-0.237500X-0.287500X0*%
%ADD36R,3.000000X1.500000*%
%ADD37O,3.000000X1.500000*%
%ADD38R,1.100000X1.800000*%
%ADD39RoundRect,0.275000X0.275000X0.625000X-0.275000X0.625000X-0.275000X-0.625000X0.275000X-0.625000X0*%
%ADD40C,0.650000*%
%ADD41R,0.600000X1.240000*%
%ADD42R,0.300000X1.240000*%
%ADD43O,1.000000X2.100000*%
%ADD44O,1.000000X1.800000*%
%ADD45RoundRect,0.250000X0.537500X0.425000X-0.537500X0.425000X-0.537500X-0.425000X0.537500X-0.425000X0*%
%ADD46R,1.925000X1.700000*%
%ADD47C,1.524000*%
G04 APERTURE END LIST*
D10*
X31476400Y15135082D02*
X31476400Y16049368D01*
X31933542Y15592225D02*
X31019257Y15592225D01*
X30733542Y17192224D02*
X30733542Y16620796D01*
X30733542Y16620796D02*
X31304971Y16563653D01*
X31304971Y16563653D02*
X31247828Y16620796D01*
X31247828Y16620796D02*
X31190685Y16735082D01*
X31190685Y16735082D02*
X31190685Y17020796D01*
X31190685Y17020796D02*
X31247828Y17135082D01*
X31247828Y17135082D02*
X31304971Y17192224D01*
X31304971Y17192224D02*
X31419257Y17249367D01*
X31419257Y17249367D02*
X31704971Y17249367D01*
X31704971Y17249367D02*
X31819257Y17192224D01*
X31819257Y17192224D02*
X31876400Y17135082D01*
X31876400Y17135082D02*
X31933542Y17020796D01*
X31933542Y17020796D02*
X31933542Y16735082D01*
X31933542Y16735082D02*
X31876400Y16620796D01*
X31876400Y16620796D02*
X31819257Y16563653D01*
X30733542Y17592224D02*
X31933542Y17992224D01*
X31933542Y17992224D02*
X30733542Y18392224D01*
X34082510Y33790600D02*
X35225368Y33790600D01*
X34653939Y33219171D02*
X34653939Y34362028D01*
X36653939Y34719171D02*
X35939653Y34719171D01*
X35939653Y34719171D02*
X35868225Y34004885D01*
X35868225Y34004885D02*
X35939653Y34076314D01*
X35939653Y34076314D02*
X36082511Y34147742D01*
X36082511Y34147742D02*
X36439653Y34147742D01*
X36439653Y34147742D02*
X36582511Y34076314D01*
X36582511Y34076314D02*
X36653939Y34004885D01*
X36653939Y34004885D02*
X36725368Y33862028D01*
X36725368Y33862028D02*
X36725368Y33504885D01*
X36725368Y33504885D02*
X36653939Y33362028D01*
X36653939Y33362028D02*
X36582511Y33290600D01*
X36582511Y33290600D02*
X36439653Y33219171D01*
X36439653Y33219171D02*
X36082511Y33219171D01*
X36082511Y33219171D02*
X35939653Y33290600D01*
X35939653Y33290600D02*
X35868225Y33362028D01*
X37153939Y34719171D02*
X37653939Y33219171D01*
X37653939Y33219171D02*
X38153939Y34719171D01*
X15103082Y25984457D02*
X15103082Y27184457D01*
X15903082Y27184457D02*
X16131654Y27184457D01*
X16131654Y27184457D02*
X16245939Y27127314D01*
X16245939Y27127314D02*
X16360225Y27013028D01*
X16360225Y27013028D02*
X16417368Y26784457D01*
X16417368Y26784457D02*
X16417368Y26384457D01*
X16417368Y26384457D02*
X16360225Y26155885D01*
X16360225Y26155885D02*
X16245939Y26041600D01*
X16245939Y26041600D02*
X16131654Y25984457D01*
X16131654Y25984457D02*
X15903082Y25984457D01*
X15903082Y25984457D02*
X15788797Y26041600D01*
X15788797Y26041600D02*
X15674511Y26155885D01*
X15674511Y26155885D02*
X15617368Y26384457D01*
X15617368Y26384457D02*
X15617368Y26784457D01*
X15617368Y26784457D02*
X15674511Y27013028D01*
X15674511Y27013028D02*
X15788797Y27127314D01*
X15788797Y27127314D02*
X15903082Y27184457D01*
X17560225Y25984457D02*
X16874511Y25984457D01*
X17217368Y25984457D02*
X17217368Y27184457D01*
X17217368Y27184457D02*
X17103082Y27013028D01*
X17103082Y27013028D02*
X16988797Y26898742D01*
X16988797Y26898742D02*
X16874511Y26841600D01*
X18588797Y27184457D02*
X18360225Y27184457D01*
X18360225Y27184457D02*
X18245939Y27127314D01*
X18245939Y27127314D02*
X18188797Y27070171D01*
X18188797Y27070171D02*
X18074511Y26898742D01*
X18074511Y26898742D02*
X18017368Y26670171D01*
X18017368Y26670171D02*
X18017368Y26213028D01*
X18017368Y26213028D02*
X18074511Y26098742D01*
X18074511Y26098742D02*
X18131654Y26041600D01*
X18131654Y26041600D02*
X18245939Y25984457D01*
X18245939Y25984457D02*
X18474511Y25984457D01*
X18474511Y25984457D02*
X18588797Y26041600D01*
X18588797Y26041600D02*
X18645939Y26098742D01*
X18645939Y26098742D02*
X18703082Y26213028D01*
X18703082Y26213028D02*
X18703082Y26498742D01*
X18703082Y26498742D02*
X18645939Y26613028D01*
X18645939Y26613028D02*
X18588797Y26670171D01*
X18588797Y26670171D02*
X18474511Y26727314D01*
X18474511Y26727314D02*
X18245939Y26727314D01*
X18245939Y26727314D02*
X18131654Y26670171D01*
X18131654Y26670171D02*
X18074511Y26613028D01*
X18074511Y26613028D02*
X18017368Y26498742D01*
X15674510Y24052457D02*
X15103082Y24052457D01*
X15103082Y24052457D02*
X15103082Y25252457D01*
X16074511Y24681028D02*
X16474511Y24681028D01*
X16645939Y24052457D02*
X16074511Y24052457D01*
X16074511Y24052457D02*
X16074511Y25252457D01*
X16074511Y25252457D02*
X16645939Y25252457D01*
X17160225Y24052457D02*
X17160225Y25252457D01*
X17160225Y25252457D02*
X17445939Y25252457D01*
X17445939Y25252457D02*
X17617368Y25195314D01*
X17617368Y25195314D02*
X17731653Y25081028D01*
X17731653Y25081028D02*
X17788796Y24966742D01*
X17788796Y24966742D02*
X17845939Y24738171D01*
X17845939Y24738171D02*
X17845939Y24566742D01*
X17845939Y24566742D02*
X17788796Y24338171D01*
X17788796Y24338171D02*
X17731653Y24223885D01*
X17731653Y24223885D02*
X17617368Y24109600D01*
X17617368Y24109600D02*
X17445939Y24052457D01*
X17445939Y24052457D02*
X17160225Y24052457D01*
X18988796Y24052457D02*
X18303082Y24052457D01*
X18645939Y24052457D02*
X18645939Y25252457D01*
X18645939Y25252457D02*
X18531653Y25081028D01*
X18531653Y25081028D02*
X18417368Y24966742D01*
X18417368Y24966742D02*
X18303082Y24909600D01*
X45884971Y9519082D02*
X45942114Y9690510D01*
X45942114Y9690510D02*
X45999257Y9747653D01*
X45999257Y9747653D02*
X46113542Y9804796D01*
X46113542Y9804796D02*
X46284971Y9804796D01*
X46284971Y9804796D02*
X46399257Y9747653D01*
X46399257Y9747653D02*
X46456400Y9690510D01*
X46456400Y9690510D02*
X46513542Y9576225D01*
X46513542Y9576225D02*
X46513542Y9119082D01*
X46513542Y9119082D02*
X45313542Y9119082D01*
X45313542Y9119082D02*
X45313542Y9519082D01*
X45313542Y9519082D02*
X45370685Y9633368D01*
X45370685Y9633368D02*
X45427828Y9690510D01*
X45427828Y9690510D02*
X45542114Y9747653D01*
X45542114Y9747653D02*
X45656400Y9747653D01*
X45656400Y9747653D02*
X45770685Y9690510D01*
X45770685Y9690510D02*
X45827828Y9633368D01*
X45827828Y9633368D02*
X45884971Y9519082D01*
X45884971Y9519082D02*
X45884971Y9119082D01*
X45313542Y10547653D02*
X45313542Y10776225D01*
X45313542Y10776225D02*
X45370685Y10890510D01*
X45370685Y10890510D02*
X45484971Y11004796D01*
X45484971Y11004796D02*
X45713542Y11061939D01*
X45713542Y11061939D02*
X46113542Y11061939D01*
X46113542Y11061939D02*
X46342114Y11004796D01*
X46342114Y11004796D02*
X46456400Y10890510D01*
X46456400Y10890510D02*
X46513542Y10776225D01*
X46513542Y10776225D02*
X46513542Y10547653D01*
X46513542Y10547653D02*
X46456400Y10433368D01*
X46456400Y10433368D02*
X46342114Y10319082D01*
X46342114Y10319082D02*
X46113542Y10261939D01*
X46113542Y10261939D02*
X45713542Y10261939D01*
X45713542Y10261939D02*
X45484971Y10319082D01*
X45484971Y10319082D02*
X45370685Y10433368D01*
X45370685Y10433368D02*
X45313542Y10547653D01*
X45313542Y11804796D02*
X45313542Y12033368D01*
X45313542Y12033368D02*
X45370685Y12147653D01*
X45370685Y12147653D02*
X45484971Y12261939D01*
X45484971Y12261939D02*
X45713542Y12319082D01*
X45713542Y12319082D02*
X46113542Y12319082D01*
X46113542Y12319082D02*
X46342114Y12261939D01*
X46342114Y12261939D02*
X46456400Y12147653D01*
X46456400Y12147653D02*
X46513542Y12033368D01*
X46513542Y12033368D02*
X46513542Y11804796D01*
X46513542Y11804796D02*
X46456400Y11690511D01*
X46456400Y11690511D02*
X46342114Y11576225D01*
X46342114Y11576225D02*
X46113542Y11519082D01*
X46113542Y11519082D02*
X45713542Y11519082D01*
X45713542Y11519082D02*
X45484971Y11576225D01*
X45484971Y11576225D02*
X45370685Y11690511D01*
X45370685Y11690511D02*
X45313542Y11804796D01*
X45313542Y12661939D02*
X45313542Y13347654D01*
X46513542Y13004796D02*
X45313542Y13004796D01*
X11151082Y15665600D02*
X12065368Y15665600D01*
X11608225Y15208457D02*
X11608225Y16122742D01*
X13208224Y16408457D02*
X12636796Y16408457D01*
X12636796Y16408457D02*
X12579653Y15837028D01*
X12579653Y15837028D02*
X12636796Y15894171D01*
X12636796Y15894171D02*
X12751082Y15951314D01*
X12751082Y15951314D02*
X13036796Y15951314D01*
X13036796Y15951314D02*
X13151082Y15894171D01*
X13151082Y15894171D02*
X13208224Y15837028D01*
X13208224Y15837028D02*
X13265367Y15722742D01*
X13265367Y15722742D02*
X13265367Y15437028D01*
X13265367Y15437028D02*
X13208224Y15322742D01*
X13208224Y15322742D02*
X13151082Y15265600D01*
X13151082Y15265600D02*
X13036796Y15208457D01*
X13036796Y15208457D02*
X12751082Y15208457D01*
X12751082Y15208457D02*
X12636796Y15265600D01*
X12636796Y15265600D02*
X12579653Y15322742D01*
X13608224Y16408457D02*
X14008224Y15208457D01*
X14008224Y15208457D02*
X14408224Y16408457D01*
X22248685Y15763653D02*
X22191542Y15649368D01*
X22191542Y15649368D02*
X22191542Y15477939D01*
X22191542Y15477939D02*
X22248685Y15306510D01*
X22248685Y15306510D02*
X22362971Y15192225D01*
X22362971Y15192225D02*
X22477257Y15135082D01*
X22477257Y15135082D02*
X22705828Y15077939D01*
X22705828Y15077939D02*
X22877257Y15077939D01*
X22877257Y15077939D02*
X23105828Y15135082D01*
X23105828Y15135082D02*
X23220114Y15192225D01*
X23220114Y15192225D02*
X23334400Y15306510D01*
X23334400Y15306510D02*
X23391542Y15477939D01*
X23391542Y15477939D02*
X23391542Y15592225D01*
X23391542Y15592225D02*
X23334400Y15763653D01*
X23334400Y15763653D02*
X23277257Y15820796D01*
X23277257Y15820796D02*
X22877257Y15820796D01*
X22877257Y15820796D02*
X22877257Y15592225D01*
X23391542Y16335082D02*
X22191542Y16335082D01*
X22191542Y16335082D02*
X23391542Y17020796D01*
X23391542Y17020796D02*
X22191542Y17020796D01*
X23391542Y17592225D02*
X22191542Y17592225D01*
X22191542Y17592225D02*
X22191542Y17877939D01*
X22191542Y17877939D02*
X22248685Y18049368D01*
X22248685Y18049368D02*
X22362971Y18163653D01*
X22362971Y18163653D02*
X22477257Y18220796D01*
X22477257Y18220796D02*
X22705828Y18277939D01*
X22705828Y18277939D02*
X22877257Y18277939D01*
X22877257Y18277939D02*
X23105828Y18220796D01*
X23105828Y18220796D02*
X23220114Y18163653D01*
X23220114Y18163653D02*
X23334400Y18049368D01*
X23334400Y18049368D02*
X23391542Y17877939D01*
X23391542Y17877939D02*
X23391542Y17592225D01*
X3388225Y2469171D02*
X3959653Y2469171D01*
X3602510Y2969171D02*
X3602510Y1683457D01*
X3602510Y1683457D02*
X3673939Y1540600D01*
X3673939Y1540600D02*
X3816796Y1469171D01*
X3816796Y1469171D02*
X3959653Y1469171D01*
X4673939Y1469171D02*
X4531082Y1540600D01*
X4531082Y1540600D02*
X4459653Y1612028D01*
X4459653Y1612028D02*
X4388225Y1754885D01*
X4388225Y1754885D02*
X4388225Y2183457D01*
X4388225Y2183457D02*
X4459653Y2326314D01*
X4459653Y2326314D02*
X4531082Y2397742D01*
X4531082Y2397742D02*
X4673939Y2469171D01*
X4673939Y2469171D02*
X4888225Y2469171D01*
X4888225Y2469171D02*
X5031082Y2397742D01*
X5031082Y2397742D02*
X5102511Y2326314D01*
X5102511Y2326314D02*
X5173939Y2183457D01*
X5173939Y2183457D02*
X5173939Y1754885D01*
X5173939Y1754885D02*
X5102511Y1612028D01*
X5102511Y1612028D02*
X5031082Y1540600D01*
X5031082Y1540600D02*
X4888225Y1469171D01*
X4888225Y1469171D02*
X4673939Y1469171D01*
X5816796Y2469171D02*
X5816796Y969171D01*
X5816796Y2397742D02*
X5959654Y2469171D01*
X5959654Y2469171D02*
X6245368Y2469171D01*
X6245368Y2469171D02*
X6388225Y2397742D01*
X6388225Y2397742D02*
X6459654Y2326314D01*
X6459654Y2326314D02*
X6531082Y2183457D01*
X6531082Y2183457D02*
X6531082Y1754885D01*
X6531082Y1754885D02*
X6459654Y1612028D01*
X6459654Y1612028D02*
X6388225Y1540600D01*
X6388225Y1540600D02*
X6245368Y1469171D01*
X6245368Y1469171D02*
X5959654Y1469171D01*
X5959654Y1469171D02*
X5816796Y1540600D01*
X15731653Y21161314D02*
X15617368Y21218457D01*
X15617368Y21218457D02*
X15445939Y21218457D01*
X15445939Y21218457D02*
X15274510Y21161314D01*
X15274510Y21161314D02*
X15160225Y21047028D01*
X15160225Y21047028D02*
X15103082Y20932742D01*
X15103082Y20932742D02*
X15045939Y20704171D01*
X15045939Y20704171D02*
X15045939Y20532742D01*
X15045939Y20532742D02*
X15103082Y20304171D01*
X15103082Y20304171D02*
X15160225Y20189885D01*
X15160225Y20189885D02*
X15274510Y20075600D01*
X15274510Y20075600D02*
X15445939Y20018457D01*
X15445939Y20018457D02*
X15560225Y20018457D01*
X15560225Y20018457D02*
X15731653Y20075600D01*
X15731653Y20075600D02*
X15788796Y20132742D01*
X15788796Y20132742D02*
X15788796Y20532742D01*
X15788796Y20532742D02*
X15560225Y20532742D01*
X16303082Y20018457D02*
X16303082Y21218457D01*
X16303082Y21218457D02*
X16988796Y20018457D01*
X16988796Y20018457D02*
X16988796Y21218457D01*
X17560225Y20018457D02*
X17560225Y21218457D01*
X17560225Y21218457D02*
X17845939Y21218457D01*
X17845939Y21218457D02*
X18017368Y21161314D01*
X18017368Y21161314D02*
X18131653Y21047028D01*
X18131653Y21047028D02*
X18188796Y20932742D01*
X18188796Y20932742D02*
X18245939Y20704171D01*
X18245939Y20704171D02*
X18245939Y20532742D01*
X18245939Y20532742D02*
X18188796Y20304171D01*
X18188796Y20304171D02*
X18131653Y20189885D01*
X18131653Y20189885D02*
X18017368Y20075600D01*
X18017368Y20075600D02*
X17845939Y20018457D01*
X17845939Y20018457D02*
X17560225Y20018457D01*
X17425542Y15135082D02*
X16225542Y15135082D01*
X16225542Y15935082D02*
X16225542Y16163654D01*
X16225542Y16163654D02*
X16282685Y16277939D01*
X16282685Y16277939D02*
X16396971Y16392225D01*
X16396971Y16392225D02*
X16625542Y16449368D01*
X16625542Y16449368D02*
X17025542Y16449368D01*
X17025542Y16449368D02*
X17254114Y16392225D01*
X17254114Y16392225D02*
X17368400Y16277939D01*
X17368400Y16277939D02*
X17425542Y16163654D01*
X17425542Y16163654D02*
X17425542Y15935082D01*
X17425542Y15935082D02*
X17368400Y15820797D01*
X17368400Y15820797D02*
X17254114Y15706511D01*
X17254114Y15706511D02*
X17025542Y15649368D01*
X17025542Y15649368D02*
X16625542Y15649368D01*
X16625542Y15649368D02*
X16396971Y15706511D01*
X16396971Y15706511D02*
X16282685Y15820797D01*
X16282685Y15820797D02*
X16225542Y15935082D01*
X17425542Y17592225D02*
X17425542Y16906511D01*
X17425542Y17249368D02*
X16225542Y17249368D01*
X16225542Y17249368D02*
X16396971Y17135082D01*
X16396971Y17135082D02*
X16511257Y17020797D01*
X16511257Y17020797D02*
X16568400Y16906511D01*
X16225542Y17992225D02*
X16225542Y18792225D01*
X16225542Y18792225D02*
X17425542Y18277939D01*
X19357542Y15706510D02*
X19357542Y15135082D01*
X19357542Y15135082D02*
X18157542Y15135082D01*
X18728971Y16106511D02*
X18728971Y16506511D01*
X19357542Y16677939D02*
X19357542Y16106511D01*
X19357542Y16106511D02*
X18157542Y16106511D01*
X18157542Y16106511D02*
X18157542Y16677939D01*
X19357542Y17192225D02*
X18157542Y17192225D01*
X18157542Y17192225D02*
X18157542Y17477939D01*
X18157542Y17477939D02*
X18214685Y17649368D01*
X18214685Y17649368D02*
X18328971Y17763653D01*
X18328971Y17763653D02*
X18443257Y17820796D01*
X18443257Y17820796D02*
X18671828Y17877939D01*
X18671828Y17877939D02*
X18843257Y17877939D01*
X18843257Y17877939D02*
X19071828Y17820796D01*
X19071828Y17820796D02*
X19186114Y17763653D01*
X19186114Y17763653D02*
X19300400Y17649368D01*
X19300400Y17649368D02*
X19357542Y17477939D01*
X19357542Y17477939D02*
X19357542Y17192225D01*
X18271828Y18335082D02*
X18214685Y18392225D01*
X18214685Y18392225D02*
X18157542Y18506511D01*
X18157542Y18506511D02*
X18157542Y18792225D01*
X18157542Y18792225D02*
X18214685Y18906511D01*
X18214685Y18906511D02*
X18271828Y18963653D01*
X18271828Y18963653D02*
X18386114Y19020796D01*
X18386114Y19020796D02*
X18500400Y19020796D01*
X18500400Y19020796D02*
X18671828Y18963653D01*
X18671828Y18963653D02*
X19357542Y18277939D01*
X19357542Y18277939D02*
X19357542Y19020796D01*
X43586796Y34258457D02*
X43186796Y34829885D01*
X42901082Y34258457D02*
X42901082Y35458457D01*
X42901082Y35458457D02*
X43358225Y35458457D01*
X43358225Y35458457D02*
X43472510Y35401314D01*
X43472510Y35401314D02*
X43529653Y35344171D01*
X43529653Y35344171D02*
X43586796Y35229885D01*
X43586796Y35229885D02*
X43586796Y35058457D01*
X43586796Y35058457D02*
X43529653Y34944171D01*
X43529653Y34944171D02*
X43472510Y34887028D01*
X43472510Y34887028D02*
X43358225Y34829885D01*
X43358225Y34829885D02*
X42901082Y34829885D01*
X44043939Y34315600D02*
X44215368Y34258457D01*
X44215368Y34258457D02*
X44501082Y34258457D01*
X44501082Y34258457D02*
X44615368Y34315600D01*
X44615368Y34315600D02*
X44672510Y34372742D01*
X44672510Y34372742D02*
X44729653Y34487028D01*
X44729653Y34487028D02*
X44729653Y34601314D01*
X44729653Y34601314D02*
X44672510Y34715600D01*
X44672510Y34715600D02*
X44615368Y34772742D01*
X44615368Y34772742D02*
X44501082Y34829885D01*
X44501082Y34829885D02*
X44272510Y34887028D01*
X44272510Y34887028D02*
X44158225Y34944171D01*
X44158225Y34944171D02*
X44101082Y35001314D01*
X44101082Y35001314D02*
X44043939Y35115600D01*
X44043939Y35115600D02*
X44043939Y35229885D01*
X44043939Y35229885D02*
X44101082Y35344171D01*
X44101082Y35344171D02*
X44158225Y35401314D01*
X44158225Y35401314D02*
X44272510Y35458457D01*
X44272510Y35458457D02*
X44558225Y35458457D01*
X44558225Y35458457D02*
X44729653Y35401314D01*
X45072510Y35458457D02*
X45758225Y35458457D01*
X45415367Y34258457D02*
X45415367Y35458457D01*
X41123082Y45638457D02*
X41123082Y46838457D01*
X41923082Y46838457D02*
X42151654Y46838457D01*
X42151654Y46838457D02*
X42265939Y46781314D01*
X42265939Y46781314D02*
X42380225Y46667028D01*
X42380225Y46667028D02*
X42437368Y46438457D01*
X42437368Y46438457D02*
X42437368Y46038457D01*
X42437368Y46038457D02*
X42380225Y45809885D01*
X42380225Y45809885D02*
X42265939Y45695600D01*
X42265939Y45695600D02*
X42151654Y45638457D01*
X42151654Y45638457D02*
X41923082Y45638457D01*
X41923082Y45638457D02*
X41808797Y45695600D01*
X41808797Y45695600D02*
X41694511Y45809885D01*
X41694511Y45809885D02*
X41637368Y46038457D01*
X41637368Y46038457D02*
X41637368Y46438457D01*
X41637368Y46438457D02*
X41694511Y46667028D01*
X41694511Y46667028D02*
X41808797Y46781314D01*
X41808797Y46781314D02*
X41923082Y46838457D01*
X42894511Y46724171D02*
X42951654Y46781314D01*
X42951654Y46781314D02*
X43065940Y46838457D01*
X43065940Y46838457D02*
X43351654Y46838457D01*
X43351654Y46838457D02*
X43465940Y46781314D01*
X43465940Y46781314D02*
X43523082Y46724171D01*
X43523082Y46724171D02*
X43580225Y46609885D01*
X43580225Y46609885D02*
X43580225Y46495600D01*
X43580225Y46495600D02*
X43523082Y46324171D01*
X43523082Y46324171D02*
X42837368Y45638457D01*
X42837368Y45638457D02*
X43580225Y45638457D01*
X43980225Y46838457D02*
X44780225Y46838457D01*
X44780225Y46838457D02*
X44265939Y45638457D01*
X41808796Y43706457D02*
X41408796Y44277885D01*
X41123082Y43706457D02*
X41123082Y44906457D01*
X41123082Y44906457D02*
X41580225Y44906457D01*
X41580225Y44906457D02*
X41694510Y44849314D01*
X41694510Y44849314D02*
X41751653Y44792171D01*
X41751653Y44792171D02*
X41808796Y44677885D01*
X41808796Y44677885D02*
X41808796Y44506457D01*
X41808796Y44506457D02*
X41751653Y44392171D01*
X41751653Y44392171D02*
X41694510Y44335028D01*
X41694510Y44335028D02*
X41580225Y44277885D01*
X41580225Y44277885D02*
X41123082Y44277885D01*
X42323082Y44335028D02*
X42723082Y44335028D01*
X42894510Y43706457D02*
X42323082Y43706457D01*
X42323082Y43706457D02*
X42323082Y44906457D01*
X42323082Y44906457D02*
X42894510Y44906457D01*
X43408796Y43706457D02*
X43408796Y44906457D01*
X43408796Y44906457D02*
X43808796Y44049314D01*
X43808796Y44049314D02*
X44208796Y44906457D01*
X44208796Y44906457D02*
X44208796Y43706457D01*
X2146796Y41454457D02*
X2432510Y40254457D01*
X2432510Y40254457D02*
X2661082Y41111600D01*
X2661082Y41111600D02*
X2889653Y40254457D01*
X2889653Y40254457D02*
X3175368Y41454457D01*
X3575368Y40311600D02*
X3746797Y40254457D01*
X3746797Y40254457D02*
X4032511Y40254457D01*
X4032511Y40254457D02*
X4146797Y40311600D01*
X4146797Y40311600D02*
X4203939Y40368742D01*
X4203939Y40368742D02*
X4261082Y40483028D01*
X4261082Y40483028D02*
X4261082Y40597314D01*
X4261082Y40597314D02*
X4203939Y40711600D01*
X4203939Y40711600D02*
X4146797Y40768742D01*
X4146797Y40768742D02*
X4032511Y40825885D01*
X4032511Y40825885D02*
X3803939Y40883028D01*
X3803939Y40883028D02*
X3689654Y40940171D01*
X3689654Y40940171D02*
X3632511Y40997314D01*
X3632511Y40997314D02*
X3575368Y41111600D01*
X3575368Y41111600D02*
X3575368Y41225885D01*
X3575368Y41225885D02*
X3632511Y41340171D01*
X3632511Y41340171D02*
X3689654Y41397314D01*
X3689654Y41397314D02*
X3803939Y41454457D01*
X3803939Y41454457D02*
X4089654Y41454457D01*
X4089654Y41454457D02*
X4261082Y41397314D01*
X4775368Y40368742D02*
X4832511Y40311600D01*
X4832511Y40311600D02*
X4775368Y40254457D01*
X4775368Y40254457D02*
X4718225Y40311600D01*
X4718225Y40311600D02*
X4775368Y40368742D01*
X4775368Y40368742D02*
X4775368Y40254457D01*
X4775368Y40997314D02*
X4832511Y40940171D01*
X4832511Y40940171D02*
X4775368Y40883028D01*
X4775368Y40883028D02*
X4718225Y40940171D01*
X4718225Y40940171D02*
X4775368Y40997314D01*
X4775368Y40997314D02*
X4775368Y40883028D01*
X6261083Y40254457D02*
X6261083Y41454457D01*
X7061083Y41454457D02*
X7289655Y41454457D01*
X7289655Y41454457D02*
X7403940Y41397314D01*
X7403940Y41397314D02*
X7518226Y41283028D01*
X7518226Y41283028D02*
X7575369Y41054457D01*
X7575369Y41054457D02*
X7575369Y40654457D01*
X7575369Y40654457D02*
X7518226Y40425885D01*
X7518226Y40425885D02*
X7403940Y40311600D01*
X7403940Y40311600D02*
X7289655Y40254457D01*
X7289655Y40254457D02*
X7061083Y40254457D01*
X7061083Y40254457D02*
X6946798Y40311600D01*
X6946798Y40311600D02*
X6832512Y40425885D01*
X6832512Y40425885D02*
X6775369Y40654457D01*
X6775369Y40654457D02*
X6775369Y41054457D01*
X6775369Y41054457D02*
X6832512Y41283028D01*
X6832512Y41283028D02*
X6946798Y41397314D01*
X6946798Y41397314D02*
X7061083Y41454457D01*
X8318226Y41454457D02*
X8432512Y41454457D01*
X8432512Y41454457D02*
X8546798Y41397314D01*
X8546798Y41397314D02*
X8603941Y41340171D01*
X8603941Y41340171D02*
X8661083Y41225885D01*
X8661083Y41225885D02*
X8718226Y40997314D01*
X8718226Y40997314D02*
X8718226Y40711600D01*
X8718226Y40711600D02*
X8661083Y40483028D01*
X8661083Y40483028D02*
X8603941Y40368742D01*
X8603941Y40368742D02*
X8546798Y40311600D01*
X8546798Y40311600D02*
X8432512Y40254457D01*
X8432512Y40254457D02*
X8318226Y40254457D01*
X8318226Y40254457D02*
X8203941Y40311600D01*
X8203941Y40311600D02*
X8146798Y40368742D01*
X8146798Y40368742D02*
X8089655Y40483028D01*
X8089655Y40483028D02*
X8032512Y40711600D01*
X8032512Y40711600D02*
X8032512Y40997314D01*
X8032512Y40997314D02*
X8089655Y41225885D01*
X8089655Y41225885D02*
X8146798Y41340171D01*
X8146798Y41340171D02*
X8203941Y41397314D01*
X8203941Y41397314D02*
X8318226Y41454457D01*
X9803940Y41454457D02*
X9232512Y41454457D01*
X9232512Y41454457D02*
X9175369Y40883028D01*
X9175369Y40883028D02*
X9232512Y40940171D01*
X9232512Y40940171D02*
X9346798Y40997314D01*
X9346798Y40997314D02*
X9632512Y40997314D01*
X9632512Y40997314D02*
X9746798Y40940171D01*
X9746798Y40940171D02*
X9803940Y40883028D01*
X9803940Y40883028D02*
X9861083Y40768742D01*
X9861083Y40768742D02*
X9861083Y40483028D01*
X9861083Y40483028D02*
X9803940Y40368742D01*
X9803940Y40368742D02*
X9746798Y40311600D01*
X9746798Y40311600D02*
X9632512Y40254457D01*
X9632512Y40254457D02*
X9346798Y40254457D01*
X9346798Y40254457D02*
X9232512Y40311600D01*
X9232512Y40311600D02*
X9175369Y40368742D01*
X2203939Y38379600D02*
X2375368Y38322457D01*
X2375368Y38322457D02*
X2661082Y38322457D01*
X2661082Y38322457D02*
X2775368Y38379600D01*
X2775368Y38379600D02*
X2832510Y38436742D01*
X2832510Y38436742D02*
X2889653Y38551028D01*
X2889653Y38551028D02*
X2889653Y38665314D01*
X2889653Y38665314D02*
X2832510Y38779600D01*
X2832510Y38779600D02*
X2775368Y38836742D01*
X2775368Y38836742D02*
X2661082Y38893885D01*
X2661082Y38893885D02*
X2432510Y38951028D01*
X2432510Y38951028D02*
X2318225Y39008171D01*
X2318225Y39008171D02*
X2261082Y39065314D01*
X2261082Y39065314D02*
X2203939Y39179600D01*
X2203939Y39179600D02*
X2203939Y39293885D01*
X2203939Y39293885D02*
X2261082Y39408171D01*
X2261082Y39408171D02*
X2318225Y39465314D01*
X2318225Y39465314D02*
X2432510Y39522457D01*
X2432510Y39522457D02*
X2718225Y39522457D01*
X2718225Y39522457D02*
X2889653Y39465314D01*
X4089653Y38436742D02*
X4032510Y38379600D01*
X4032510Y38379600D02*
X3861082Y38322457D01*
X3861082Y38322457D02*
X3746796Y38322457D01*
X3746796Y38322457D02*
X3575367Y38379600D01*
X3575367Y38379600D02*
X3461082Y38493885D01*
X3461082Y38493885D02*
X3403939Y38608171D01*
X3403939Y38608171D02*
X3346796Y38836742D01*
X3346796Y38836742D02*
X3346796Y39008171D01*
X3346796Y39008171D02*
X3403939Y39236742D01*
X3403939Y39236742D02*
X3461082Y39351028D01*
X3461082Y39351028D02*
X3575367Y39465314D01*
X3575367Y39465314D02*
X3746796Y39522457D01*
X3746796Y39522457D02*
X3861082Y39522457D01*
X3861082Y39522457D02*
X4032510Y39465314D01*
X4032510Y39465314D02*
X4089653Y39408171D01*
X4603939Y38322457D02*
X4603939Y39522457D01*
X5289653Y38322457D02*
X4775367Y39008171D01*
X5289653Y39522457D02*
X4603939Y38836742D01*
X5803939Y38436742D02*
X5861082Y38379600D01*
X5861082Y38379600D02*
X5803939Y38322457D01*
X5803939Y38322457D02*
X5746796Y38379600D01*
X5746796Y38379600D02*
X5803939Y38436742D01*
X5803939Y38436742D02*
X5803939Y38322457D01*
X5803939Y39065314D02*
X5861082Y39008171D01*
X5861082Y39008171D02*
X5803939Y38951028D01*
X5803939Y38951028D02*
X5746796Y39008171D01*
X5746796Y39008171D02*
X5803939Y39065314D01*
X5803939Y39065314D02*
X5803939Y38951028D01*
X7289654Y38322457D02*
X7289654Y39522457D01*
X8089654Y39522457D02*
X8318226Y39522457D01*
X8318226Y39522457D02*
X8432511Y39465314D01*
X8432511Y39465314D02*
X8546797Y39351028D01*
X8546797Y39351028D02*
X8603940Y39122457D01*
X8603940Y39122457D02*
X8603940Y38722457D01*
X8603940Y38722457D02*
X8546797Y38493885D01*
X8546797Y38493885D02*
X8432511Y38379600D01*
X8432511Y38379600D02*
X8318226Y38322457D01*
X8318226Y38322457D02*
X8089654Y38322457D01*
X8089654Y38322457D02*
X7975369Y38379600D01*
X7975369Y38379600D02*
X7861083Y38493885D01*
X7861083Y38493885D02*
X7803940Y38722457D01*
X7803940Y38722457D02*
X7803940Y39122457D01*
X7803940Y39122457D02*
X7861083Y39351028D01*
X7861083Y39351028D02*
X7975369Y39465314D01*
X7975369Y39465314D02*
X8089654Y39522457D01*
X9061083Y39408171D02*
X9118226Y39465314D01*
X9118226Y39465314D02*
X9232512Y39522457D01*
X9232512Y39522457D02*
X9518226Y39522457D01*
X9518226Y39522457D02*
X9632512Y39465314D01*
X9632512Y39465314D02*
X9689654Y39408171D01*
X9689654Y39408171D02*
X9746797Y39293885D01*
X9746797Y39293885D02*
X9746797Y39179600D01*
X9746797Y39179600D02*
X9689654Y39008171D01*
X9689654Y39008171D02*
X9003940Y38322457D01*
X9003940Y38322457D02*
X9746797Y38322457D01*
X10889654Y38322457D02*
X10203940Y38322457D01*
X10546797Y38322457D02*
X10546797Y39522457D01*
X10546797Y39522457D02*
X10432511Y39351028D01*
X10432511Y39351028D02*
X10318226Y39236742D01*
X10318226Y39236742D02*
X10203940Y39179600D01*
X2203939Y36447600D02*
X2375368Y36390457D01*
X2375368Y36390457D02*
X2661082Y36390457D01*
X2661082Y36390457D02*
X2775368Y36447600D01*
X2775368Y36447600D02*
X2832510Y36504742D01*
X2832510Y36504742D02*
X2889653Y36619028D01*
X2889653Y36619028D02*
X2889653Y36733314D01*
X2889653Y36733314D02*
X2832510Y36847600D01*
X2832510Y36847600D02*
X2775368Y36904742D01*
X2775368Y36904742D02*
X2661082Y36961885D01*
X2661082Y36961885D02*
X2432510Y37019028D01*
X2432510Y37019028D02*
X2318225Y37076171D01*
X2318225Y37076171D02*
X2261082Y37133314D01*
X2261082Y37133314D02*
X2203939Y37247600D01*
X2203939Y37247600D02*
X2203939Y37361885D01*
X2203939Y37361885D02*
X2261082Y37476171D01*
X2261082Y37476171D02*
X2318225Y37533314D01*
X2318225Y37533314D02*
X2432510Y37590457D01*
X2432510Y37590457D02*
X2718225Y37590457D01*
X2718225Y37590457D02*
X2889653Y37533314D01*
X3403939Y36390457D02*
X3403939Y37590457D01*
X3403939Y37590457D02*
X3689653Y37590457D01*
X3689653Y37590457D02*
X3861082Y37533314D01*
X3861082Y37533314D02*
X3975367Y37419028D01*
X3975367Y37419028D02*
X4032510Y37304742D01*
X4032510Y37304742D02*
X4089653Y37076171D01*
X4089653Y37076171D02*
X4089653Y36904742D01*
X4089653Y36904742D02*
X4032510Y36676171D01*
X4032510Y36676171D02*
X3975367Y36561885D01*
X3975367Y36561885D02*
X3861082Y36447600D01*
X3861082Y36447600D02*
X3689653Y36390457D01*
X3689653Y36390457D02*
X3403939Y36390457D01*
X4603939Y36504742D02*
X4661082Y36447600D01*
X4661082Y36447600D02*
X4603939Y36390457D01*
X4603939Y36390457D02*
X4546796Y36447600D01*
X4546796Y36447600D02*
X4603939Y36504742D01*
X4603939Y36504742D02*
X4603939Y36390457D01*
X4603939Y37133314D02*
X4661082Y37076171D01*
X4661082Y37076171D02*
X4603939Y37019028D01*
X4603939Y37019028D02*
X4546796Y37076171D01*
X4546796Y37076171D02*
X4603939Y37133314D01*
X4603939Y37133314D02*
X4603939Y37019028D01*
X6089654Y36390457D02*
X6089654Y37590457D01*
X6889654Y37590457D02*
X7118226Y37590457D01*
X7118226Y37590457D02*
X7232511Y37533314D01*
X7232511Y37533314D02*
X7346797Y37419028D01*
X7346797Y37419028D02*
X7403940Y37190457D01*
X7403940Y37190457D02*
X7403940Y36790457D01*
X7403940Y36790457D02*
X7346797Y36561885D01*
X7346797Y36561885D02*
X7232511Y36447600D01*
X7232511Y36447600D02*
X7118226Y36390457D01*
X7118226Y36390457D02*
X6889654Y36390457D01*
X6889654Y36390457D02*
X6775369Y36447600D01*
X6775369Y36447600D02*
X6661083Y36561885D01*
X6661083Y36561885D02*
X6603940Y36790457D01*
X6603940Y36790457D02*
X6603940Y37190457D01*
X6603940Y37190457D02*
X6661083Y37419028D01*
X6661083Y37419028D02*
X6775369Y37533314D01*
X6775369Y37533314D02*
X6889654Y37590457D01*
X7861083Y37476171D02*
X7918226Y37533314D01*
X7918226Y37533314D02*
X8032512Y37590457D01*
X8032512Y37590457D02*
X8318226Y37590457D01*
X8318226Y37590457D02*
X8432512Y37533314D01*
X8432512Y37533314D02*
X8489654Y37476171D01*
X8489654Y37476171D02*
X8546797Y37361885D01*
X8546797Y37361885D02*
X8546797Y37247600D01*
X8546797Y37247600D02*
X8489654Y37076171D01*
X8489654Y37076171D02*
X7803940Y36390457D01*
X7803940Y36390457D02*
X8546797Y36390457D01*
X9575369Y37590457D02*
X9346797Y37590457D01*
X9346797Y37590457D02*
X9232511Y37533314D01*
X9232511Y37533314D02*
X9175369Y37476171D01*
X9175369Y37476171D02*
X9061083Y37304742D01*
X9061083Y37304742D02*
X9003940Y37076171D01*
X9003940Y37076171D02*
X9003940Y36619028D01*
X9003940Y36619028D02*
X9061083Y36504742D01*
X9061083Y36504742D02*
X9118226Y36447600D01*
X9118226Y36447600D02*
X9232511Y36390457D01*
X9232511Y36390457D02*
X9461083Y36390457D01*
X9461083Y36390457D02*
X9575369Y36447600D01*
X9575369Y36447600D02*
X9632511Y36504742D01*
X9632511Y36504742D02*
X9689654Y36619028D01*
X9689654Y36619028D02*
X9689654Y36904742D01*
X9689654Y36904742D02*
X9632511Y37019028D01*
X9632511Y37019028D02*
X9575369Y37076171D01*
X9575369Y37076171D02*
X9461083Y37133314D01*
X9461083Y37133314D02*
X9232511Y37133314D01*
X9232511Y37133314D02*
X9118226Y37076171D01*
X9118226Y37076171D02*
X9061083Y37019028D01*
X9061083Y37019028D02*
X9003940Y36904742D01*
X35967542Y15135082D02*
X34767542Y15135082D01*
X34767542Y15935082D02*
X34767542Y16163654D01*
X34767542Y16163654D02*
X34824685Y16277939D01*
X34824685Y16277939D02*
X34938971Y16392225D01*
X34938971Y16392225D02*
X35167542Y16449368D01*
X35167542Y16449368D02*
X35567542Y16449368D01*
X35567542Y16449368D02*
X35796114Y16392225D01*
X35796114Y16392225D02*
X35910400Y16277939D01*
X35910400Y16277939D02*
X35967542Y16163654D01*
X35967542Y16163654D02*
X35967542Y15935082D01*
X35967542Y15935082D02*
X35910400Y15820797D01*
X35910400Y15820797D02*
X35796114Y15706511D01*
X35796114Y15706511D02*
X35567542Y15649368D01*
X35567542Y15649368D02*
X35167542Y15649368D01*
X35167542Y15649368D02*
X34938971Y15706511D01*
X34938971Y15706511D02*
X34824685Y15820797D01*
X34824685Y15820797D02*
X34767542Y15935082D01*
X35967542Y17592225D02*
X35967542Y16906511D01*
X35967542Y17249368D02*
X34767542Y17249368D01*
X34767542Y17249368D02*
X34938971Y17135082D01*
X34938971Y17135082D02*
X35053257Y17020797D01*
X35053257Y17020797D02*
X35110400Y16906511D01*
X34767542Y18677939D02*
X34767542Y18106511D01*
X34767542Y18106511D02*
X35338971Y18049368D01*
X35338971Y18049368D02*
X35281828Y18106511D01*
X35281828Y18106511D02*
X35224685Y18220797D01*
X35224685Y18220797D02*
X35224685Y18506511D01*
X35224685Y18506511D02*
X35281828Y18620797D01*
X35281828Y18620797D02*
X35338971Y18677939D01*
X35338971Y18677939D02*
X35453257Y18735082D01*
X35453257Y18735082D02*
X35738971Y18735082D01*
X35738971Y18735082D02*
X35853257Y18677939D01*
X35853257Y18677939D02*
X35910400Y18620797D01*
X35910400Y18620797D02*
X35967542Y18506511D01*
X35967542Y18506511D02*
X35967542Y18220797D01*
X35967542Y18220797D02*
X35910400Y18106511D01*
X35910400Y18106511D02*
X35853257Y18049368D01*
X37899542Y15706510D02*
X37899542Y15135082D01*
X37899542Y15135082D02*
X36699542Y15135082D01*
X37270971Y16106511D02*
X37270971Y16506511D01*
X37899542Y16677939D02*
X37899542Y16106511D01*
X37899542Y16106511D02*
X36699542Y16106511D01*
X36699542Y16106511D02*
X36699542Y16677939D01*
X37899542Y17192225D02*
X36699542Y17192225D01*
X36699542Y17192225D02*
X36699542Y17477939D01*
X36699542Y17477939D02*
X36756685Y17649368D01*
X36756685Y17649368D02*
X36870971Y17763653D01*
X36870971Y17763653D02*
X36985257Y17820796D01*
X36985257Y17820796D02*
X37213828Y17877939D01*
X37213828Y17877939D02*
X37385257Y17877939D01*
X37385257Y17877939D02*
X37613828Y17820796D01*
X37613828Y17820796D02*
X37728114Y17763653D01*
X37728114Y17763653D02*
X37842400Y17649368D01*
X37842400Y17649368D02*
X37899542Y17477939D01*
X37899542Y17477939D02*
X37899542Y17192225D01*
X36699542Y18620796D02*
X36699542Y18735082D01*
X36699542Y18735082D02*
X36756685Y18849368D01*
X36756685Y18849368D02*
X36813828Y18906511D01*
X36813828Y18906511D02*
X36928114Y18963653D01*
X36928114Y18963653D02*
X37156685Y19020796D01*
X37156685Y19020796D02*
X37442400Y19020796D01*
X37442400Y19020796D02*
X37670971Y18963653D01*
X37670971Y18963653D02*
X37785257Y18906511D01*
X37785257Y18906511D02*
X37842400Y18849368D01*
X37842400Y18849368D02*
X37899542Y18735082D01*
X37899542Y18735082D02*
X37899542Y18620796D01*
X37899542Y18620796D02*
X37842400Y18506511D01*
X37842400Y18506511D02*
X37785257Y18449368D01*
X37785257Y18449368D02*
X37670971Y18392225D01*
X37670971Y18392225D02*
X37442400Y18335082D01*
X37442400Y18335082D02*
X37156685Y18335082D01*
X37156685Y18335082D02*
X36928114Y18392225D01*
X36928114Y18392225D02*
X36813828Y18449368D01*
X36813828Y18449368D02*
X36756685Y18506511D01*
X36756685Y18506511D02*
X36699542Y18620796D01*
X33757082Y30448457D02*
X33757082Y31648457D01*
X34557082Y31648457D02*
X34785654Y31648457D01*
X34785654Y31648457D02*
X34899939Y31591314D01*
X34899939Y31591314D02*
X35014225Y31477028D01*
X35014225Y31477028D02*
X35071368Y31248457D01*
X35071368Y31248457D02*
X35071368Y30848457D01*
X35071368Y30848457D02*
X35014225Y30619885D01*
X35014225Y30619885D02*
X34899939Y30505600D01*
X34899939Y30505600D02*
X34785654Y30448457D01*
X34785654Y30448457D02*
X34557082Y30448457D01*
X34557082Y30448457D02*
X34442797Y30505600D01*
X34442797Y30505600D02*
X34328511Y30619885D01*
X34328511Y30619885D02*
X34271368Y30848457D01*
X34271368Y30848457D02*
X34271368Y31248457D01*
X34271368Y31248457D02*
X34328511Y31477028D01*
X34328511Y31477028D02*
X34442797Y31591314D01*
X34442797Y31591314D02*
X34557082Y31648457D01*
X36214225Y30448457D02*
X35528511Y30448457D01*
X35871368Y30448457D02*
X35871368Y31648457D01*
X35871368Y31648457D02*
X35757082Y31477028D01*
X35757082Y31477028D02*
X35642797Y31362742D01*
X35642797Y31362742D02*
X35528511Y31305600D01*
X36785654Y30448457D02*
X37014225Y30448457D01*
X37014225Y30448457D02*
X37128511Y30505600D01*
X37128511Y30505600D02*
X37185654Y30562742D01*
X37185654Y30562742D02*
X37299939Y30734171D01*
X37299939Y30734171D02*
X37357082Y30962742D01*
X37357082Y30962742D02*
X37357082Y31419885D01*
X37357082Y31419885D02*
X37299939Y31534171D01*
X37299939Y31534171D02*
X37242797Y31591314D01*
X37242797Y31591314D02*
X37128511Y31648457D01*
X37128511Y31648457D02*
X36899939Y31648457D01*
X36899939Y31648457D02*
X36785654Y31591314D01*
X36785654Y31591314D02*
X36728511Y31534171D01*
X36728511Y31534171D02*
X36671368Y31419885D01*
X36671368Y31419885D02*
X36671368Y31134171D01*
X36671368Y31134171D02*
X36728511Y31019885D01*
X36728511Y31019885D02*
X36785654Y30962742D01*
X36785654Y30962742D02*
X36899939Y30905600D01*
X36899939Y30905600D02*
X37128511Y30905600D01*
X37128511Y30905600D02*
X37242797Y30962742D01*
X37242797Y30962742D02*
X37299939Y31019885D01*
X37299939Y31019885D02*
X37357082Y31134171D01*
X39185654Y31077028D02*
X39357082Y31019885D01*
X39357082Y31019885D02*
X39414225Y30962742D01*
X39414225Y30962742D02*
X39471368Y30848457D01*
X39471368Y30848457D02*
X39471368Y30677028D01*
X39471368Y30677028D02*
X39414225Y30562742D01*
X39414225Y30562742D02*
X39357082Y30505600D01*
X39357082Y30505600D02*
X39242797Y30448457D01*
X39242797Y30448457D02*
X38785654Y30448457D01*
X38785654Y30448457D02*
X38785654Y31648457D01*
X38785654Y31648457D02*
X39185654Y31648457D01*
X39185654Y31648457D02*
X39299940Y31591314D01*
X39299940Y31591314D02*
X39357082Y31534171D01*
X39357082Y31534171D02*
X39414225Y31419885D01*
X39414225Y31419885D02*
X39414225Y31305600D01*
X39414225Y31305600D02*
X39357082Y31191314D01*
X39357082Y31191314D02*
X39299940Y31134171D01*
X39299940Y31134171D02*
X39185654Y31077028D01*
X39185654Y31077028D02*
X38785654Y31077028D01*
X39814225Y31648457D02*
X40499940Y31648457D01*
X40157082Y30448457D02*
X40157082Y31648457D01*
X40899940Y30448457D02*
X40899940Y31648457D01*
X40899940Y31648457D02*
X41585654Y30448457D01*
X41585654Y30448457D02*
X41585654Y31648457D01*
X42385654Y31648457D02*
X42499940Y31648457D01*
X42499940Y31648457D02*
X42614226Y31591314D01*
X42614226Y31591314D02*
X42671369Y31534171D01*
X42671369Y31534171D02*
X42728511Y31419885D01*
X42728511Y31419885D02*
X42785654Y31191314D01*
X42785654Y31191314D02*
X42785654Y30905600D01*
X42785654Y30905600D02*
X42728511Y30677028D01*
X42728511Y30677028D02*
X42671369Y30562742D01*
X42671369Y30562742D02*
X42614226Y30505600D01*
X42614226Y30505600D02*
X42499940Y30448457D01*
X42499940Y30448457D02*
X42385654Y30448457D01*
X42385654Y30448457D02*
X42271369Y30505600D01*
X42271369Y30505600D02*
X42214226Y30562742D01*
X42214226Y30562742D02*
X42157083Y30677028D01*
X42157083Y30677028D02*
X42099940Y30905600D01*
X42099940Y30905600D02*
X42099940Y31191314D01*
X42099940Y31191314D02*
X42157083Y31419885D01*
X42157083Y31419885D02*
X42214226Y31534171D01*
X42214226Y31534171D02*
X42271369Y31591314D01*
X42271369Y31591314D02*
X42385654Y31648457D01*
X15103082Y30475600D02*
X16017368Y30475600D01*
X15560225Y30018457D02*
X15560225Y30932742D01*
X17160224Y31218457D02*
X16588796Y31218457D01*
X16588796Y31218457D02*
X16531653Y30647028D01*
X16531653Y30647028D02*
X16588796Y30704171D01*
X16588796Y30704171D02*
X16703082Y30761314D01*
X16703082Y30761314D02*
X16988796Y30761314D01*
X16988796Y30761314D02*
X17103082Y30704171D01*
X17103082Y30704171D02*
X17160224Y30647028D01*
X17160224Y30647028D02*
X17217367Y30532742D01*
X17217367Y30532742D02*
X17217367Y30247028D01*
X17217367Y30247028D02*
X17160224Y30132742D01*
X17160224Y30132742D02*
X17103082Y30075600D01*
X17103082Y30075600D02*
X16988796Y30018457D01*
X16988796Y30018457D02*
X16703082Y30018457D01*
X16703082Y30018457D02*
X16588796Y30075600D01*
X16588796Y30075600D02*
X16531653Y30132742D01*
X17560224Y31218457D02*
X17960224Y30018457D01*
X17960224Y30018457D02*
X18360224Y31218457D01*
X29534225Y34647742D02*
X29391368Y34719171D01*
X29391368Y34719171D02*
X29177082Y34719171D01*
X29177082Y34719171D02*
X28962796Y34647742D01*
X28962796Y34647742D02*
X28819939Y34504885D01*
X28819939Y34504885D02*
X28748510Y34362028D01*
X28748510Y34362028D02*
X28677082Y34076314D01*
X28677082Y34076314D02*
X28677082Y33862028D01*
X28677082Y33862028D02*
X28748510Y33576314D01*
X28748510Y33576314D02*
X28819939Y33433457D01*
X28819939Y33433457D02*
X28962796Y33290600D01*
X28962796Y33290600D02*
X29177082Y33219171D01*
X29177082Y33219171D02*
X29319939Y33219171D01*
X29319939Y33219171D02*
X29534225Y33290600D01*
X29534225Y33290600D02*
X29605653Y33362028D01*
X29605653Y33362028D02*
X29605653Y33862028D01*
X29605653Y33862028D02*
X29319939Y33862028D01*
X30248510Y33219171D02*
X30248510Y34719171D01*
X30248510Y34719171D02*
X31105653Y33219171D01*
X31105653Y33219171D02*
X31105653Y34719171D01*
X31819939Y33219171D02*
X31819939Y34719171D01*
X31819939Y34719171D02*
X32177082Y34719171D01*
X32177082Y34719171D02*
X32391368Y34647742D01*
X32391368Y34647742D02*
X32534225Y34504885D01*
X32534225Y34504885D02*
X32605654Y34362028D01*
X32605654Y34362028D02*
X32677082Y34076314D01*
X32677082Y34076314D02*
X32677082Y33862028D01*
X32677082Y33862028D02*
X32605654Y33576314D01*
X32605654Y33576314D02*
X32534225Y33433457D01*
X32534225Y33433457D02*
X32391368Y33290600D01*
X32391368Y33290600D02*
X32177082Y33219171D01*
X32177082Y33219171D02*
X31819939Y33219171D01*
D11*
X58620819Y9485333D02*
X58144628Y9152000D01*
X58620819Y8913905D02*
X57620819Y8913905D01*
X57620819Y8913905D02*
X57620819Y9294857D01*
X57620819Y9294857D02*
X57668438Y9390095D01*
X57668438Y9390095D02*
X57716057Y9437714D01*
X57716057Y9437714D02*
X57811295Y9485333D01*
X57811295Y9485333D02*
X57954152Y9485333D01*
X57954152Y9485333D02*
X58049390Y9437714D01*
X58049390Y9437714D02*
X58097009Y9390095D01*
X58097009Y9390095D02*
X58144628Y9294857D01*
X58144628Y9294857D02*
X58144628Y8913905D01*
X57620819Y9818667D02*
X57620819Y10485333D01*
X57620819Y10485333D02*
X58620819Y10056762D01*
X55355833Y10561180D02*
X55022500Y11037371D01*
X54784405Y10561180D02*
X54784405Y11561180D01*
X54784405Y11561180D02*
X55165357Y11561180D01*
X55165357Y11561180D02*
X55260595Y11513561D01*
X55260595Y11513561D02*
X55308214Y11465942D01*
X55308214Y11465942D02*
X55355833Y11370704D01*
X55355833Y11370704D02*
X55355833Y11227847D01*
X55355833Y11227847D02*
X55308214Y11132609D01*
X55308214Y11132609D02*
X55260595Y11084990D01*
X55260595Y11084990D02*
X55165357Y11037371D01*
X55165357Y11037371D02*
X54784405Y11037371D01*
X55736786Y11465942D02*
X55784405Y11513561D01*
X55784405Y11513561D02*
X55879643Y11561180D01*
X55879643Y11561180D02*
X56117738Y11561180D01*
X56117738Y11561180D02*
X56212976Y11513561D01*
X56212976Y11513561D02*
X56260595Y11465942D01*
X56260595Y11465942D02*
X56308214Y11370704D01*
X56308214Y11370704D02*
X56308214Y11275466D01*
X56308214Y11275466D02*
X56260595Y11132609D01*
X56260595Y11132609D02*
X55689167Y10561180D01*
X55689167Y10561180D02*
X56308214Y10561180D01*
X70104095Y35597180D02*
X70104095Y34787657D01*
X70104095Y34787657D02*
X70151714Y34692419D01*
X70151714Y34692419D02*
X70199333Y34644800D01*
X70199333Y34644800D02*
X70294571Y34597180D01*
X70294571Y34597180D02*
X70485047Y34597180D01*
X70485047Y34597180D02*
X70580285Y34644800D01*
X70580285Y34644800D02*
X70627904Y34692419D01*
X70627904Y34692419D02*
X70675523Y34787657D01*
X70675523Y34787657D02*
X70675523Y35597180D01*
X71675523Y34597180D02*
X71104095Y34597180D01*
X71389809Y34597180D02*
X71389809Y35597180D01*
X71389809Y35597180D02*
X71294571Y35454323D01*
X71294571Y35454323D02*
X71199333Y35359085D01*
X71199333Y35359085D02*
X71104095Y35311466D01*
X41068666Y49567180D02*
X41068666Y48852895D01*
X41068666Y48852895D02*
X41021047Y48710038D01*
X41021047Y48710038D02*
X40925809Y48614800D01*
X40925809Y48614800D02*
X40782952Y48567180D01*
X40782952Y48567180D02*
X40687714Y48567180D01*
X41973428Y49567180D02*
X41782952Y49567180D01*
X41782952Y49567180D02*
X41687714Y49519561D01*
X41687714Y49519561D02*
X41640095Y49471942D01*
X41640095Y49471942D02*
X41544857Y49329085D01*
X41544857Y49329085D02*
X41497238Y49138609D01*
X41497238Y49138609D02*
X41497238Y48757657D01*
X41497238Y48757657D02*
X41544857Y48662419D01*
X41544857Y48662419D02*
X41592476Y48614800D01*
X41592476Y48614800D02*
X41687714Y48567180D01*
X41687714Y48567180D02*
X41878190Y48567180D01*
X41878190Y48567180D02*
X41973428Y48614800D01*
X41973428Y48614800D02*
X42021047Y48662419D01*
X42021047Y48662419D02*
X42068666Y48757657D01*
X42068666Y48757657D02*
X42068666Y48995752D01*
X42068666Y48995752D02*
X42021047Y49090990D01*
X42021047Y49090990D02*
X41973428Y49138609D01*
X41973428Y49138609D02*
X41878190Y49186228D01*
X41878190Y49186228D02*
X41687714Y49186228D01*
X41687714Y49186228D02*
X41592476Y49138609D01*
X41592476Y49138609D02*
X41544857Y49090990D01*
X41544857Y49090990D02*
X41497238Y48995752D01*
X39965333Y17579180D02*
X39632000Y18055371D01*
X39393905Y17579180D02*
X39393905Y18579180D01*
X39393905Y18579180D02*
X39774857Y18579180D01*
X39774857Y18579180D02*
X39870095Y18531561D01*
X39870095Y18531561D02*
X39917714Y18483942D01*
X39917714Y18483942D02*
X39965333Y18388704D01*
X39965333Y18388704D02*
X39965333Y18245847D01*
X39965333Y18245847D02*
X39917714Y18150609D01*
X39917714Y18150609D02*
X39870095Y18102990D01*
X39870095Y18102990D02*
X39774857Y18055371D01*
X39774857Y18055371D02*
X39393905Y18055371D01*
X40822476Y18579180D02*
X40632000Y18579180D01*
X40632000Y18579180D02*
X40536762Y18531561D01*
X40536762Y18531561D02*
X40489143Y18483942D01*
X40489143Y18483942D02*
X40393905Y18341085D01*
X40393905Y18341085D02*
X40346286Y18150609D01*
X40346286Y18150609D02*
X40346286Y17769657D01*
X40346286Y17769657D02*
X40393905Y17674419D01*
X40393905Y17674419D02*
X40441524Y17626800D01*
X40441524Y17626800D02*
X40536762Y17579180D01*
X40536762Y17579180D02*
X40727238Y17579180D01*
X40727238Y17579180D02*
X40822476Y17626800D01*
X40822476Y17626800D02*
X40870095Y17674419D01*
X40870095Y17674419D02*
X40917714Y17769657D01*
X40917714Y17769657D02*
X40917714Y18007752D01*
X40917714Y18007752D02*
X40870095Y18102990D01*
X40870095Y18102990D02*
X40822476Y18150609D01*
X40822476Y18150609D02*
X40727238Y18198228D01*
X40727238Y18198228D02*
X40536762Y18198228D01*
X40536762Y18198228D02*
X40441524Y18150609D01*
X40441524Y18150609D02*
X40393905Y18102990D01*
X40393905Y18102990D02*
X40346286Y18007752D01*
X32871580Y22471142D02*
X32919200Y22423523D01*
X32919200Y22423523D02*
X32966819Y22280666D01*
X32966819Y22280666D02*
X32966819Y22185428D01*
X32966819Y22185428D02*
X32919200Y22042571D01*
X32919200Y22042571D02*
X32823961Y21947333D01*
X32823961Y21947333D02*
X32728723Y21899714D01*
X32728723Y21899714D02*
X32538247Y21852095D01*
X32538247Y21852095D02*
X32395390Y21852095D01*
X32395390Y21852095D02*
X32204914Y21899714D01*
X32204914Y21899714D02*
X32109676Y21947333D01*
X32109676Y21947333D02*
X32014438Y22042571D01*
X32014438Y22042571D02*
X31966819Y22185428D01*
X31966819Y22185428D02*
X31966819Y22280666D01*
X31966819Y22280666D02*
X32014438Y22423523D01*
X32014438Y22423523D02*
X32062057Y22471142D01*
X32966819Y23423523D02*
X32966819Y22852095D01*
X32966819Y23137809D02*
X31966819Y23137809D01*
X31966819Y23137809D02*
X32109676Y23042571D01*
X32109676Y23042571D02*
X32204914Y22947333D01*
X32204914Y22947333D02*
X32252533Y22852095D01*
X32062057Y23804476D02*
X32014438Y23852095D01*
X32014438Y23852095D02*
X31966819Y23947333D01*
X31966819Y23947333D02*
X31966819Y24185428D01*
X31966819Y24185428D02*
X32014438Y24280666D01*
X32014438Y24280666D02*
X32062057Y24328285D01*
X32062057Y24328285D02*
X32157295Y24375904D01*
X32157295Y24375904D02*
X32252533Y24375904D01*
X32252533Y24375904D02*
X32395390Y24328285D01*
X32395390Y24328285D02*
X32966819Y23756857D01*
X32966819Y23756857D02*
X32966819Y24375904D01*
X57999333Y14023180D02*
X57666000Y14499371D01*
X57427905Y14023180D02*
X57427905Y15023180D01*
X57427905Y15023180D02*
X57808857Y15023180D01*
X57808857Y15023180D02*
X57904095Y14975561D01*
X57904095Y14975561D02*
X57951714Y14927942D01*
X57951714Y14927942D02*
X57999333Y14832704D01*
X57999333Y14832704D02*
X57999333Y14689847D01*
X57999333Y14689847D02*
X57951714Y14594609D01*
X57951714Y14594609D02*
X57904095Y14546990D01*
X57904095Y14546990D02*
X57808857Y14499371D01*
X57808857Y14499371D02*
X57427905Y14499371D01*
X58951714Y14023180D02*
X58380286Y14023180D01*
X58666000Y14023180D02*
X58666000Y15023180D01*
X58666000Y15023180D02*
X58570762Y14880323D01*
X58570762Y14880323D02*
X58475524Y14785085D01*
X58475524Y14785085D02*
X58380286Y14737466D01*
X52540819Y47752095D02*
X53350342Y47752095D01*
X53350342Y47752095D02*
X53445580Y47799714D01*
X53445580Y47799714D02*
X53493200Y47847333D01*
X53493200Y47847333D02*
X53540819Y47942571D01*
X53540819Y47942571D02*
X53540819Y48133047D01*
X53540819Y48133047D02*
X53493200Y48228285D01*
X53493200Y48228285D02*
X53445580Y48275904D01*
X53445580Y48275904D02*
X53350342Y48323523D01*
X53350342Y48323523D02*
X52540819Y48323523D01*
X52540819Y48704476D02*
X52540819Y49323523D01*
X52540819Y49323523D02*
X52921771Y48990190D01*
X52921771Y48990190D02*
X52921771Y49133047D01*
X52921771Y49133047D02*
X52969390Y49228285D01*
X52969390Y49228285D02*
X53017009Y49275904D01*
X53017009Y49275904D02*
X53112247Y49323523D01*
X53112247Y49323523D02*
X53350342Y49323523D01*
X53350342Y49323523D02*
X53445580Y49275904D01*
X53445580Y49275904D02*
X53493200Y49228285D01*
X53493200Y49228285D02*
X53540819Y49133047D01*
X53540819Y49133047D02*
X53540819Y48847333D01*
X53540819Y48847333D02*
X53493200Y48752095D01*
X53493200Y48752095D02*
X53445580Y48704476D01*
X50411142Y41014419D02*
X50363523Y40966800D01*
X50363523Y40966800D02*
X50220666Y40919180D01*
X50220666Y40919180D02*
X50125428Y40919180D01*
X50125428Y40919180D02*
X49982571Y40966800D01*
X49982571Y40966800D02*
X49887333Y41062038D01*
X49887333Y41062038D02*
X49839714Y41157276D01*
X49839714Y41157276D02*
X49792095Y41347752D01*
X49792095Y41347752D02*
X49792095Y41490609D01*
X49792095Y41490609D02*
X49839714Y41681085D01*
X49839714Y41681085D02*
X49887333Y41776323D01*
X49887333Y41776323D02*
X49982571Y41871561D01*
X49982571Y41871561D02*
X50125428Y41919180D01*
X50125428Y41919180D02*
X50220666Y41919180D01*
X50220666Y41919180D02*
X50363523Y41871561D01*
X50363523Y41871561D02*
X50411142Y41823942D01*
X51363523Y40919180D02*
X50792095Y40919180D01*
X51077809Y40919180D02*
X51077809Y41919180D01*
X51077809Y41919180D02*
X50982571Y41776323D01*
X50982571Y41776323D02*
X50887333Y41681085D01*
X50887333Y41681085D02*
X50792095Y41633466D01*
X52315904Y40919180D02*
X51744476Y40919180D01*
X52030190Y40919180D02*
X52030190Y41919180D01*
X52030190Y41919180D02*
X51934952Y41776323D01*
X51934952Y41776323D02*
X51839714Y41681085D01*
X51839714Y41681085D02*
X51744476Y41633466D01*
X45640666Y6895180D02*
X45640666Y6180895D01*
X45640666Y6180895D02*
X45593047Y6038038D01*
X45593047Y6038038D02*
X45497809Y5942800D01*
X45497809Y5942800D02*
X45354952Y5895180D01*
X45354952Y5895180D02*
X45259714Y5895180D01*
X46021619Y6895180D02*
X46640666Y6895180D01*
X46640666Y6895180D02*
X46307333Y6514228D01*
X46307333Y6514228D02*
X46450190Y6514228D01*
X46450190Y6514228D02*
X46545428Y6466609D01*
X46545428Y6466609D02*
X46593047Y6418990D01*
X46593047Y6418990D02*
X46640666Y6323752D01*
X46640666Y6323752D02*
X46640666Y6085657D01*
X46640666Y6085657D02*
X46593047Y5990419D01*
X46593047Y5990419D02*
X46545428Y5942800D01*
X46545428Y5942800D02*
X46450190Y5895180D01*
X46450190Y5895180D02*
X46164476Y5895180D01*
X46164476Y5895180D02*
X46069238Y5942800D01*
X46069238Y5942800D02*
X46021619Y5990419D01*
X51921580Y47871142D02*
X51969200Y47823523D01*
X51969200Y47823523D02*
X52016819Y47680666D01*
X52016819Y47680666D02*
X52016819Y47585428D01*
X52016819Y47585428D02*
X51969200Y47442571D01*
X51969200Y47442571D02*
X51873961Y47347333D01*
X51873961Y47347333D02*
X51778723Y47299714D01*
X51778723Y47299714D02*
X51588247Y47252095D01*
X51588247Y47252095D02*
X51445390Y47252095D01*
X51445390Y47252095D02*
X51254914Y47299714D01*
X51254914Y47299714D02*
X51159676Y47347333D01*
X51159676Y47347333D02*
X51064438Y47442571D01*
X51064438Y47442571D02*
X51016819Y47585428D01*
X51016819Y47585428D02*
X51016819Y47680666D01*
X51016819Y47680666D02*
X51064438Y47823523D01*
X51064438Y47823523D02*
X51112057Y47871142D01*
X52016819Y48823523D02*
X52016819Y48252095D01*
X52016819Y48537809D02*
X51016819Y48537809D01*
X51016819Y48537809D02*
X51159676Y48442571D01*
X51159676Y48442571D02*
X51254914Y48347333D01*
X51254914Y48347333D02*
X51302533Y48252095D01*
X51016819Y49442571D02*
X51016819Y49537809D01*
X51016819Y49537809D02*
X51064438Y49633047D01*
X51064438Y49633047D02*
X51112057Y49680666D01*
X51112057Y49680666D02*
X51207295Y49728285D01*
X51207295Y49728285D02*
X51397771Y49775904D01*
X51397771Y49775904D02*
X51635866Y49775904D01*
X51635866Y49775904D02*
X51826342Y49728285D01*
X51826342Y49728285D02*
X51921580Y49680666D01*
X51921580Y49680666D02*
X51969200Y49633047D01*
X51969200Y49633047D02*
X52016819Y49537809D01*
X52016819Y49537809D02*
X52016819Y49442571D01*
X52016819Y49442571D02*
X51969200Y49347333D01*
X51969200Y49347333D02*
X51921580Y49299714D01*
X51921580Y49299714D02*
X51826342Y49252095D01*
X51826342Y49252095D02*
X51635866Y49204476D01*
X51635866Y49204476D02*
X51397771Y49204476D01*
X51397771Y49204476D02*
X51207295Y49252095D01*
X51207295Y49252095D02*
X51112057Y49299714D01*
X51112057Y49299714D02*
X51064438Y49347333D01*
X51064438Y49347333D02*
X51016819Y49442571D01*
X44396819Y22471142D02*
X43920628Y22137809D01*
X44396819Y21899714D02*
X43396819Y21899714D01*
X43396819Y21899714D02*
X43396819Y22280666D01*
X43396819Y22280666D02*
X43444438Y22375904D01*
X43444438Y22375904D02*
X43492057Y22423523D01*
X43492057Y22423523D02*
X43587295Y22471142D01*
X43587295Y22471142D02*
X43730152Y22471142D01*
X43730152Y22471142D02*
X43825390Y22423523D01*
X43825390Y22423523D02*
X43873009Y22375904D01*
X43873009Y22375904D02*
X43920628Y22280666D01*
X43920628Y22280666D02*
X43920628Y21899714D01*
X44396819Y23423523D02*
X44396819Y22852095D01*
X44396819Y23137809D02*
X43396819Y23137809D01*
X43396819Y23137809D02*
X43539676Y23042571D01*
X43539676Y23042571D02*
X43634914Y22947333D01*
X43634914Y22947333D02*
X43682533Y22852095D01*
X43492057Y23804476D02*
X43444438Y23852095D01*
X43444438Y23852095D02*
X43396819Y23947333D01*
X43396819Y23947333D02*
X43396819Y24185428D01*
X43396819Y24185428D02*
X43444438Y24280666D01*
X43444438Y24280666D02*
X43492057Y24328285D01*
X43492057Y24328285D02*
X43587295Y24375904D01*
X43587295Y24375904D02*
X43682533Y24375904D01*
X43682533Y24375904D02*
X43825390Y24328285D01*
X43825390Y24328285D02*
X44396819Y23756857D01*
X44396819Y23756857D02*
X44396819Y24375904D01*
X66889333Y39518419D02*
X66841714Y39470800D01*
X66841714Y39470800D02*
X66698857Y39423180D01*
X66698857Y39423180D02*
X66603619Y39423180D01*
X66603619Y39423180D02*
X66460762Y39470800D01*
X66460762Y39470800D02*
X66365524Y39566038D01*
X66365524Y39566038D02*
X66317905Y39661276D01*
X66317905Y39661276D02*
X66270286Y39851752D01*
X66270286Y39851752D02*
X66270286Y39994609D01*
X66270286Y39994609D02*
X66317905Y40185085D01*
X66317905Y40185085D02*
X66365524Y40280323D01*
X66365524Y40280323D02*
X66460762Y40375561D01*
X66460762Y40375561D02*
X66603619Y40423180D01*
X66603619Y40423180D02*
X66698857Y40423180D01*
X66698857Y40423180D02*
X66841714Y40375561D01*
X66841714Y40375561D02*
X66889333Y40327942D01*
X67222667Y40423180D02*
X67841714Y40423180D01*
X67841714Y40423180D02*
X67508381Y40042228D01*
X67508381Y40042228D02*
X67651238Y40042228D01*
X67651238Y40042228D02*
X67746476Y39994609D01*
X67746476Y39994609D02*
X67794095Y39946990D01*
X67794095Y39946990D02*
X67841714Y39851752D01*
X67841714Y39851752D02*
X67841714Y39613657D01*
X67841714Y39613657D02*
X67794095Y39518419D01*
X67794095Y39518419D02*
X67746476Y39470800D01*
X67746476Y39470800D02*
X67651238Y39423180D01*
X67651238Y39423180D02*
X67365524Y39423180D01*
X67365524Y39423180D02*
X67270286Y39470800D01*
X67270286Y39470800D02*
X67222667Y39518419D01*
X62176819Y4595905D02*
X61176819Y4595905D01*
X61176819Y4595905D02*
X61176819Y4834000D01*
X61176819Y4834000D02*
X61224438Y4976857D01*
X61224438Y4976857D02*
X61319676Y5072095D01*
X61319676Y5072095D02*
X61414914Y5119714D01*
X61414914Y5119714D02*
X61605390Y5167333D01*
X61605390Y5167333D02*
X61748247Y5167333D01*
X61748247Y5167333D02*
X61938723Y5119714D01*
X61938723Y5119714D02*
X62033961Y5072095D01*
X62033961Y5072095D02*
X62129200Y4976857D01*
X62129200Y4976857D02*
X62176819Y4834000D01*
X62176819Y4834000D02*
X62176819Y4595905D01*
X61176819Y5500667D02*
X61176819Y6119714D01*
X61176819Y6119714D02*
X61557771Y5786381D01*
X61557771Y5786381D02*
X61557771Y5929238D01*
X61557771Y5929238D02*
X61605390Y6024476D01*
X61605390Y6024476D02*
X61653009Y6072095D01*
X61653009Y6072095D02*
X61748247Y6119714D01*
X61748247Y6119714D02*
X61986342Y6119714D01*
X61986342Y6119714D02*
X62081580Y6072095D01*
X62081580Y6072095D02*
X62129200Y6024476D01*
X62129200Y6024476D02*
X62176819Y5929238D01*
X62176819Y5929238D02*
X62176819Y5643524D01*
X62176819Y5643524D02*
X62129200Y5548286D01*
X62129200Y5548286D02*
X62081580Y5500667D01*
X46823333Y4117180D02*
X46490000Y4593371D01*
X46251905Y4117180D02*
X46251905Y5117180D01*
X46251905Y5117180D02*
X46632857Y5117180D01*
X46632857Y5117180D02*
X46728095Y5069561D01*
X46728095Y5069561D02*
X46775714Y5021942D01*
X46775714Y5021942D02*
X46823333Y4926704D01*
X46823333Y4926704D02*
X46823333Y4783847D01*
X46823333Y4783847D02*
X46775714Y4688609D01*
X46775714Y4688609D02*
X46728095Y4640990D01*
X46728095Y4640990D02*
X46632857Y4593371D01*
X46632857Y4593371D02*
X46251905Y4593371D01*
X47728095Y5117180D02*
X47251905Y5117180D01*
X47251905Y5117180D02*
X47204286Y4640990D01*
X47204286Y4640990D02*
X47251905Y4688609D01*
X47251905Y4688609D02*
X47347143Y4736228D01*
X47347143Y4736228D02*
X47585238Y4736228D01*
X47585238Y4736228D02*
X47680476Y4688609D01*
X47680476Y4688609D02*
X47728095Y4640990D01*
X47728095Y4640990D02*
X47775714Y4545752D01*
X47775714Y4545752D02*
X47775714Y4307657D01*
X47775714Y4307657D02*
X47728095Y4212419D01*
X47728095Y4212419D02*
X47680476Y4164800D01*
X47680476Y4164800D02*
X47585238Y4117180D01*
X47585238Y4117180D02*
X47347143Y4117180D01*
X47347143Y4117180D02*
X47251905Y4164800D01*
X47251905Y4164800D02*
X47204286Y4212419D01*
X22471142Y19960419D02*
X22423523Y19912800D01*
X22423523Y19912800D02*
X22280666Y19865180D01*
X22280666Y19865180D02*
X22185428Y19865180D01*
X22185428Y19865180D02*
X22042571Y19912800D01*
X22042571Y19912800D02*
X21947333Y20008038D01*
X21947333Y20008038D02*
X21899714Y20103276D01*
X21899714Y20103276D02*
X21852095Y20293752D01*
X21852095Y20293752D02*
X21852095Y20436609D01*
X21852095Y20436609D02*
X21899714Y20627085D01*
X21899714Y20627085D02*
X21947333Y20722323D01*
X21947333Y20722323D02*
X22042571Y20817561D01*
X22042571Y20817561D02*
X22185428Y20865180D01*
X22185428Y20865180D02*
X22280666Y20865180D01*
X22280666Y20865180D02*
X22423523Y20817561D01*
X22423523Y20817561D02*
X22471142Y20769942D01*
X23423523Y19865180D02*
X22852095Y19865180D01*
X23137809Y19865180D02*
X23137809Y20865180D01*
X23137809Y20865180D02*
X23042571Y20722323D01*
X23042571Y20722323D02*
X22947333Y20627085D01*
X22947333Y20627085D02*
X22852095Y20579466D01*
X23756857Y20865180D02*
X24375904Y20865180D01*
X24375904Y20865180D02*
X24042571Y20484228D01*
X24042571Y20484228D02*
X24185428Y20484228D01*
X24185428Y20484228D02*
X24280666Y20436609D01*
X24280666Y20436609D02*
X24328285Y20388990D01*
X24328285Y20388990D02*
X24375904Y20293752D01*
X24375904Y20293752D02*
X24375904Y20055657D01*
X24375904Y20055657D02*
X24328285Y19960419D01*
X24328285Y19960419D02*
X24280666Y19912800D01*
X24280666Y19912800D02*
X24185428Y19865180D01*
X24185428Y19865180D02*
X23899714Y19865180D01*
X23899714Y19865180D02*
X23804476Y19912800D01*
X23804476Y19912800D02*
X23756857Y19960419D01*
X36818667Y20928800D02*
X36961524Y20881180D01*
X36961524Y20881180D02*
X37199619Y20881180D01*
X37199619Y20881180D02*
X37294857Y20928800D01*
X37294857Y20928800D02*
X37342476Y20976419D01*
X37342476Y20976419D02*
X37390095Y21071657D01*
X37390095Y21071657D02*
X37390095Y21166895D01*
X37390095Y21166895D02*
X37342476Y21262133D01*
X37342476Y21262133D02*
X37294857Y21309752D01*
X37294857Y21309752D02*
X37199619Y21357371D01*
X37199619Y21357371D02*
X37009143Y21404990D01*
X37009143Y21404990D02*
X36913905Y21452609D01*
X36913905Y21452609D02*
X36866286Y21500228D01*
X36866286Y21500228D02*
X36818667Y21595466D01*
X36818667Y21595466D02*
X36818667Y21690704D01*
X36818667Y21690704D02*
X36866286Y21785942D01*
X36866286Y21785942D02*
X36913905Y21833561D01*
X36913905Y21833561D02*
X37009143Y21881180D01*
X37009143Y21881180D02*
X37247238Y21881180D01*
X37247238Y21881180D02*
X37390095Y21833561D01*
X37723429Y21881180D02*
X37961524Y20881180D01*
X37961524Y20881180D02*
X38152000Y21595466D01*
X38152000Y21595466D02*
X38342476Y20881180D01*
X38342476Y20881180D02*
X38580572Y21881180D01*
X38866286Y21881180D02*
X39485333Y21881180D01*
X39485333Y21881180D02*
X39152000Y21500228D01*
X39152000Y21500228D02*
X39294857Y21500228D01*
X39294857Y21500228D02*
X39390095Y21452609D01*
X39390095Y21452609D02*
X39437714Y21404990D01*
X39437714Y21404990D02*
X39485333Y21309752D01*
X39485333Y21309752D02*
X39485333Y21071657D01*
X39485333Y21071657D02*
X39437714Y20976419D01*
X39437714Y20976419D02*
X39390095Y20928800D01*
X39390095Y20928800D02*
X39294857Y20881180D01*
X39294857Y20881180D02*
X39009143Y20881180D01*
X39009143Y20881180D02*
X38913905Y20928800D01*
X38913905Y20928800D02*
X38866286Y20976419D01*
X28956095Y21173180D02*
X28956095Y20363657D01*
X28956095Y20363657D02*
X29003714Y20268419D01*
X29003714Y20268419D02*
X29051333Y20220800D01*
X29051333Y20220800D02*
X29146571Y20173180D01*
X29146571Y20173180D02*
X29337047Y20173180D01*
X29337047Y20173180D02*
X29432285Y20220800D01*
X29432285Y20220800D02*
X29479904Y20268419D01*
X29479904Y20268419D02*
X29527523Y20363657D01*
X29527523Y20363657D02*
X29527523Y21173180D01*
X30479904Y21173180D02*
X30003714Y21173180D01*
X30003714Y21173180D02*
X29956095Y20696990D01*
X29956095Y20696990D02*
X30003714Y20744609D01*
X30003714Y20744609D02*
X30098952Y20792228D01*
X30098952Y20792228D02*
X30337047Y20792228D01*
X30337047Y20792228D02*
X30432285Y20744609D01*
X30432285Y20744609D02*
X30479904Y20696990D01*
X30479904Y20696990D02*
X30527523Y20601752D01*
X30527523Y20601752D02*
X30527523Y20363657D01*
X30527523Y20363657D02*
X30479904Y20268419D01*
X30479904Y20268419D02*
X30432285Y20220800D01*
X30432285Y20220800D02*
X30337047Y20173180D01*
X30337047Y20173180D02*
X30098952Y20173180D01*
X30098952Y20173180D02*
X30003714Y20220800D01*
X30003714Y20220800D02*
X29956095Y20268419D01*
X51077905Y10561180D02*
X51077905Y11561180D01*
X51077905Y11561180D02*
X51316000Y11561180D01*
X51316000Y11561180D02*
X51458857Y11513561D01*
X51458857Y11513561D02*
X51554095Y11418323D01*
X51554095Y11418323D02*
X51601714Y11323085D01*
X51601714Y11323085D02*
X51649333Y11132609D01*
X51649333Y11132609D02*
X51649333Y10989752D01*
X51649333Y10989752D02*
X51601714Y10799276D01*
X51601714Y10799276D02*
X51554095Y10704038D01*
X51554095Y10704038D02*
X51458857Y10608800D01*
X51458857Y10608800D02*
X51316000Y10561180D01*
X51316000Y10561180D02*
X51077905Y10561180D01*
X52030286Y11465942D02*
X52077905Y11513561D01*
X52077905Y11513561D02*
X52173143Y11561180D01*
X52173143Y11561180D02*
X52411238Y11561180D01*
X52411238Y11561180D02*
X52506476Y11513561D01*
X52506476Y11513561D02*
X52554095Y11465942D01*
X52554095Y11465942D02*
X52601714Y11370704D01*
X52601714Y11370704D02*
X52601714Y11275466D01*
X52601714Y11275466D02*
X52554095Y11132609D01*
X52554095Y11132609D02*
X51982667Y10561180D01*
X51982667Y10561180D02*
X52601714Y10561180D01*
X50228667Y9244800D02*
X50371524Y9197180D01*
X50371524Y9197180D02*
X50609619Y9197180D01*
X50609619Y9197180D02*
X50704857Y9244800D01*
X50704857Y9244800D02*
X50752476Y9292419D01*
X50752476Y9292419D02*
X50800095Y9387657D01*
X50800095Y9387657D02*
X50800095Y9482895D01*
X50800095Y9482895D02*
X50752476Y9578133D01*
X50752476Y9578133D02*
X50704857Y9625752D01*
X50704857Y9625752D02*
X50609619Y9673371D01*
X50609619Y9673371D02*
X50419143Y9720990D01*
X50419143Y9720990D02*
X50323905Y9768609D01*
X50323905Y9768609D02*
X50276286Y9816228D01*
X50276286Y9816228D02*
X50228667Y9911466D01*
X50228667Y9911466D02*
X50228667Y10006704D01*
X50228667Y10006704D02*
X50276286Y10101942D01*
X50276286Y10101942D02*
X50323905Y10149561D01*
X50323905Y10149561D02*
X50419143Y10197180D01*
X50419143Y10197180D02*
X50657238Y10197180D01*
X50657238Y10197180D02*
X50800095Y10149561D01*
X51133429Y10197180D02*
X51371524Y9197180D01*
X51371524Y9197180D02*
X51562000Y9911466D01*
X51562000Y9911466D02*
X51752476Y9197180D01*
X51752476Y9197180D02*
X51990572Y10197180D01*
X52323905Y10101942D02*
X52371524Y10149561D01*
X52371524Y10149561D02*
X52466762Y10197180D01*
X52466762Y10197180D02*
X52704857Y10197180D01*
X52704857Y10197180D02*
X52800095Y10149561D01*
X52800095Y10149561D02*
X52847714Y10101942D01*
X52847714Y10101942D02*
X52895333Y10006704D01*
X52895333Y10006704D02*
X52895333Y9911466D01*
X52895333Y9911466D02*
X52847714Y9768609D01*
X52847714Y9768609D02*
X52276286Y9197180D01*
X52276286Y9197180D02*
X52895333Y9197180D01*
X41489333Y39518419D02*
X41441714Y39470800D01*
X41441714Y39470800D02*
X41298857Y39423180D01*
X41298857Y39423180D02*
X41203619Y39423180D01*
X41203619Y39423180D02*
X41060762Y39470800D01*
X41060762Y39470800D02*
X40965524Y39566038D01*
X40965524Y39566038D02*
X40917905Y39661276D01*
X40917905Y39661276D02*
X40870286Y39851752D01*
X40870286Y39851752D02*
X40870286Y39994609D01*
X40870286Y39994609D02*
X40917905Y40185085D01*
X40917905Y40185085D02*
X40965524Y40280323D01*
X40965524Y40280323D02*
X41060762Y40375561D01*
X41060762Y40375561D02*
X41203619Y40423180D01*
X41203619Y40423180D02*
X41298857Y40423180D01*
X41298857Y40423180D02*
X41441714Y40375561D01*
X41441714Y40375561D02*
X41489333Y40327942D01*
X42346476Y40089847D02*
X42346476Y39423180D01*
X42108381Y40470800D02*
X41870286Y39756514D01*
X41870286Y39756514D02*
X42489333Y39756514D01*
X7032666Y8673180D02*
X7032666Y7958895D01*
X7032666Y7958895D02*
X6985047Y7816038D01*
X6985047Y7816038D02*
X6889809Y7720800D01*
X6889809Y7720800D02*
X6746952Y7673180D01*
X6746952Y7673180D02*
X6651714Y7673180D01*
X7937428Y8339847D02*
X7937428Y7673180D01*
X7699333Y8720800D02*
X7461238Y8006514D01*
X7461238Y8006514D02*
X8080285Y8006514D01*
X60144819Y4659333D02*
X59668628Y4326000D01*
X60144819Y4087905D02*
X59144819Y4087905D01*
X59144819Y4087905D02*
X59144819Y4468857D01*
X59144819Y4468857D02*
X59192438Y4564095D01*
X59192438Y4564095D02*
X59240057Y4611714D01*
X59240057Y4611714D02*
X59335295Y4659333D01*
X59335295Y4659333D02*
X59478152Y4659333D01*
X59478152Y4659333D02*
X59573390Y4611714D01*
X59573390Y4611714D02*
X59621009Y4564095D01*
X59621009Y4564095D02*
X59668628Y4468857D01*
X59668628Y4468857D02*
X59668628Y4087905D01*
X59144819Y4992667D02*
X59144819Y5611714D01*
X59144819Y5611714D02*
X59525771Y5278381D01*
X59525771Y5278381D02*
X59525771Y5421238D01*
X59525771Y5421238D02*
X59573390Y5516476D01*
X59573390Y5516476D02*
X59621009Y5564095D01*
X59621009Y5564095D02*
X59716247Y5611714D01*
X59716247Y5611714D02*
X59954342Y5611714D01*
X59954342Y5611714D02*
X60049580Y5564095D01*
X60049580Y5564095D02*
X60097200Y5516476D01*
X60097200Y5516476D02*
X60144819Y5421238D01*
X60144819Y5421238D02*
X60144819Y5135524D01*
X60144819Y5135524D02*
X60097200Y5040286D01*
X60097200Y5040286D02*
X60049580Y4992667D01*
X65732819Y1547905D02*
X64732819Y1547905D01*
X64732819Y1547905D02*
X64732819Y1786000D01*
X64732819Y1786000D02*
X64780438Y1928857D01*
X64780438Y1928857D02*
X64875676Y2024095D01*
X64875676Y2024095D02*
X64970914Y2071714D01*
X64970914Y2071714D02*
X65161390Y2119333D01*
X65161390Y2119333D02*
X65304247Y2119333D01*
X65304247Y2119333D02*
X65494723Y2071714D01*
X65494723Y2071714D02*
X65589961Y2024095D01*
X65589961Y2024095D02*
X65685200Y1928857D01*
X65685200Y1928857D02*
X65732819Y1786000D01*
X65732819Y1786000D02*
X65732819Y1547905D01*
X65066152Y2976476D02*
X65732819Y2976476D01*
X64685200Y2738381D02*
X65399485Y2500286D01*
X65399485Y2500286D02*
X65399485Y3119333D01*
X936666Y16293180D02*
X936666Y15578895D01*
X936666Y15578895D02*
X889047Y15436038D01*
X889047Y15436038D02*
X793809Y15340800D01*
X793809Y15340800D02*
X650952Y15293180D01*
X650952Y15293180D02*
X555714Y15293180D01*
X1365238Y16197942D02*
X1412857Y16245561D01*
X1412857Y16245561D02*
X1508095Y16293180D01*
X1508095Y16293180D02*
X1746190Y16293180D01*
X1746190Y16293180D02*
X1841428Y16245561D01*
X1841428Y16245561D02*
X1889047Y16197942D01*
X1889047Y16197942D02*
X1936666Y16102704D01*
X1936666Y16102704D02*
X1936666Y16007466D01*
X1936666Y16007466D02*
X1889047Y15864609D01*
X1889047Y15864609D02*
X1317619Y15293180D01*
X1317619Y15293180D02*
X1936666Y15293180D01*
X48537905Y14277180D02*
X48537905Y15277180D01*
X48537905Y15277180D02*
X48776000Y15277180D01*
X48776000Y15277180D02*
X48918857Y15229561D01*
X48918857Y15229561D02*
X49014095Y15134323D01*
X49014095Y15134323D02*
X49061714Y15039085D01*
X49061714Y15039085D02*
X49109333Y14848609D01*
X49109333Y14848609D02*
X49109333Y14705752D01*
X49109333Y14705752D02*
X49061714Y14515276D01*
X49061714Y14515276D02*
X49014095Y14420038D01*
X49014095Y14420038D02*
X48918857Y14324800D01*
X48918857Y14324800D02*
X48776000Y14277180D01*
X48776000Y14277180D02*
X48537905Y14277180D01*
X50061714Y14277180D02*
X49490286Y14277180D01*
X49776000Y14277180D02*
X49776000Y15277180D01*
X49776000Y15277180D02*
X49680762Y15134323D01*
X49680762Y15134323D02*
X49585524Y15039085D01*
X49585524Y15039085D02*
X49490286Y14991466D01*
X46990095Y44497180D02*
X46990095Y43687657D01*
X46990095Y43687657D02*
X47037714Y43592419D01*
X47037714Y43592419D02*
X47085333Y43544800D01*
X47085333Y43544800D02*
X47180571Y43497180D01*
X47180571Y43497180D02*
X47371047Y43497180D01*
X47371047Y43497180D02*
X47466285Y43544800D01*
X47466285Y43544800D02*
X47513904Y43592419D01*
X47513904Y43592419D02*
X47561523Y43687657D01*
X47561523Y43687657D02*
X47561523Y44497180D01*
X48466285Y44163847D02*
X48466285Y43497180D01*
X48228190Y44544800D02*
X47990095Y43830514D01*
X47990095Y43830514D02*
X48609142Y43830514D01*
X39965333Y15896419D02*
X39917714Y15848800D01*
X39917714Y15848800D02*
X39774857Y15801180D01*
X39774857Y15801180D02*
X39679619Y15801180D01*
X39679619Y15801180D02*
X39536762Y15848800D01*
X39536762Y15848800D02*
X39441524Y15944038D01*
X39441524Y15944038D02*
X39393905Y16039276D01*
X39393905Y16039276D02*
X39346286Y16229752D01*
X39346286Y16229752D02*
X39346286Y16372609D01*
X39346286Y16372609D02*
X39393905Y16563085D01*
X39393905Y16563085D02*
X39441524Y16658323D01*
X39441524Y16658323D02*
X39536762Y16753561D01*
X39536762Y16753561D02*
X39679619Y16801180D01*
X39679619Y16801180D02*
X39774857Y16801180D01*
X39774857Y16801180D02*
X39917714Y16753561D01*
X39917714Y16753561D02*
X39965333Y16705942D01*
X40441524Y15801180D02*
X40632000Y15801180D01*
X40632000Y15801180D02*
X40727238Y15848800D01*
X40727238Y15848800D02*
X40774857Y15896419D01*
X40774857Y15896419D02*
X40870095Y16039276D01*
X40870095Y16039276D02*
X40917714Y16229752D01*
X40917714Y16229752D02*
X40917714Y16610704D01*
X40917714Y16610704D02*
X40870095Y16705942D01*
X40870095Y16705942D02*
X40822476Y16753561D01*
X40822476Y16753561D02*
X40727238Y16801180D01*
X40727238Y16801180D02*
X40536762Y16801180D01*
X40536762Y16801180D02*
X40441524Y16753561D01*
X40441524Y16753561D02*
X40393905Y16705942D01*
X40393905Y16705942D02*
X40346286Y16610704D01*
X40346286Y16610704D02*
X40346286Y16372609D01*
X40346286Y16372609D02*
X40393905Y16277371D01*
X40393905Y16277371D02*
X40441524Y16229752D01*
X40441524Y16229752D02*
X40536762Y16182133D01*
X40536762Y16182133D02*
X40727238Y16182133D01*
X40727238Y16182133D02*
X40822476Y16229752D01*
X40822476Y16229752D02*
X40870095Y16277371D01*
X40870095Y16277371D02*
X40917714Y16372609D01*
X58761333Y39518419D02*
X58713714Y39470800D01*
X58713714Y39470800D02*
X58570857Y39423180D01*
X58570857Y39423180D02*
X58475619Y39423180D01*
X58475619Y39423180D02*
X58332762Y39470800D01*
X58332762Y39470800D02*
X58237524Y39566038D01*
X58237524Y39566038D02*
X58189905Y39661276D01*
X58189905Y39661276D02*
X58142286Y39851752D01*
X58142286Y39851752D02*
X58142286Y39994609D01*
X58142286Y39994609D02*
X58189905Y40185085D01*
X58189905Y40185085D02*
X58237524Y40280323D01*
X58237524Y40280323D02*
X58332762Y40375561D01*
X58332762Y40375561D02*
X58475619Y40423180D01*
X58475619Y40423180D02*
X58570857Y40423180D01*
X58570857Y40423180D02*
X58713714Y40375561D01*
X58713714Y40375561D02*
X58761333Y40327942D01*
X59094667Y40423180D02*
X59761333Y40423180D01*
X59761333Y40423180D02*
X59332762Y39423180D01*
X59102666Y7657180D02*
X59102666Y6942895D01*
X59102666Y6942895D02*
X59055047Y6800038D01*
X59055047Y6800038D02*
X58959809Y6704800D01*
X58959809Y6704800D02*
X58816952Y6657180D01*
X58816952Y6657180D02*
X58721714Y6657180D01*
X60102666Y6657180D02*
X59531238Y6657180D01*
X59816952Y6657180D02*
X59816952Y7657180D01*
X59816952Y7657180D02*
X59721714Y7514323D01*
X59721714Y7514323D02*
X59626476Y7419085D01*
X59626476Y7419085D02*
X59531238Y7371466D01*
X59523333Y37486419D02*
X59475714Y37438800D01*
X59475714Y37438800D02*
X59332857Y37391180D01*
X59332857Y37391180D02*
X59237619Y37391180D01*
X59237619Y37391180D02*
X59094762Y37438800D01*
X59094762Y37438800D02*
X58999524Y37534038D01*
X58999524Y37534038D02*
X58951905Y37629276D01*
X58951905Y37629276D02*
X58904286Y37819752D01*
X58904286Y37819752D02*
X58904286Y37962609D01*
X58904286Y37962609D02*
X58951905Y38153085D01*
X58951905Y38153085D02*
X58999524Y38248323D01*
X58999524Y38248323D02*
X59094762Y38343561D01*
X59094762Y38343561D02*
X59237619Y38391180D01*
X59237619Y38391180D02*
X59332857Y38391180D01*
X59332857Y38391180D02*
X59475714Y38343561D01*
X59475714Y38343561D02*
X59523333Y38295942D01*
X60380476Y38391180D02*
X60190000Y38391180D01*
X60190000Y38391180D02*
X60094762Y38343561D01*
X60094762Y38343561D02*
X60047143Y38295942D01*
X60047143Y38295942D02*
X59951905Y38153085D01*
X59951905Y38153085D02*
X59904286Y37962609D01*
X59904286Y37962609D02*
X59904286Y37581657D01*
X59904286Y37581657D02*
X59951905Y37486419D01*
X59951905Y37486419D02*
X59999524Y37438800D01*
X59999524Y37438800D02*
X60094762Y37391180D01*
X60094762Y37391180D02*
X60285238Y37391180D01*
X60285238Y37391180D02*
X60380476Y37438800D01*
X60380476Y37438800D02*
X60428095Y37486419D01*
X60428095Y37486419D02*
X60475714Y37581657D01*
X60475714Y37581657D02*
X60475714Y37819752D01*
X60475714Y37819752D02*
X60428095Y37914990D01*
X60428095Y37914990D02*
X60380476Y37962609D01*
X60380476Y37962609D02*
X60285238Y38010228D01*
X60285238Y38010228D02*
X60094762Y38010228D01*
X60094762Y38010228D02*
X59999524Y37962609D01*
X59999524Y37962609D02*
X59951905Y37914990D01*
X59951905Y37914990D02*
X59904286Y37819752D01*
X60652819Y9485333D02*
X60176628Y9152000D01*
X60652819Y8913905D02*
X59652819Y8913905D01*
X59652819Y8913905D02*
X59652819Y9294857D01*
X59652819Y9294857D02*
X59700438Y9390095D01*
X59700438Y9390095D02*
X59748057Y9437714D01*
X59748057Y9437714D02*
X59843295Y9485333D01*
X59843295Y9485333D02*
X59986152Y9485333D01*
X59986152Y9485333D02*
X60081390Y9437714D01*
X60081390Y9437714D02*
X60129009Y9390095D01*
X60129009Y9390095D02*
X60176628Y9294857D01*
X60176628Y9294857D02*
X60176628Y8913905D01*
X60081390Y10056762D02*
X60033771Y9961524D01*
X60033771Y9961524D02*
X59986152Y9913905D01*
X59986152Y9913905D02*
X59890914Y9866286D01*
X59890914Y9866286D02*
X59843295Y9866286D01*
X59843295Y9866286D02*
X59748057Y9913905D01*
X59748057Y9913905D02*
X59700438Y9961524D01*
X59700438Y9961524D02*
X59652819Y10056762D01*
X59652819Y10056762D02*
X59652819Y10247238D01*
X59652819Y10247238D02*
X59700438Y10342476D01*
X59700438Y10342476D02*
X59748057Y10390095D01*
X59748057Y10390095D02*
X59843295Y10437714D01*
X59843295Y10437714D02*
X59890914Y10437714D01*
X59890914Y10437714D02*
X59986152Y10390095D01*
X59986152Y10390095D02*
X60033771Y10342476D01*
X60033771Y10342476D02*
X60081390Y10247238D01*
X60081390Y10247238D02*
X60081390Y10056762D01*
X60081390Y10056762D02*
X60129009Y9961524D01*
X60129009Y9961524D02*
X60176628Y9913905D01*
X60176628Y9913905D02*
X60271866Y9866286D01*
X60271866Y9866286D02*
X60462342Y9866286D01*
X60462342Y9866286D02*
X60557580Y9913905D01*
X60557580Y9913905D02*
X60605200Y9961524D01*
X60605200Y9961524D02*
X60652819Y10056762D01*
X60652819Y10056762D02*
X60652819Y10247238D01*
X60652819Y10247238D02*
X60605200Y10342476D01*
X60605200Y10342476D02*
X60557580Y10390095D01*
X60557580Y10390095D02*
X60462342Y10437714D01*
X60462342Y10437714D02*
X60271866Y10437714D01*
X60271866Y10437714D02*
X60176628Y10390095D01*
X60176628Y10390095D02*
X60129009Y10342476D01*
X60129009Y10342476D02*
X60081390Y10247238D01*
X66889333Y37232419D02*
X66841714Y37184800D01*
X66841714Y37184800D02*
X66698857Y37137180D01*
X66698857Y37137180D02*
X66603619Y37137180D01*
X66603619Y37137180D02*
X66460762Y37184800D01*
X66460762Y37184800D02*
X66365524Y37280038D01*
X66365524Y37280038D02*
X66317905Y37375276D01*
X66317905Y37375276D02*
X66270286Y37565752D01*
X66270286Y37565752D02*
X66270286Y37708609D01*
X66270286Y37708609D02*
X66317905Y37899085D01*
X66317905Y37899085D02*
X66365524Y37994323D01*
X66365524Y37994323D02*
X66460762Y38089561D01*
X66460762Y38089561D02*
X66603619Y38137180D01*
X66603619Y38137180D02*
X66698857Y38137180D01*
X66698857Y38137180D02*
X66841714Y38089561D01*
X66841714Y38089561D02*
X66889333Y38041942D01*
X67270286Y38041942D02*
X67317905Y38089561D01*
X67317905Y38089561D02*
X67413143Y38137180D01*
X67413143Y38137180D02*
X67651238Y38137180D01*
X67651238Y38137180D02*
X67746476Y38089561D01*
X67746476Y38089561D02*
X67794095Y38041942D01*
X67794095Y38041942D02*
X67841714Y37946704D01*
X67841714Y37946704D02*
X67841714Y37851466D01*
X67841714Y37851466D02*
X67794095Y37708609D01*
X67794095Y37708609D02*
X67222667Y37137180D01*
X67222667Y37137180D02*
X67841714Y37137180D01*
X65638819Y7231142D02*
X65162628Y6897809D01*
X65638819Y6659714D02*
X64638819Y6659714D01*
X64638819Y6659714D02*
X64638819Y7040666D01*
X64638819Y7040666D02*
X64686438Y7135904D01*
X64686438Y7135904D02*
X64734057Y7183523D01*
X64734057Y7183523D02*
X64829295Y7231142D01*
X64829295Y7231142D02*
X64972152Y7231142D01*
X64972152Y7231142D02*
X65067390Y7183523D01*
X65067390Y7183523D02*
X65115009Y7135904D01*
X65115009Y7135904D02*
X65162628Y7040666D01*
X65162628Y7040666D02*
X65162628Y6659714D01*
X65638819Y8183523D02*
X65638819Y7612095D01*
X65638819Y7897809D02*
X64638819Y7897809D01*
X64638819Y7897809D02*
X64781676Y7802571D01*
X64781676Y7802571D02*
X64876914Y7707333D01*
X64876914Y7707333D02*
X64924533Y7612095D01*
X65638819Y9135904D02*
X65638819Y8564476D01*
X65638819Y8850190D02*
X64638819Y8850190D01*
X64638819Y8850190D02*
X64781676Y8754952D01*
X64781676Y8754952D02*
X64876914Y8659714D01*
X64876914Y8659714D02*
X64924533Y8564476D01*
X66889333Y35200419D02*
X66841714Y35152800D01*
X66841714Y35152800D02*
X66698857Y35105180D01*
X66698857Y35105180D02*
X66603619Y35105180D01*
X66603619Y35105180D02*
X66460762Y35152800D01*
X66460762Y35152800D02*
X66365524Y35248038D01*
X66365524Y35248038D02*
X66317905Y35343276D01*
X66317905Y35343276D02*
X66270286Y35533752D01*
X66270286Y35533752D02*
X66270286Y35676609D01*
X66270286Y35676609D02*
X66317905Y35867085D01*
X66317905Y35867085D02*
X66365524Y35962323D01*
X66365524Y35962323D02*
X66460762Y36057561D01*
X66460762Y36057561D02*
X66603619Y36105180D01*
X66603619Y36105180D02*
X66698857Y36105180D01*
X66698857Y36105180D02*
X66841714Y36057561D01*
X66841714Y36057561D02*
X66889333Y36009942D01*
X67841714Y35105180D02*
X67270286Y35105180D01*
X67556000Y35105180D02*
X67556000Y36105180D01*
X67556000Y36105180D02*
X67460762Y35962323D01*
X67460762Y35962323D02*
X67365524Y35867085D01*
X67365524Y35867085D02*
X67270286Y35819466D01*
X47688667Y36930800D02*
X47831524Y36883180D01*
X47831524Y36883180D02*
X48069619Y36883180D01*
X48069619Y36883180D02*
X48164857Y36930800D01*
X48164857Y36930800D02*
X48212476Y36978419D01*
X48212476Y36978419D02*
X48260095Y37073657D01*
X48260095Y37073657D02*
X48260095Y37168895D01*
X48260095Y37168895D02*
X48212476Y37264133D01*
X48212476Y37264133D02*
X48164857Y37311752D01*
X48164857Y37311752D02*
X48069619Y37359371D01*
X48069619Y37359371D02*
X47879143Y37406990D01*
X47879143Y37406990D02*
X47783905Y37454609D01*
X47783905Y37454609D02*
X47736286Y37502228D01*
X47736286Y37502228D02*
X47688667Y37597466D01*
X47688667Y37597466D02*
X47688667Y37692704D01*
X47688667Y37692704D02*
X47736286Y37787942D01*
X47736286Y37787942D02*
X47783905Y37835561D01*
X47783905Y37835561D02*
X47879143Y37883180D01*
X47879143Y37883180D02*
X48117238Y37883180D01*
X48117238Y37883180D02*
X48260095Y37835561D01*
X48593429Y37883180D02*
X48831524Y36883180D01*
X48831524Y36883180D02*
X49022000Y37597466D01*
X49022000Y37597466D02*
X49212476Y36883180D01*
X49212476Y36883180D02*
X49450572Y37883180D01*
X50355333Y36883180D02*
X49783905Y36883180D01*
X50069619Y36883180D02*
X50069619Y37883180D01*
X50069619Y37883180D02*
X49974381Y37740323D01*
X49974381Y37740323D02*
X49879143Y37645085D01*
X49879143Y37645085D02*
X49783905Y37597466D01*
X57237333Y35200419D02*
X57189714Y35152800D01*
X57189714Y35152800D02*
X57046857Y35105180D01*
X57046857Y35105180D02*
X56951619Y35105180D01*
X56951619Y35105180D02*
X56808762Y35152800D01*
X56808762Y35152800D02*
X56713524Y35248038D01*
X56713524Y35248038D02*
X56665905Y35343276D01*
X56665905Y35343276D02*
X56618286Y35533752D01*
X56618286Y35533752D02*
X56618286Y35676609D01*
X56618286Y35676609D02*
X56665905Y35867085D01*
X56665905Y35867085D02*
X56713524Y35962323D01*
X56713524Y35962323D02*
X56808762Y36057561D01*
X56808762Y36057561D02*
X56951619Y36105180D01*
X56951619Y36105180D02*
X57046857Y36105180D01*
X57046857Y36105180D02*
X57189714Y36057561D01*
X57189714Y36057561D02*
X57237333Y36009942D01*
X57808762Y35676609D02*
X57713524Y35724228D01*
X57713524Y35724228D02*
X57665905Y35771847D01*
X57665905Y35771847D02*
X57618286Y35867085D01*
X57618286Y35867085D02*
X57618286Y35914704D01*
X57618286Y35914704D02*
X57665905Y36009942D01*
X57665905Y36009942D02*
X57713524Y36057561D01*
X57713524Y36057561D02*
X57808762Y36105180D01*
X57808762Y36105180D02*
X57999238Y36105180D01*
X57999238Y36105180D02*
X58094476Y36057561D01*
X58094476Y36057561D02*
X58142095Y36009942D01*
X58142095Y36009942D02*
X58189714Y35914704D01*
X58189714Y35914704D02*
X58189714Y35867085D01*
X58189714Y35867085D02*
X58142095Y35771847D01*
X58142095Y35771847D02*
X58094476Y35724228D01*
X58094476Y35724228D02*
X57999238Y35676609D01*
X57999238Y35676609D02*
X57808762Y35676609D01*
X57808762Y35676609D02*
X57713524Y35628990D01*
X57713524Y35628990D02*
X57665905Y35581371D01*
X57665905Y35581371D02*
X57618286Y35486133D01*
X57618286Y35486133D02*
X57618286Y35295657D01*
X57618286Y35295657D02*
X57665905Y35200419D01*
X57665905Y35200419D02*
X57713524Y35152800D01*
X57713524Y35152800D02*
X57808762Y35105180D01*
X57808762Y35105180D02*
X57999238Y35105180D01*
X57999238Y35105180D02*
X58094476Y35152800D01*
X58094476Y35152800D02*
X58142095Y35200419D01*
X58142095Y35200419D02*
X58189714Y35295657D01*
X58189714Y35295657D02*
X58189714Y35486133D01*
X58189714Y35486133D02*
X58142095Y35581371D01*
X58142095Y35581371D02*
X58094476Y35628990D01*
X58094476Y35628990D02*
X57999238Y35676609D01*
D12*
X11707905Y48310580D02*
X11707905Y49310580D01*
X11707905Y49310580D02*
X11946000Y49310580D01*
X11946000Y49310580D02*
X12088857Y49262961D01*
X12088857Y49262961D02*
X12184095Y49167723D01*
X12184095Y49167723D02*
X12231714Y49072485D01*
X12231714Y49072485D02*
X12279333Y48882009D01*
X12279333Y48882009D02*
X12279333Y48739152D01*
X12279333Y48739152D02*
X12231714Y48548676D01*
X12231714Y48548676D02*
X12184095Y48453438D01*
X12184095Y48453438D02*
X12088857Y48358200D01*
X12088857Y48358200D02*
X11946000Y48310580D01*
X11946000Y48310580D02*
X11707905Y48310580D01*
X13184095Y49310580D02*
X12707905Y49310580D01*
X12707905Y49310580D02*
X12660286Y48834390D01*
X12660286Y48834390D02*
X12707905Y48882009D01*
X12707905Y48882009D02*
X12803143Y48929628D01*
X12803143Y48929628D02*
X13041238Y48929628D01*
X13041238Y48929628D02*
X13136476Y48882009D01*
X13136476Y48882009D02*
X13184095Y48834390D01*
X13184095Y48834390D02*
X13231714Y48739152D01*
X13231714Y48739152D02*
X13231714Y48501057D01*
X13231714Y48501057D02*
X13184095Y48405819D01*
X13184095Y48405819D02*
X13136476Y48358200D01*
X13136476Y48358200D02*
X13041238Y48310580D01*
X13041238Y48310580D02*
X12803143Y48310580D01*
X12803143Y48310580D02*
X12707905Y48358200D01*
X12707905Y48358200D02*
X12660286Y48405819D01*
D13*
X57643500Y12087776D02*
X57643500Y12597224D01*
X58688500Y12087776D02*
X58688500Y12597224D01*
X55777224Y11923500D02*
X55267776Y11923500D01*
X55777224Y12968500D02*
X55267776Y12968500D01*
X72099000Y34120000D02*
X65684000Y34120000D01*
X72099000Y34120000D02*
X72099000Y15880000D01*
X65684000Y34120000D02*
X65684000Y34500000D01*
X47139000Y34120000D02*
X46359000Y34120000D01*
X46359000Y34120000D02*
X46359000Y33120000D01*
X72099000Y15880000D02*
X65684000Y15880000D01*
X47139000Y15880000D02*
X46359000Y15880000D01*
X46359000Y15880000D02*
X46359000Y16880000D01*
X40436000Y48760000D02*
X40436000Y50000000D01*
X40436000Y50000000D02*
X39436000Y50000000D01*
X40196000Y35520000D02*
X40196000Y49760000D01*
X40196000Y35520000D02*
X27655000Y35520000D01*
X40196000Y40140000D02*
X37806000Y40140000D01*
X40196000Y42940000D02*
X27655000Y42940000D01*
X40196000Y48640000D02*
X27655000Y48640000D01*
X40196000Y49760000D02*
X27655000Y49760000D01*
X38576000Y35640000D02*
X38576000Y49640000D01*
X38576000Y35640000D02*
X33576000Y35640000D01*
X38576000Y49640000D02*
X33576000Y49640000D01*
X38076000Y43340000D02*
X38076000Y44340000D01*
X38076000Y43340000D02*
X34076000Y43340000D01*
X38076000Y44340000D02*
X37806000Y44340000D01*
X38076000Y45040000D02*
X38076000Y48340000D01*
X38076000Y45040000D02*
X37806000Y45040000D01*
X38076000Y48340000D02*
X34076000Y48340000D01*
X36576000Y35990000D02*
X36576000Y38489000D01*
X36576000Y35990000D02*
X35576000Y35990000D01*
X36576000Y38489000D02*
X35576000Y38489000D01*
X35576000Y35990000D02*
X35576000Y38489000D01*
X35346000Y40140000D02*
X32806000Y40140000D01*
X35346000Y44340000D02*
X34076000Y44340000D01*
X35346000Y45040000D02*
X34076000Y45040000D01*
X34076000Y43340000D02*
X34076000Y44340000D01*
X34076000Y45040000D02*
X34076000Y48340000D01*
X33576000Y35640000D02*
X33576000Y49640000D01*
X33576000Y35640000D02*
X33576000Y49640000D01*
X33576000Y35640000D02*
X28576000Y35640000D01*
X33576000Y49640000D02*
X28576000Y49640000D01*
X33076000Y43340000D02*
X33076000Y44340000D01*
X33076000Y43340000D02*
X29076000Y43340000D01*
X33076000Y44340000D02*
X32806000Y44340000D01*
X33076000Y45040000D02*
X33076000Y48340000D01*
X33076000Y45040000D02*
X32806000Y45040000D01*
X33076000Y48340000D02*
X29076000Y48340000D01*
X31576000Y35990000D02*
X31576000Y38489000D01*
X31576000Y35990000D02*
X30576000Y35990000D01*
X31576000Y38489000D02*
X30576000Y38489000D01*
X30576000Y35990000D02*
X30576000Y38489000D01*
X30346000Y40140000D02*
X27655000Y40140000D01*
X30346000Y44340000D02*
X29076000Y44340000D01*
X30346000Y45040000D02*
X29076000Y45040000D01*
X29076000Y43340000D02*
X29076000Y44340000D01*
X29076000Y45040000D02*
X29076000Y48340000D01*
X28576000Y35640000D02*
X28576000Y49640000D01*
X27655000Y35520000D02*
X27655000Y49760000D01*
X42564776Y18562500D02*
X43074224Y18562500D01*
X42564776Y17517500D02*
X43074224Y17517500D01*
X33022000Y26408767D02*
X33022000Y26116233D01*
X32002000Y26408767D02*
X32002000Y26116233D01*
X55777224Y13701500D02*
X55267776Y13701500D01*
X55777224Y14746500D02*
X55267776Y14746500D01*
X52724000Y41112000D02*
X52724000Y47122000D01*
X59544000Y43362000D02*
X59544000Y47122000D01*
X52724000Y47122000D02*
X53984000Y47122000D01*
X59544000Y47122000D02*
X58284000Y47122000D01*
X48569000Y40559000D02*
X48569000Y38689000D01*
X48569000Y38689000D02*
X52654000Y38689000D01*
X52654000Y40559000D02*
X48569000Y40559000D01*
X27034000Y1532000D02*
X27034000Y292000D01*
X27034000Y292000D02*
X28034000Y292000D01*
X27274000Y14772000D02*
X27274000Y532000D01*
X27274000Y14772000D02*
X44814000Y14772000D01*
X27274000Y10152000D02*
X29664000Y10152000D01*
X27274000Y7352000D02*
X44814000Y7352000D01*
X27274000Y1652000D02*
X44814000Y1652000D01*
X27274000Y532000D02*
X44814000Y532000D01*
X28894000Y14652000D02*
X28894000Y652000D01*
X28894000Y14652000D02*
X33894000Y14652000D01*
X28894000Y652000D02*
X33894000Y652000D01*
X29394000Y6952000D02*
X29394000Y5952000D01*
X29394000Y6952000D02*
X33394000Y6952000D01*
X29394000Y5952000D02*
X29664000Y5952000D01*
X29394000Y5252000D02*
X29394000Y1952000D01*
X29394000Y5252000D02*
X29664000Y5252000D01*
X29394000Y1952000D02*
X33394000Y1952000D01*
X30894000Y14302000D02*
X30894000Y11803000D01*
X30894000Y14302000D02*
X31894000Y14302000D01*
X30894000Y11803000D02*
X31894000Y11803000D01*
X31894000Y14302000D02*
X31894000Y11803000D01*
X32124000Y10152000D02*
X34664000Y10152000D01*
X32124000Y5952000D02*
X33394000Y5952000D01*
X32124000Y5252000D02*
X33394000Y5252000D01*
X33394000Y6952000D02*
X33394000Y5952000D01*
X33394000Y5252000D02*
X33394000Y1952000D01*
X33894000Y14652000D02*
X33894000Y652000D01*
X33894000Y14652000D02*
X33894000Y652000D01*
X33894000Y14652000D02*
X38894000Y14652000D01*
X33894000Y652000D02*
X38894000Y652000D01*
X34394000Y6952000D02*
X34394000Y5952000D01*
X34394000Y6952000D02*
X38394000Y6952000D01*
X34394000Y5952000D02*
X34664000Y5952000D01*
X34394000Y5252000D02*
X34394000Y1952000D01*
X34394000Y5252000D02*
X34664000Y5252000D01*
X34394000Y1952000D02*
X38394000Y1952000D01*
X35894000Y14302000D02*
X35894000Y11803000D01*
X35894000Y14302000D02*
X36894000Y14302000D01*
X35894000Y11803000D02*
X36894000Y11803000D01*
X36894000Y14302000D02*
X36894000Y11803000D01*
X37124000Y10152000D02*
X39664000Y10152000D01*
X37124000Y5952000D02*
X38394000Y5952000D01*
X37124000Y5252000D02*
X38394000Y5252000D01*
X38394000Y6952000D02*
X38394000Y5952000D01*
X38394000Y5252000D02*
X38394000Y1952000D01*
X38894000Y14652000D02*
X38894000Y652000D01*
X38894000Y14652000D02*
X38894000Y652000D01*
X38894000Y14652000D02*
X43894000Y14652000D01*
X38894000Y652000D02*
X43894000Y652000D01*
X39394000Y6952000D02*
X39394000Y5952000D01*
X39394000Y6952000D02*
X43394000Y6952000D01*
X39394000Y5952000D02*
X39664000Y5952000D01*
X39394000Y5252000D02*
X39394000Y1952000D01*
X39394000Y5252000D02*
X39664000Y5252000D01*
X39394000Y1952000D02*
X43394000Y1952000D01*
X40894000Y14302000D02*
X40894000Y11803000D01*
X40894000Y14302000D02*
X41894000Y14302000D01*
X40894000Y11803000D02*
X41894000Y11803000D01*
X41894000Y14302000D02*
X41894000Y11803000D01*
X42124000Y10152000D02*
X44814000Y10152000D01*
X42124000Y5952000D02*
X43394000Y5952000D01*
X42124000Y5252000D02*
X43394000Y5252000D01*
X43394000Y6952000D02*
X43394000Y5952000D01*
X43394000Y5252000D02*
X43394000Y1952000D01*
X43894000Y14652000D02*
X43894000Y652000D01*
X44814000Y14772000D02*
X44814000Y532000D01*
X52072000Y45612267D02*
X52072000Y45319733D01*
X51052000Y45612267D02*
X51052000Y45319733D01*
X44464500Y26416724D02*
X44464500Y25907276D01*
X43419500Y26416724D02*
X43419500Y25907276D01*
X61015000Y40813000D02*
X61015000Y38943000D01*
X61015000Y38943000D02*
X65100000Y38943000D01*
X65100000Y40813000D02*
X61015000Y40813000D01*
X62572000Y4296000D02*
X60872000Y4296000D01*
X62572000Y4296000D02*
X62572000Y1036000D01*
X60872000Y4296000D02*
X60872000Y1036000D01*
X47512500Y2540724D02*
X47512500Y2031276D01*
X46467500Y2540724D02*
X46467500Y2031276D01*
X26169233Y20830000D02*
X26461767Y20830000D01*
X26169233Y19810000D02*
X26461767Y19810000D01*
X34652000Y26694000D02*
X34652000Y25194000D01*
X35902000Y22694000D02*
X40402000Y22694000D01*
X40402000Y29194000D02*
X35902000Y29194000D01*
X41652000Y25194000D02*
X41652000Y26694000D01*
X27751000Y21473000D02*
X31201000Y21473000D01*
X27751000Y21473000D02*
X25801000Y21473000D01*
X27751000Y30343000D02*
X29701000Y30343000D01*
X27751000Y30343000D02*
X25801000Y30343000D01*
X53476000Y11711000D02*
X53476000Y13181000D01*
X53476000Y13181000D02*
X51016000Y13181000D01*
X51016000Y11711000D02*
X53476000Y11711000D01*
X46860000Y9272000D02*
X46860000Y12572000D01*
X47160000Y9272000D02*
X46860000Y9272000D01*
X49360000Y9272000D02*
X49660000Y9272000D01*
X49660000Y9272000D02*
X49660000Y12572000D01*
X46860000Y12572000D02*
X47160000Y12572000D01*
X49660000Y12572000D02*
X49360000Y12572000D01*
X44442767Y39368000D02*
X44150233Y39368000D01*
X44442767Y40388000D02*
X44150233Y40388000D01*
X8492000Y1532000D02*
X8492000Y292000D01*
X8492000Y292000D02*
X9492000Y292000D01*
X8732000Y14772000D02*
X8732000Y532000D01*
X8732000Y14772000D02*
X26272000Y14772000D01*
X8732000Y10152000D02*
X11122000Y10152000D01*
X8732000Y7352000D02*
X26272000Y7352000D01*
X8732000Y1652000D02*
X26272000Y1652000D01*
X8732000Y532000D02*
X26272000Y532000D01*
X10352000Y14652000D02*
X10352000Y652000D01*
X10352000Y14652000D02*
X15352000Y14652000D01*
X10352000Y652000D02*
X15352000Y652000D01*
X10852000Y6952000D02*
X10852000Y5952000D01*
X10852000Y6952000D02*
X14852000Y6952000D01*
X10852000Y5952000D02*
X11122000Y5952000D01*
X10852000Y5252000D02*
X10852000Y1952000D01*
X10852000Y5252000D02*
X11122000Y5252000D01*
X10852000Y1952000D02*
X14852000Y1952000D01*
X12352000Y14302000D02*
X12352000Y11803000D01*
X12352000Y14302000D02*
X13352000Y14302000D01*
X12352000Y11803000D02*
X13352000Y11803000D01*
X13352000Y14302000D02*
X13352000Y11803000D01*
X13582000Y10152000D02*
X16122000Y10152000D01*
X13582000Y5952000D02*
X14852000Y5952000D01*
X13582000Y5252000D02*
X14852000Y5252000D01*
X14852000Y6952000D02*
X14852000Y5952000D01*
X14852000Y5252000D02*
X14852000Y1952000D01*
X15352000Y14652000D02*
X15352000Y652000D01*
X15352000Y14652000D02*
X15352000Y652000D01*
X15352000Y14652000D02*
X20352000Y14652000D01*
X15352000Y652000D02*
X20352000Y652000D01*
X15852000Y6952000D02*
X15852000Y5952000D01*
X15852000Y6952000D02*
X19852000Y6952000D01*
X15852000Y5952000D02*
X16122000Y5952000D01*
X15852000Y5252000D02*
X15852000Y1952000D01*
X15852000Y5252000D02*
X16122000Y5252000D01*
X15852000Y1952000D02*
X19852000Y1952000D01*
X17352000Y14302000D02*
X17352000Y11803000D01*
X17352000Y14302000D02*
X18352000Y14302000D01*
X17352000Y11803000D02*
X18352000Y11803000D01*
X18352000Y14302000D02*
X18352000Y11803000D01*
X18582000Y10152000D02*
X21122000Y10152000D01*
X18582000Y5952000D02*
X19852000Y5952000D01*
X18582000Y5252000D02*
X19852000Y5252000D01*
X19852000Y6952000D02*
X19852000Y5952000D01*
X19852000Y5252000D02*
X19852000Y1952000D01*
X20352000Y14652000D02*
X20352000Y652000D01*
X20352000Y14652000D02*
X20352000Y652000D01*
X20352000Y14652000D02*
X25352000Y14652000D01*
X20352000Y652000D02*
X25352000Y652000D01*
X20852000Y6952000D02*
X20852000Y5952000D01*
X20852000Y6952000D02*
X24852000Y6952000D01*
X20852000Y5952000D02*
X21122000Y5952000D01*
X20852000Y5252000D02*
X20852000Y1952000D01*
X20852000Y5252000D02*
X21122000Y5252000D01*
X20852000Y1952000D02*
X24852000Y1952000D01*
X22352000Y14302000D02*
X22352000Y11803000D01*
X22352000Y14302000D02*
X23352000Y14302000D01*
X22352000Y11803000D02*
X23352000Y11803000D01*
X23352000Y14302000D02*
X23352000Y11803000D01*
X23582000Y10152000D02*
X26272000Y10152000D01*
X23582000Y5952000D02*
X24852000Y5952000D01*
X23582000Y5252000D02*
X24852000Y5252000D01*
X24852000Y6952000D02*
X24852000Y5952000D01*
X24852000Y5252000D02*
X24852000Y1952000D01*
X25352000Y14652000D02*
X25352000Y652000D01*
X26272000Y14772000D02*
X26272000Y532000D01*
X60212500Y2540724D02*
X60212500Y2031276D01*
X59167500Y2540724D02*
X59167500Y2031276D01*
X63019000Y739000D02*
X64489000Y739000D01*
X64489000Y739000D02*
X64489000Y3199000D01*
X63019000Y3199000D02*
X63019000Y739000D01*
X1500000Y34918000D02*
X260000Y34918000D01*
X260000Y34918000D02*
X260000Y33918000D01*
X14740000Y34678000D02*
X500000Y34678000D01*
X14740000Y34678000D02*
X14740000Y17138000D01*
X10120000Y34678000D02*
X10120000Y32288000D01*
X7320000Y34678000D02*
X7320000Y17138000D01*
X1620000Y34678000D02*
X1620000Y17138000D01*
X500000Y34678000D02*
X500000Y17138000D01*
X14620000Y33058000D02*
X620000Y33058000D01*
X14620000Y33058000D02*
X14620000Y28058000D01*
X620000Y33058000D02*
X620000Y28058000D01*
X6920000Y32558000D02*
X5920000Y32558000D01*
X6920000Y32558000D02*
X6920000Y28558000D01*
X5920000Y32558000D02*
X5920000Y32288000D01*
X5220000Y32558000D02*
X1920000Y32558000D01*
X5220000Y32558000D02*
X5220000Y32288000D01*
X1920000Y32558000D02*
X1920000Y28558000D01*
X14270000Y31058000D02*
X11771000Y31058000D01*
X14270000Y31058000D02*
X14270000Y30058000D01*
X11771000Y31058000D02*
X11771000Y30058000D01*
X14270000Y30058000D02*
X11771000Y30058000D01*
X10120000Y29828000D02*
X10120000Y27288000D01*
X5920000Y29828000D02*
X5920000Y28558000D01*
X5220000Y29828000D02*
X5220000Y28558000D01*
X6920000Y28558000D02*
X5920000Y28558000D01*
X5220000Y28558000D02*
X1920000Y28558000D01*
X14620000Y28058000D02*
X620000Y28058000D01*
X14620000Y28058000D02*
X620000Y28058000D01*
X14620000Y28058000D02*
X14620000Y23058000D01*
X620000Y28058000D02*
X620000Y23058000D01*
X6920000Y27558000D02*
X5920000Y27558000D01*
X6920000Y27558000D02*
X6920000Y23558000D01*
X5920000Y27558000D02*
X5920000Y27288000D01*
X5220000Y27558000D02*
X1920000Y27558000D01*
X5220000Y27558000D02*
X5220000Y27288000D01*
X1920000Y27558000D02*
X1920000Y23558000D01*
X14270000Y26058000D02*
X11771000Y26058000D01*
X14270000Y26058000D02*
X14270000Y25058000D01*
X11771000Y26058000D02*
X11771000Y25058000D01*
X14270000Y25058000D02*
X11771000Y25058000D01*
X10120000Y24828000D02*
X10120000Y22288000D01*
X5920000Y24828000D02*
X5920000Y23558000D01*
X5220000Y24828000D02*
X5220000Y23558000D01*
X6920000Y23558000D02*
X5920000Y23558000D01*
X5220000Y23558000D02*
X1920000Y23558000D01*
X14620000Y23058000D02*
X620000Y23058000D01*
X14620000Y23058000D02*
X620000Y23058000D01*
X14620000Y23058000D02*
X14620000Y18058000D01*
X620000Y23058000D02*
X620000Y18058000D01*
X6920000Y22558000D02*
X5920000Y22558000D01*
X6920000Y22558000D02*
X6920000Y18558000D01*
X5920000Y22558000D02*
X5920000Y22288000D01*
X5220000Y22558000D02*
X1920000Y22558000D01*
X5220000Y22558000D02*
X5220000Y22288000D01*
X1920000Y22558000D02*
X1920000Y18558000D01*
X14270000Y21058000D02*
X11771000Y21058000D01*
X14270000Y21058000D02*
X14270000Y20058000D01*
X11771000Y21058000D02*
X11771000Y20058000D01*
X14270000Y20058000D02*
X11771000Y20058000D01*
X10120000Y19828000D02*
X10120000Y17138000D01*
X5920000Y19828000D02*
X5920000Y18558000D01*
X5220000Y19828000D02*
X5220000Y18558000D01*
X6920000Y18558000D02*
X5920000Y18558000D01*
X5220000Y18558000D02*
X1920000Y18558000D01*
X14620000Y18058000D02*
X620000Y18058000D01*
X14740000Y17138000D02*
X500000Y17138000D01*
X53476000Y13489000D02*
X53476000Y14959000D01*
X53476000Y14959000D02*
X51016000Y14959000D01*
X51016000Y13489000D02*
X53476000Y13489000D01*
X49552000Y49602000D02*
X45952000Y49602000D01*
X48572000Y45302001D02*
G75*
G03*
X49563452Y49594155I-820000J2449999D01*
G01*
X45943555Y49579684D02*
G75*
G03*
X46972000Y45302000I1808445J-1827684D01*
G01*
X42673233Y16772000D02*
X42965767Y16772000D01*
X42673233Y15752000D02*
X42965767Y15752000D01*
X56280267Y39368000D02*
X55987733Y39368000D01*
X56280267Y40388000D02*
X55987733Y40388000D01*
X48760000Y4390000D02*
X48760000Y2470000D01*
X48760000Y-1245000D02*
X48760000Y460000D01*
X57920000Y2470000D02*
X57920000Y4390000D01*
X57920000Y460000D02*
X57920000Y-1245000D01*
X57920000Y-1245000D02*
X48760000Y-1245000D01*
X58619000Y36911000D02*
X58619000Y38781000D01*
X58619000Y38781000D02*
X54534000Y38781000D01*
X54534000Y36911000D02*
X58619000Y36911000D01*
X59421500Y12087776D02*
X59421500Y12597224D01*
X60466500Y12087776D02*
X60466500Y12597224D01*
X61015000Y38527000D02*
X61015000Y36657000D01*
X61015000Y36657000D02*
X65100000Y36657000D01*
X65100000Y38527000D02*
X61015000Y38527000D01*
X64276500Y6350724D02*
X64276500Y5841276D01*
X63231500Y6350724D02*
X63231500Y5841276D01*
X64015233Y36070000D02*
X64307767Y36070000D01*
X64015233Y35050000D02*
X64307767Y35050000D01*
X42546000Y38738000D02*
X45846000Y38738000D01*
X42546000Y38438000D02*
X42546000Y38738000D01*
X42546000Y36238000D02*
X42546000Y35938000D01*
X42546000Y35938000D02*
X45846000Y35938000D01*
X45846000Y38738000D02*
X45846000Y38438000D01*
X45846000Y35938000D02*
X45846000Y36238000D01*
X60051733Y36070000D02*
X60344267Y36070000D01*
X60051733Y35050000D02*
X60344267Y35050000D01*
D12*
X18788000Y42164000D02*
G75*
G03*
X17788000Y42164000I-500000J0D01*
G01*
X17788000Y42164000D02*
G75*
G03*
X18788000Y42164000I500000J0D01*
G01*
X25788000Y42164000D02*
G75*
G03*
X10788000Y42164000I-7500000J0D01*
G01*
X10788000Y42164000D02*
G75*
G03*
X25788000Y42164000I7500000J0D01*
G01*
%LPC*%
D14*
X58166000Y11430000D03*
X58166000Y13255000D03*
D15*
X56435000Y12446000D03*
X54610000Y12446000D03*
D16*
X64489000Y33750000D03*
X63219000Y33750000D03*
X61949000Y33750000D03*
X60679000Y33750000D03*
X59409000Y33750000D03*
X58139000Y33750000D03*
X56869000Y33750000D03*
X55599000Y33750000D03*
X54329000Y33750000D03*
X53059000Y33750000D03*
X51789000Y33750000D03*
X50519000Y33750000D03*
X49249000Y33750000D03*
X47979000Y33750000D03*
D17*
X46729000Y30710000D03*
X46729000Y29440000D03*
X46729000Y28170000D03*
X46729000Y26900000D03*
X46729000Y25630000D03*
X46729000Y24360000D03*
X46729000Y23090000D03*
X46729000Y21820000D03*
X46729000Y20550000D03*
X46729000Y19280000D03*
D16*
X47979000Y16250000D03*
X49249000Y16250000D03*
X50519000Y16250000D03*
X51789000Y16250000D03*
X53059000Y16250000D03*
X54329000Y16250000D03*
X55599000Y16250000D03*
X56869000Y16250000D03*
X58139000Y16250000D03*
X59409000Y16250000D03*
X60679000Y16250000D03*
X61949000Y16250000D03*
X63219000Y16250000D03*
X64489000Y16250000D03*
D18*
X57911500Y27205000D03*
X56386500Y27205000D03*
X58674000Y26442500D03*
X57149000Y26442500D03*
X55624000Y26442500D03*
X57911500Y25680000D03*
D19*
X57149000Y25680000D03*
D18*
X56386500Y25680000D03*
X58674000Y24917500D03*
X57149000Y24917500D03*
X55624000Y24917500D03*
X57911500Y24155000D03*
X56386500Y24155000D03*
D20*
X36576000Y40640000D03*
X36576000Y45640000D03*
D21*
X31576000Y40640000D03*
X31576000Y45640000D03*
D22*
X41907000Y18040000D03*
X43732000Y18040000D03*
D23*
X32512000Y27125000D03*
X32512000Y25400000D03*
D15*
X56435000Y14224000D03*
X54610000Y14224000D03*
D24*
X53834000Y42062000D03*
X56134000Y42062000D03*
D25*
X56134000Y48362000D03*
D24*
X58434000Y42062000D03*
D26*
X49616500Y39624000D03*
X52491500Y39624000D03*
D20*
X30894000Y9652000D03*
X30894000Y4652000D03*
D21*
X35894000Y9652000D03*
X35894000Y4652000D03*
X40894000Y9652000D03*
X40894000Y4652000D03*
D23*
X51562000Y46328500D03*
X51562000Y44603500D03*
D27*
X43942000Y27074500D03*
X43942000Y25249500D03*
D26*
X62062500Y39878000D03*
X64937500Y39878000D03*
D28*
X61722000Y3536000D03*
X61722000Y1036000D03*
D27*
X46990000Y3198500D03*
X46990000Y1373500D03*
D29*
X25453000Y20320000D03*
X27178000Y20320000D03*
D30*
X34902000Y28194000D03*
X41402000Y28194000D03*
X34902000Y23694000D03*
X41402000Y23694000D03*
D31*
X30226000Y22098000D03*
X30226000Y23368000D03*
X30226000Y24638000D03*
X30226000Y25908000D03*
X30226000Y27178000D03*
X30226000Y28448000D03*
X30226000Y29718000D03*
X25276000Y29718000D03*
X25276000Y28448000D03*
X25276000Y27178000D03*
X25276000Y25908000D03*
X25276000Y24638000D03*
X25276000Y23368000D03*
X25276000Y22098000D03*
D32*
X52691000Y12446000D03*
X50941000Y12446000D03*
D33*
X48260000Y8709500D03*
X48260000Y13134500D03*
D34*
X45159000Y39878000D03*
X43434000Y39878000D03*
D20*
X12352000Y9652000D03*
X12352000Y4652000D03*
D21*
X17352000Y9652000D03*
X17352000Y4652000D03*
X22352000Y9652000D03*
X22352000Y4652000D03*
D27*
X59690000Y3198500D03*
X59690000Y1373500D03*
D35*
X63754000Y1524000D03*
X63754000Y3274000D03*
D36*
X9620000Y31058000D03*
X4620000Y31058000D03*
D37*
X9620000Y26058000D03*
X4620000Y26058000D03*
X9620000Y21058000D03*
X4620000Y21058000D03*
D32*
X52691000Y14224000D03*
X50941000Y14224000D03*
D38*
X49022000Y48152000D03*
D39*
X47752000Y46082000D03*
X46482000Y48152000D03*
D29*
X41957000Y16262000D03*
X43682000Y16262000D03*
D34*
X56996500Y39878000D03*
X55271500Y39878000D03*
D40*
X50450000Y5145000D03*
X56230000Y5145000D03*
D41*
X50140000Y6265000D03*
X50940000Y6265000D03*
D42*
X52090000Y6265000D03*
X53090000Y6265000D03*
X53590000Y6265000D03*
X54590000Y6265000D03*
D41*
X55740000Y6265000D03*
X56540000Y6265000D03*
X56540000Y6265000D03*
X55740000Y6265000D03*
D42*
X55090000Y6265000D03*
X54090000Y6265000D03*
X52590000Y6265000D03*
X51590000Y6265000D03*
D41*
X50940000Y6265000D03*
X50140000Y6265000D03*
D43*
X49020000Y5665000D03*
D44*
X49020000Y1465000D03*
D43*
X57660000Y5665000D03*
D44*
X57660000Y1465000D03*
D45*
X57571500Y37846000D03*
X54696500Y37846000D03*
D14*
X59944000Y11430000D03*
X59944000Y13255000D03*
D26*
X62062500Y37592000D03*
X64937500Y37592000D03*
D27*
X63754000Y7008500D03*
X63754000Y5183500D03*
D29*
X63299000Y35560000D03*
X65024000Y35560000D03*
D46*
X41983500Y37338000D03*
X46408500Y37338000D03*
D29*
X59335500Y35560000D03*
X61060500Y35560000D03*
D47*
X14478000Y44704000D03*
X14478000Y42164000D03*
X14478000Y39624000D03*
X22098000Y39624000D03*
X22098000Y42164000D03*
X22098000Y44704000D03*
%LPD*%
M02*
