G04 #@! TF.GenerationSoftware,KiCad,Pcbnew,7.0.10*
G04 #@! TF.CreationDate,2024-02-23T22:27:58+01:00*
G04 #@! TF.ProjectId,WLED_Controller,574c4544-5f43-46f6-9e74-726f6c6c6572,rev?*
G04 #@! TF.SameCoordinates,Original*
G04 #@! TF.FileFunction,Soldermask,Top*
G04 #@! TF.FilePolarity,Negative*
%FSLAX46Y46*%
G04 Gerber Fmt 4.6, Leading zero omitted, Abs format (unit mm)*
G04 Created by KiCad (PCBNEW 7.0.10) date 2024-02-23 22:27:58*
%MOMM*%
%LPD*%
G01*
G04 APERTURE LIST*
G04 Aperture macros list*
%AMRoundRect*
0 Rectangle with rounded corners*
0 $1 Rounding radius*
0 $2 $3 $4 $5 $6 $7 $8 $9 X,Y pos of 4 corners*
0 Add a 4 corners polygon primitive as box body*
4,1,4,$2,$3,$4,$5,$6,$7,$8,$9,$2,$3,0*
0 Add four circle primitives for the rounded corners*
1,1,$1+$1,$2,$3*
1,1,$1+$1,$4,$5*
1,1,$1+$1,$6,$7*
1,1,$1+$1,$8,$9*
0 Add four rect primitives between the rounded corners*
20,1,$1+$1,$2,$3,$4,$5,0*
20,1,$1+$1,$4,$5,$6,$7,0*
20,1,$1+$1,$6,$7,$8,$9,0*
20,1,$1+$1,$8,$9,$2,$3,0*%
G04 Aperture macros list end*
%ADD10RoundRect,0.237500X0.237500X-0.250000X0.237500X0.250000X-0.237500X0.250000X-0.237500X-0.250000X0*%
%ADD11RoundRect,0.237500X0.250000X0.237500X-0.250000X0.237500X-0.250000X-0.237500X0.250000X-0.237500X0*%
%ADD12R,0.900000X1.500000*%
%ADD13R,1.500000X0.900000*%
%ADD14C,0.600000*%
%ADD15R,4.200000X4.200000*%
%ADD16R,1.500000X3.000000*%
%ADD17O,1.500000X3.000000*%
%ADD18RoundRect,0.237500X-0.250000X-0.237500X0.250000X-0.237500X0.250000X0.237500X-0.250000X0.237500X0*%
%ADD19RoundRect,0.237500X-0.237500X0.300000X-0.237500X-0.300000X0.237500X-0.300000X0.237500X0.300000X0*%
%ADD20R,1.500000X2.000000*%
%ADD21R,3.800000X2.000000*%
%ADD22RoundRect,0.250000X-0.537500X-0.425000X0.537500X-0.425000X0.537500X0.425000X-0.537500X0.425000X0*%
%ADD23RoundRect,0.237500X-0.237500X0.250000X-0.237500X-0.250000X0.237500X-0.250000X0.237500X0.250000X0*%
%ADD24RoundRect,0.250000X-0.250000X0.250000X-0.250000X-0.250000X0.250000X-0.250000X0.250000X0.250000X0*%
%ADD25RoundRect,0.237500X-0.300000X-0.237500X0.300000X-0.237500X0.300000X0.237500X-0.300000X0.237500X0*%
%ADD26C,2.000000*%
%ADD27RoundRect,0.150000X0.825000X0.150000X-0.825000X0.150000X-0.825000X-0.150000X0.825000X-0.150000X0*%
%ADD28RoundRect,0.237500X0.287500X0.237500X-0.287500X0.237500X-0.287500X-0.237500X0.287500X-0.237500X0*%
%ADD29R,1.700000X1.925000*%
%ADD30RoundRect,0.237500X0.300000X0.237500X-0.300000X0.237500X-0.300000X-0.237500X0.300000X-0.237500X0*%
%ADD31RoundRect,0.237500X0.237500X-0.287500X0.237500X0.287500X-0.237500X0.287500X-0.237500X-0.287500X0*%
%ADD32R,3.000000X1.500000*%
%ADD33O,3.000000X1.500000*%
%ADD34R,1.100000X1.800000*%
%ADD35RoundRect,0.275000X0.275000X0.625000X-0.275000X0.625000X-0.275000X-0.625000X0.275000X-0.625000X0*%
%ADD36C,0.650000*%
%ADD37R,0.600000X1.240000*%
%ADD38R,0.300000X1.240000*%
%ADD39O,1.000000X2.100000*%
%ADD40O,1.000000X1.800000*%
%ADD41RoundRect,0.250000X0.537500X0.425000X-0.537500X0.425000X-0.537500X-0.425000X0.537500X-0.425000X0*%
%ADD42R,1.925000X1.700000*%
%ADD43C,1.524000*%
G04 APERTURE END LIST*
D10*
X58166000Y11430000D03*
X58166000Y13255000D03*
D11*
X56435000Y12446000D03*
X54610000Y12446000D03*
D12*
X64489000Y33750000D03*
X63219000Y33750000D03*
X61949000Y33750000D03*
X60679000Y33750000D03*
X59409000Y33750000D03*
X58139000Y33750000D03*
X56869000Y33750000D03*
X55599000Y33750000D03*
X54329000Y33750000D03*
X53059000Y33750000D03*
X51789000Y33750000D03*
X50519000Y33750000D03*
X49249000Y33750000D03*
X47979000Y33750000D03*
D13*
X46729000Y30710000D03*
X46729000Y29440000D03*
X46729000Y28170000D03*
X46729000Y26900000D03*
X46729000Y25630000D03*
X46729000Y24360000D03*
X46729000Y23090000D03*
X46729000Y21820000D03*
X46729000Y20550000D03*
X46729000Y19280000D03*
D12*
X47979000Y16250000D03*
X49249000Y16250000D03*
X50519000Y16250000D03*
X51789000Y16250000D03*
X53059000Y16250000D03*
X54329000Y16250000D03*
X55599000Y16250000D03*
X56869000Y16250000D03*
X58139000Y16250000D03*
X59409000Y16250000D03*
X60679000Y16250000D03*
X61949000Y16250000D03*
X63219000Y16250000D03*
X64489000Y16250000D03*
D14*
X57911500Y27205000D03*
X56386500Y27205000D03*
X58674000Y26442500D03*
X57149000Y26442500D03*
X55624000Y26442500D03*
X57911500Y25680000D03*
D15*
X57149000Y25680000D03*
D14*
X56386500Y25680000D03*
X58674000Y24917500D03*
X57149000Y24917500D03*
X55624000Y24917500D03*
X57911500Y24155000D03*
X56386500Y24155000D03*
D16*
X36576000Y40640000D03*
X36576000Y45640000D03*
D17*
X31576000Y40640000D03*
X31576000Y45640000D03*
D18*
X41907000Y18040000D03*
X43732000Y18040000D03*
D19*
X32512000Y27125000D03*
X32512000Y25400000D03*
D11*
X56435000Y14224000D03*
X54610000Y14224000D03*
D20*
X53834000Y42062000D03*
X56134000Y42062000D03*
D21*
X56134000Y48362000D03*
D20*
X58434000Y42062000D03*
D22*
X49616500Y39624000D03*
X52491500Y39624000D03*
D16*
X30894000Y9652000D03*
X30894000Y4652000D03*
D17*
X35894000Y9652000D03*
X35894000Y4652000D03*
X40894000Y9652000D03*
X40894000Y4652000D03*
D19*
X51562000Y46328500D03*
X51562000Y44603500D03*
D23*
X43942000Y27074500D03*
X43942000Y25249500D03*
D22*
X62062500Y39878000D03*
X64937500Y39878000D03*
D24*
X61722000Y3536000D03*
X61722000Y1036000D03*
D23*
X46990000Y3198500D03*
X46990000Y1373500D03*
D25*
X25453000Y20320000D03*
X27178000Y20320000D03*
D26*
X34902000Y28194000D03*
X41402000Y28194000D03*
X34902000Y23694000D03*
X41402000Y23694000D03*
D27*
X30226000Y22098000D03*
X30226000Y23368000D03*
X30226000Y24638000D03*
X30226000Y25908000D03*
X30226000Y27178000D03*
X30226000Y28448000D03*
X30226000Y29718000D03*
X25276000Y29718000D03*
X25276000Y28448000D03*
X25276000Y27178000D03*
X25276000Y25908000D03*
X25276000Y24638000D03*
X25276000Y23368000D03*
X25276000Y22098000D03*
D28*
X52691000Y12446000D03*
X50941000Y12446000D03*
D29*
X48260000Y8709500D03*
X48260000Y13134500D03*
D30*
X45159000Y39878000D03*
X43434000Y39878000D03*
D16*
X12352000Y9652000D03*
X12352000Y4652000D03*
D17*
X17352000Y9652000D03*
X17352000Y4652000D03*
X22352000Y9652000D03*
X22352000Y4652000D03*
D23*
X59690000Y3198500D03*
X59690000Y1373500D03*
D31*
X63754000Y1524000D03*
X63754000Y3274000D03*
D32*
X9620000Y31058000D03*
X4620000Y31058000D03*
D33*
X9620000Y26058000D03*
X4620000Y26058000D03*
X9620000Y21058000D03*
X4620000Y21058000D03*
D28*
X52691000Y14224000D03*
X50941000Y14224000D03*
D34*
X49022000Y48152000D03*
D35*
X47752000Y46082000D03*
X46482000Y48152000D03*
D25*
X41957000Y16262000D03*
X43682000Y16262000D03*
D30*
X56996500Y39878000D03*
X55271500Y39878000D03*
D36*
X50450000Y5145000D03*
X56230000Y5145000D03*
D37*
X50140000Y6265000D03*
X50940000Y6265000D03*
D38*
X52090000Y6265000D03*
X53090000Y6265000D03*
X53590000Y6265000D03*
X54590000Y6265000D03*
D37*
X55740000Y6265000D03*
X56540000Y6265000D03*
X56540000Y6265000D03*
X55740000Y6265000D03*
D38*
X55090000Y6265000D03*
X54090000Y6265000D03*
X52590000Y6265000D03*
X51590000Y6265000D03*
D37*
X50940000Y6265000D03*
X50140000Y6265000D03*
D39*
X49020000Y5665000D03*
D40*
X49020000Y1465000D03*
D39*
X57660000Y5665000D03*
D40*
X57660000Y1465000D03*
D41*
X57571500Y37846000D03*
X54696500Y37846000D03*
D10*
X59944000Y11430000D03*
X59944000Y13255000D03*
D22*
X62062500Y37592000D03*
X64937500Y37592000D03*
D23*
X63754000Y7008500D03*
X63754000Y5183500D03*
D25*
X63299000Y35560000D03*
X65024000Y35560000D03*
D42*
X41983500Y37338000D03*
X46408500Y37338000D03*
D25*
X59335500Y35560000D03*
X61060500Y35560000D03*
D43*
X14478000Y44704000D03*
X14478000Y42164000D03*
X14478000Y39624000D03*
X22098000Y39624000D03*
X22098000Y42164000D03*
X22098000Y44704000D03*
M02*
