G04 #@! TF.GenerationSoftware,KiCad,Pcbnew,7.0.10*
G04 #@! TF.CreationDate,2024-02-23T22:27:58+01:00*
G04 #@! TF.ProjectId,WLED_Controller,574c4544-5f43-46f6-9e74-726f6c6c6572,rev?*
G04 #@! TF.SameCoordinates,Original*
G04 #@! TF.FileFunction,Copper,L2,Bot*
G04 #@! TF.FilePolarity,Positive*
%FSLAX46Y46*%
G04 Gerber Fmt 4.6, Leading zero omitted, Abs format (unit mm)*
G04 Created by KiCad (PCBNEW 7.0.10) date 2024-02-23 22:27:58*
%MOMM*%
%LPD*%
G01*
G04 APERTURE LIST*
G04 Aperture macros list*
%AMRoundRect*
0 Rectangle with rounded corners*
0 $1 Rounding radius*
0 $2 $3 $4 $5 $6 $7 $8 $9 X,Y pos of 4 corners*
0 Add a 4 corners polygon primitive as box body*
4,1,4,$2,$3,$4,$5,$6,$7,$8,$9,$2,$3,0*
0 Add four circle primitives for the rounded corners*
1,1,$1+$1,$2,$3*
1,1,$1+$1,$4,$5*
1,1,$1+$1,$6,$7*
1,1,$1+$1,$8,$9*
0 Add four rect primitives between the rounded corners*
20,1,$1+$1,$2,$3,$4,$5,0*
20,1,$1+$1,$4,$5,$6,$7,0*
20,1,$1+$1,$6,$7,$8,$9,0*
20,1,$1+$1,$8,$9,$2,$3,0*%
G04 Aperture macros list end*
G04 #@! TA.AperFunction,HeatsinkPad*
%ADD10C,0.600000*%
G04 #@! TD*
G04 #@! TA.AperFunction,ComponentPad*
%ADD11R,1.500000X3.000000*%
G04 #@! TD*
G04 #@! TA.AperFunction,ComponentPad*
%ADD12O,1.500000X3.000000*%
G04 #@! TD*
G04 #@! TA.AperFunction,ComponentPad*
%ADD13C,2.000000*%
G04 #@! TD*
G04 #@! TA.AperFunction,ComponentPad*
%ADD14R,3.000000X1.500000*%
G04 #@! TD*
G04 #@! TA.AperFunction,ComponentPad*
%ADD15O,3.000000X1.500000*%
G04 #@! TD*
G04 #@! TA.AperFunction,ComponentPad*
%ADD16R,1.100000X1.800000*%
G04 #@! TD*
G04 #@! TA.AperFunction,ComponentPad*
%ADD17RoundRect,0.275000X0.275000X0.625000X-0.275000X0.625000X-0.275000X-0.625000X0.275000X-0.625000X0*%
G04 #@! TD*
G04 #@! TA.AperFunction,ComponentPad*
%ADD18O,1.000000X2.100000*%
G04 #@! TD*
G04 #@! TA.AperFunction,ComponentPad*
%ADD19O,1.000000X1.800000*%
G04 #@! TD*
G04 #@! TA.AperFunction,ComponentPad*
%ADD20C,1.524000*%
G04 #@! TD*
G04 #@! TA.AperFunction,SMDPad,CuDef*
%ADD21RoundRect,0.237500X-0.237500X0.250000X-0.237500X-0.250000X0.237500X-0.250000X0.237500X0.250000X0*%
G04 #@! TD*
G04 #@! TA.AperFunction,SMDPad,CuDef*
%ADD22RoundRect,0.150000X0.150000X-0.825000X0.150000X0.825000X-0.150000X0.825000X-0.150000X-0.825000X0*%
G04 #@! TD*
G04 #@! TA.AperFunction,SMDPad,CuDef*
%ADD23RoundRect,0.150000X0.587500X0.150000X-0.587500X0.150000X-0.587500X-0.150000X0.587500X-0.150000X0*%
G04 #@! TD*
G04 #@! TA.AperFunction,SMDPad,CuDef*
%ADD24RoundRect,0.237500X0.237500X-0.250000X0.237500X0.250000X-0.237500X0.250000X-0.237500X-0.250000X0*%
G04 #@! TD*
G04 #@! TA.AperFunction,SMDPad,CuDef*
%ADD25RoundRect,0.237500X-0.237500X0.300000X-0.237500X-0.300000X0.237500X-0.300000X0.237500X0.300000X0*%
G04 #@! TD*
G04 #@! TA.AperFunction,ViaPad*
%ADD26C,0.800000*%
G04 #@! TD*
G04 #@! TA.AperFunction,Conductor*
%ADD27C,0.304800*%
G04 #@! TD*
G04 #@! TA.AperFunction,Conductor*
%ADD28C,0.812800*%
G04 #@! TD*
G04 #@! TA.AperFunction,Conductor*
%ADD29C,0.406400*%
G04 #@! TD*
G04 #@! TA.AperFunction,Conductor*
%ADD30C,0.254000*%
G04 #@! TD*
G04 APERTURE END LIST*
D10*
X57911500Y27205000D03*
X56386500Y27205000D03*
X58674000Y26442500D03*
X57149000Y26442500D03*
X55624000Y26442500D03*
X57911500Y25680000D03*
X56386500Y25680000D03*
X58674000Y24917500D03*
X57149000Y24917500D03*
X55624000Y24917500D03*
X57911500Y24155000D03*
X56386500Y24155000D03*
D11*
X36576000Y40640000D03*
X36576000Y45640000D03*
D12*
X31576000Y40640000D03*
X31576000Y45640000D03*
D11*
X30894000Y9652000D03*
X30894000Y4652000D03*
D12*
X35894000Y9652000D03*
X35894000Y4652000D03*
X40894000Y9652000D03*
X40894000Y4652000D03*
D13*
X34902000Y28194000D03*
X41402000Y28194000D03*
X34902000Y23694000D03*
X41402000Y23694000D03*
D11*
X12352000Y9652000D03*
X12352000Y4652000D03*
D12*
X17352000Y9652000D03*
X17352000Y4652000D03*
X22352000Y9652000D03*
X22352000Y4652000D03*
D14*
X9620000Y31058000D03*
X4620000Y31058000D03*
D15*
X9620000Y26058000D03*
X4620000Y26058000D03*
X9620000Y21058000D03*
X4620000Y21058000D03*
D16*
X49022000Y48152000D03*
D17*
X47752000Y46082000D03*
X46482000Y48152000D03*
D18*
X49020000Y5665000D03*
D19*
X49020000Y1465000D03*
D18*
X57660000Y5665000D03*
D19*
X57660000Y1465000D03*
D20*
X14478000Y44704000D03*
X14478000Y42164000D03*
X14478000Y39624000D03*
X22098000Y39624000D03*
X22098000Y42164000D03*
X22098000Y44704000D03*
D21*
X52070000Y23772500D03*
X52070000Y21947500D03*
D22*
X60198000Y11814000D03*
X58928000Y11814000D03*
X57658000Y11814000D03*
X56388000Y11814000D03*
X55118000Y11814000D03*
X53848000Y11814000D03*
X52578000Y11814000D03*
X51308000Y11814000D03*
X51308000Y16764000D03*
X52578000Y16764000D03*
X53848000Y16764000D03*
X55118000Y16764000D03*
X56388000Y16764000D03*
X57658000Y16764000D03*
X58928000Y16764000D03*
X60198000Y16764000D03*
D23*
X50292000Y22032000D03*
X50292000Y20132000D03*
X48417000Y21082000D03*
D24*
X53594000Y21947500D03*
X53594000Y23772500D03*
D23*
X50292000Y25588000D03*
X50292000Y23688000D03*
X48417000Y24638000D03*
D25*
X61722000Y15340500D03*
X61722000Y13615500D03*
D24*
X59182000Y30075500D03*
X59182000Y31900500D03*
D26*
X62484000Y31242000D03*
X63246000Y12700000D03*
X64516000Y42926000D03*
X53848000Y45212000D03*
X45974000Y14478000D03*
X61214000Y32004000D03*
X48514000Y36322000D03*
X62230000Y8636000D03*
X59182000Y39624000D03*
X46228000Y16250000D03*
X51054000Y7620000D03*
X55626000Y7620000D03*
X55118000Y9906000D03*
X53848000Y9906000D03*
X57150000Y18551600D03*
X56642000Y20320000D03*
X48514000Y22606000D03*
X52070000Y18542000D03*
X58928000Y9398000D03*
X57658000Y8636000D03*
X48514000Y27432000D03*
X44958000Y21336000D03*
X32258000Y22098000D03*
X28448000Y27178000D03*
X45212000Y17272000D03*
X23368000Y25908000D03*
X44958000Y19304000D03*
X53569972Y27661972D03*
X57912000Y20574000D03*
X51816000Y32258000D03*
D27*
X61722000Y15340500D02*
X61722000Y16510000D01*
X62891500Y15340500D02*
X61722000Y15340500D01*
X60198000Y16764000D02*
X60198000Y28956000D01*
X56388000Y13462000D02*
X56896000Y13970000D01*
X59182000Y29972000D02*
X60198000Y28956000D01*
X61468000Y16764000D02*
X60198000Y16764000D01*
X59182000Y30075500D02*
X59182000Y29972000D01*
X63246000Y12700000D02*
X63246000Y14986000D01*
X63246000Y14986000D02*
X62891500Y15340500D01*
X60198000Y14478000D02*
X60198000Y16764000D01*
X61722000Y16510000D02*
X61468000Y16764000D01*
X59690000Y13970000D02*
X60198000Y14478000D01*
X60198000Y28956000D02*
X62484000Y31242000D01*
X56388000Y11814000D02*
X56388000Y13462000D01*
X56896000Y13970000D02*
X59690000Y13970000D01*
X59690000Y19812000D02*
X59690000Y27940000D01*
X48417000Y20554842D02*
X49667842Y19304000D01*
X48417000Y21082000D02*
X48417000Y20554842D01*
X48514000Y36322000D02*
X53086000Y36322000D01*
X61110500Y31900500D02*
X61214000Y32004000D01*
X59182000Y31900500D02*
X61110500Y31900500D01*
X57912000Y31496000D02*
X58316500Y31900500D01*
X49667842Y19304000D02*
X59182000Y19304000D01*
X58316500Y31900500D02*
X59182000Y31900500D01*
X59690000Y27940000D02*
X57912000Y29718000D01*
X59182000Y19304000D02*
X59690000Y19812000D01*
X53086000Y36322000D02*
X57912000Y31496000D01*
X57912000Y29718000D02*
X57912000Y31496000D01*
D28*
X64262000Y10668000D02*
X64262000Y34544000D01*
X62230000Y8636000D02*
X64262000Y10668000D01*
X64262000Y34544000D02*
X59182000Y39624000D01*
X59182000Y39624000D02*
X58166000Y40640000D01*
X58166000Y40640000D02*
X36576000Y40640000D01*
D27*
X46228000Y22449000D02*
X46228000Y16250000D01*
X48417000Y24638000D02*
X46228000Y22449000D01*
D29*
X51054000Y7620000D02*
X55626000Y7620000D01*
D30*
X55118000Y9906000D02*
X55118000Y11814000D01*
X53848000Y9906000D02*
X53848000Y11814000D01*
D27*
X51985500Y22032000D02*
X52070000Y21947500D01*
X50292000Y22032000D02*
X51985500Y22032000D01*
X53594000Y21947500D02*
X51778500Y20132000D01*
X57658000Y18043600D02*
X57150000Y18551600D01*
X55014500Y21947500D02*
X56642000Y20320000D01*
X51778500Y20132000D02*
X50292000Y20132000D01*
X53594000Y21947500D02*
X55014500Y21947500D01*
X57658000Y16764000D02*
X57658000Y18043600D01*
X51778500Y25588000D02*
X50292000Y25588000D01*
X53594000Y23772500D02*
X51778500Y25588000D01*
X51985500Y23688000D02*
X52070000Y23772500D01*
X56388000Y17738999D02*
X56388000Y16764000D01*
X49680500Y23772500D02*
X48514000Y22606000D01*
X52070000Y18542000D02*
X55584999Y18542000D01*
X52070000Y23772500D02*
X49680500Y23772500D01*
X55584999Y18542000D02*
X56388000Y17738999D01*
X50292000Y23688000D02*
X51985500Y23688000D01*
D30*
X58928000Y9398000D02*
X58928000Y11814000D01*
X57658000Y8636000D02*
X57658000Y11814000D01*
D27*
X45140000Y27432000D02*
X41402000Y23694000D01*
X48514000Y27432000D02*
X45140000Y27432000D01*
X33020000Y21336000D02*
X32258000Y22098000D01*
X44958000Y21336000D02*
X33020000Y21336000D01*
X45212000Y17272000D02*
X23114000Y17272000D01*
X23114000Y17272000D02*
X22606000Y17780000D01*
X23114000Y27178000D02*
X28448000Y27178000D01*
X22606000Y26670000D02*
X23114000Y27178000D01*
X22606000Y17780000D02*
X22606000Y26670000D01*
X28956000Y19304000D02*
X27686000Y20574000D01*
X44958000Y19304000D02*
X28956000Y19304000D01*
X27686000Y20574000D02*
X23368000Y24892000D01*
X23368000Y24892000D02*
X23368000Y25908000D01*
X50292000Y30988000D02*
X53594000Y27686000D01*
X13363600Y41049600D02*
X13363600Y39162400D01*
X13363600Y39162400D02*
X21538000Y30988000D01*
X14478000Y42164000D02*
X13363600Y41049600D01*
X21538000Y30988000D02*
X50292000Y30988000D01*
X53594000Y27686000D02*
X53569972Y27661972D01*
X54610000Y24384000D02*
X54610000Y23876000D01*
X54356000Y27940000D02*
X54356000Y27686000D01*
X54356000Y24638000D02*
X54610000Y24384000D01*
X54610000Y23876000D02*
X57912000Y20574000D01*
X22348800Y31753200D02*
X50542800Y31753200D01*
X50542800Y31753200D02*
X51816000Y30480000D01*
X14478000Y39624000D02*
X22348800Y31753200D01*
X54356000Y27686000D02*
X54356000Y24638000D01*
X51816000Y30480000D02*
X54356000Y27940000D01*
X29464000Y32258000D02*
X51816000Y32258000D01*
X22098000Y39624000D02*
X29464000Y32258000D01*
G04 #@! TA.AperFunction,Conductor*
G36*
X67002563Y49999394D02*
G01*
X67217097Y49990520D01*
X67217381Y49990508D01*
X67413428Y49981948D01*
X67423357Y49981114D01*
X67636321Y49954568D01*
X67637169Y49954459D01*
X67834936Y49928422D01*
X67844196Y49926844D01*
X68053439Y49882971D01*
X68054832Y49882671D01*
X68250371Y49839321D01*
X68258914Y49837105D01*
X68463538Y49776186D01*
X68465444Y49775602D01*
X68656689Y49715302D01*
X68664475Y49712559D01*
X68863224Y49635008D01*
X68865603Y49634051D01*
X69050993Y49557260D01*
X69058001Y49554099D01*
X69249587Y49460437D01*
X69252383Y49459026D01*
X69430420Y49366346D01*
X69436636Y49362880D01*
X69619793Y49253743D01*
X69622944Y49251801D01*
X69659393Y49228581D01*
X69705358Y49175960D01*
X69715576Y49106841D01*
X69686804Y49043171D01*
X69628177Y49005163D01*
X69592769Y49000000D01*
X66039000Y49000000D01*
X66039000Y46341189D01*
X66019315Y46274150D01*
X65995534Y46246902D01*
X65983325Y46236474D01*
X65975691Y46230457D01*
X65959278Y46218533D01*
X65959276Y46218531D01*
X65944911Y46204166D01*
X65937790Y46197584D01*
X65864776Y46135224D01*
X65811368Y46072692D01*
X65802422Y46062217D01*
X65795813Y46055068D01*
X65781468Y46040723D01*
X65769539Y46024304D01*
X65763512Y46016660D01*
X65701171Y45943668D01*
X65701168Y45943663D01*
X65701164Y45943659D01*
X65701160Y45943652D01*
X65650993Y45861790D01*
X65645587Y45853698D01*
X65633666Y45837290D01*
X65632465Y45834932D01*
X65624456Y45819216D01*
X65619702Y45810728D01*
X65569532Y45728857D01*
X65532790Y45640153D01*
X65528716Y45631315D01*
X65519509Y45613244D01*
X65519507Y45613240D01*
X65519505Y45613233D01*
X65513234Y45593937D01*
X65509866Y45584809D01*
X65473127Y45496114D01*
X65450714Y45402756D01*
X65448072Y45393390D01*
X65441802Y45374090D01*
X65438627Y45354046D01*
X65436728Y45344500D01*
X65435027Y45337413D01*
X65414317Y45251148D01*
X65410828Y45206822D01*
X65406783Y45155429D01*
X65405638Y45145762D01*
X65402466Y45125734D01*
X65402466Y45105443D01*
X65402084Y45095715D01*
X65400832Y45079800D01*
X65394551Y44999999D01*
X65402084Y44904284D01*
X65402466Y44894555D01*
X65402466Y44874271D01*
X65405639Y44854237D01*
X65406783Y44844571D01*
X65414317Y44748851D01*
X65414318Y44748844D01*
X65436728Y44655499D01*
X65438627Y44645953D01*
X65441801Y44625913D01*
X65441803Y44625904D01*
X65448071Y44606615D01*
X65450714Y44597244D01*
X65473125Y44503891D01*
X65509868Y44415185D01*
X65513235Y44406059D01*
X65519507Y44386757D01*
X65528716Y44368682D01*
X65532787Y44359851D01*
X65569534Y44271141D01*
X65619700Y44189275D01*
X65624451Y44180792D01*
X65633662Y44162716D01*
X65633667Y44162709D01*
X65645589Y44146298D01*
X65650991Y44138212D01*
X65701165Y44056339D01*
X65763518Y43983332D01*
X65769541Y43975692D01*
X65781471Y43959273D01*
X65795823Y43944920D01*
X65802426Y43937777D01*
X65864774Y43864777D01*
X65864783Y43864768D01*
X65937778Y43802424D01*
X65944921Y43795821D01*
X65959273Y43781469D01*
X65975696Y43769537D01*
X65983334Y43763515D01*
X65995529Y43753100D01*
X66033724Y43694594D01*
X66039000Y43658808D01*
X66039000Y6341189D01*
X66019315Y6274150D01*
X65995534Y6246902D01*
X65983325Y6236474D01*
X65975691Y6230457D01*
X65959278Y6218533D01*
X65959276Y6218531D01*
X65944911Y6204166D01*
X65937790Y6197584D01*
X65864776Y6135224D01*
X65811368Y6072692D01*
X65802422Y6062217D01*
X65795813Y6055068D01*
X65781468Y6040723D01*
X65769539Y6024304D01*
X65763512Y6016660D01*
X65701171Y5943668D01*
X65701168Y5943663D01*
X65701164Y5943659D01*
X65701160Y5943652D01*
X65650993Y5861790D01*
X65645587Y5853698D01*
X65633666Y5837290D01*
X65630137Y5830364D01*
X65624456Y5819216D01*
X65619702Y5810728D01*
X65569532Y5728857D01*
X65532790Y5640153D01*
X65528716Y5631315D01*
X65526057Y5626096D01*
X65519507Y5613240D01*
X65519505Y5613233D01*
X65513234Y5593937D01*
X65509866Y5584809D01*
X65473127Y5496114D01*
X65450714Y5402756D01*
X65448072Y5393390D01*
X65441802Y5374090D01*
X65438627Y5354046D01*
X65436728Y5344500D01*
X65424901Y5295234D01*
X65414317Y5251148D01*
X65411252Y5212200D01*
X65406783Y5155429D01*
X65405638Y5145762D01*
X65402466Y5125734D01*
X65402466Y5105443D01*
X65402084Y5095715D01*
X65395599Y5013309D01*
X65394551Y4999999D01*
X65402084Y4904284D01*
X65402466Y4894555D01*
X65402466Y4874271D01*
X65405639Y4854237D01*
X65406783Y4844571D01*
X65414317Y4748851D01*
X65414318Y4748844D01*
X65436728Y4655499D01*
X65438627Y4645953D01*
X65441801Y4625913D01*
X65441803Y4625904D01*
X65448071Y4606615D01*
X65450714Y4597244D01*
X65473125Y4503891D01*
X65509868Y4415185D01*
X65513235Y4406059D01*
X65519507Y4386757D01*
X65528716Y4368682D01*
X65532787Y4359851D01*
X65569534Y4271141D01*
X65619700Y4189275D01*
X65624451Y4180792D01*
X65633662Y4162716D01*
X65633667Y4162709D01*
X65645589Y4146298D01*
X65650991Y4138212D01*
X65701165Y4056339D01*
X65763518Y3983332D01*
X65769541Y3975692D01*
X65781471Y3959273D01*
X65795823Y3944920D01*
X65802426Y3937777D01*
X65864774Y3864777D01*
X65864783Y3864768D01*
X65937778Y3802424D01*
X65944921Y3795821D01*
X65959273Y3781469D01*
X65975696Y3769537D01*
X65983334Y3763515D01*
X65995529Y3753100D01*
X66033724Y3694594D01*
X66039000Y3658808D01*
X66039000Y1000000D01*
X69592770Y1000000D01*
X69659809Y980315D01*
X69705564Y927511D01*
X69715508Y858353D01*
X69686483Y794797D01*
X69659398Y771420D01*
X69622900Y748169D01*
X69619793Y746255D01*
X69436636Y637118D01*
X69430420Y633652D01*
X69252383Y540972D01*
X69249587Y539561D01*
X69057972Y445886D01*
X69051024Y442752D01*
X68865513Y365911D01*
X68863363Y365046D01*
X68664453Y287431D01*
X68656696Y284698D01*
X68465325Y224359D01*
X68463665Y223850D01*
X68258901Y162889D01*
X68250386Y160680D01*
X68054765Y117312D01*
X68053521Y117044D01*
X67844192Y73153D01*
X67834945Y71577D01*
X67636793Y45490D01*
X67636743Y45483D01*
X67423330Y18881D01*
X67413455Y18052D01*
X67217600Y9500D01*
X67002563Y606D01*
X66997439Y500D01*
X58276015Y500D01*
X58208976Y20185D01*
X58163221Y72989D01*
X58153277Y142147D01*
X58182302Y205703D01*
X58210424Y229732D01*
X58275264Y270147D01*
X58275265Y270148D01*
X58422668Y410264D01*
X58422669Y410266D01*
X58538856Y577195D01*
X58619059Y764092D01*
X58660000Y963309D01*
X58660000Y1215000D01*
X57960000Y1215000D01*
X57960000Y1715000D01*
X58660000Y1715000D01*
X58660000Y1915713D01*
X58644581Y2067338D01*
X58583700Y2261381D01*
X58583695Y2261391D01*
X58484994Y2439215D01*
X58484994Y2439216D01*
X58352521Y2593530D01*
X58352520Y2593531D01*
X58191695Y2718018D01*
X58009092Y2807589D01*
X57910000Y2833244D01*
X57910000Y2031110D01*
X57885543Y2070610D01*
X57796038Y2138201D01*
X57688160Y2168895D01*
X57576479Y2158546D01*
X57476078Y2108552D01*
X57410000Y2036069D01*
X57410000Y2838366D01*
X57408055Y2838069D01*
X57408054Y2838069D01*
X57217339Y2767436D01*
X57217335Y2767434D01*
X57044732Y2659850D01*
X56897331Y2519735D01*
X56897330Y2519733D01*
X56781143Y2352804D01*
X56700940Y2165907D01*
X56660000Y1966690D01*
X56660000Y1715000D01*
X57360000Y1715000D01*
X57360000Y1215000D01*
X56660000Y1215000D01*
X56660000Y1014286D01*
X56675418Y862661D01*
X56736299Y668618D01*
X56736304Y668608D01*
X56835005Y490784D01*
X56835005Y490783D01*
X56967478Y336469D01*
X56967479Y336468D01*
X57114643Y222556D01*
X57155607Y165955D01*
X57159468Y96192D01*
X57124998Y35417D01*
X57063143Y2925D01*
X57038742Y500D01*
X49636015Y500D01*
X49568976Y20185D01*
X49523221Y72989D01*
X49513277Y142147D01*
X49542302Y205703D01*
X49570424Y229732D01*
X49635264Y270147D01*
X49635265Y270148D01*
X49782668Y410264D01*
X49782669Y410266D01*
X49898856Y577195D01*
X49979059Y764092D01*
X50020000Y963309D01*
X50020000Y1215000D01*
X49320000Y1215000D01*
X49320000Y1715000D01*
X50020000Y1715000D01*
X50020000Y1915713D01*
X50004581Y2067338D01*
X49943700Y2261381D01*
X49943695Y2261391D01*
X49844994Y2439215D01*
X49844994Y2439216D01*
X49712521Y2593530D01*
X49712520Y2593531D01*
X49551695Y2718018D01*
X49369092Y2807589D01*
X49270000Y2833244D01*
X49270000Y2031110D01*
X49245543Y2070610D01*
X49156038Y2138201D01*
X49048160Y2168895D01*
X48936479Y2158546D01*
X48836078Y2108552D01*
X48770000Y2036069D01*
X48770000Y2838366D01*
X48768055Y2838069D01*
X48768054Y2838069D01*
X48577339Y2767436D01*
X48577335Y2767434D01*
X48404732Y2659850D01*
X48257331Y2519735D01*
X48257330Y2519733D01*
X48141143Y2352804D01*
X48060940Y2165907D01*
X48020000Y1966690D01*
X48020000Y1715000D01*
X48720000Y1715000D01*
X48720000Y1215000D01*
X48020000Y1215000D01*
X48020000Y1014286D01*
X48035418Y862661D01*
X48096299Y668618D01*
X48096304Y668608D01*
X48195005Y490784D01*
X48195005Y490783D01*
X48327478Y336469D01*
X48327479Y336468D01*
X48474643Y222556D01*
X48515607Y165955D01*
X48519468Y96192D01*
X48484998Y35417D01*
X48423143Y2925D01*
X48398742Y500D01*
X5002561Y500D01*
X4997437Y606D01*
X4782628Y9490D01*
X4586540Y18052D01*
X4576673Y18881D01*
X4363195Y45491D01*
X4165045Y71578D01*
X4155816Y73151D01*
X3946392Y117062D01*
X3945302Y117297D01*
X3749599Y160684D01*
X3741111Y162885D01*
X3536253Y223875D01*
X3534743Y224337D01*
X3343284Y284704D01*
X3335565Y287423D01*
X3136564Y365074D01*
X3134553Y365883D01*
X2948951Y442762D01*
X2942051Y445874D01*
X2750357Y539587D01*
X2747667Y540945D01*
X2569551Y633667D01*
X2563373Y637111D01*
X2380139Y746295D01*
X2377129Y748150D01*
X2207697Y856090D01*
X2202316Y859721D01*
X2028764Y983635D01*
X2025433Y986102D01*
X1866048Y1108401D01*
X1861445Y1112114D01*
X1698758Y1249903D01*
X1695211Y1253027D01*
X1547028Y1388811D01*
X1543238Y1392440D01*
X1392440Y1543238D01*
X1388811Y1547028D01*
X1253027Y1695211D01*
X1249891Y1698772D01*
X1193445Y1765418D01*
X1112114Y1861445D01*
X1108401Y1866048D01*
X986102Y2025433D01*
X983635Y2028764D01*
X859721Y2202316D01*
X856090Y2207697D01*
X748150Y2377129D01*
X746295Y2380139D01*
X637111Y2563373D01*
X633667Y2569551D01*
X540945Y2747667D01*
X539587Y2750357D01*
X445874Y2942051D01*
X442762Y2948951D01*
X378485Y3104129D01*
X11101500Y3104129D01*
X11101501Y3104123D01*
X11107908Y3044516D01*
X11158202Y2909671D01*
X11158206Y2909664D01*
X11244452Y2794455D01*
X11244455Y2794452D01*
X11359664Y2708206D01*
X11359671Y2708202D01*
X11494517Y2657908D01*
X11494516Y2657908D01*
X11554116Y2651501D01*
X11554119Y2651500D01*
X11554127Y2651500D01*
X11554134Y2651500D01*
X11554135Y2651500D01*
X13149870Y2651500D01*
X13149876Y2651501D01*
X13209483Y2657908D01*
X13344328Y2708202D01*
X13344335Y2708206D01*
X13459544Y2794452D01*
X13459547Y2794455D01*
X13545793Y2909664D01*
X13545797Y2909671D01*
X13596091Y3044517D01*
X13602500Y3104127D01*
X13602500Y3845848D01*
X16101500Y3845848D01*
X16116622Y3677813D01*
X16116623Y3677807D01*
X16176503Y3460839D01*
X16176508Y3460826D01*
X16274167Y3258033D01*
X16274171Y3258025D01*
X16406473Y3075927D01*
X16406474Y3075925D01*
X16569176Y2920366D01*
X16757033Y2796363D01*
X16964004Y2707899D01*
X16964017Y2707895D01*
X17183457Y2657810D01*
X17183468Y2657808D01*
X17408325Y2647710D01*
X17408326Y2647710D01*
X17408330Y2647710D01*
X17631387Y2677925D01*
X17723631Y2707897D01*
X17845465Y2747483D01*
X18043678Y2854146D01*
X18043681Y2854148D01*
X18219663Y2994489D01*
X18219982Y2994854D01*
X18367765Y3164004D01*
X18483215Y3357236D01*
X18562307Y3567976D01*
X18574228Y3633666D01*
X18602500Y3789450D01*
X18602500Y3845870D01*
X21102000Y3845870D01*
X21117116Y3677903D01*
X21117117Y3677897D01*
X21176973Y3461015D01*
X21176978Y3461002D01*
X21274598Y3258291D01*
X21274602Y3258283D01*
X21406851Y3076258D01*
X21406857Y3076250D01*
X21569486Y2920762D01*
X21757266Y2796808D01*
X21964169Y2708375D01*
X21964176Y2708373D01*
X22101999Y2676915D01*
X22102000Y2676915D01*
X22102000Y4133177D01*
X22201895Y4091800D01*
X22314310Y4077000D01*
X22389690Y4077000D01*
X22502105Y4091800D01*
X22602000Y4133177D01*
X22602000Y2674449D01*
X22631278Y2678415D01*
X22845268Y2747945D01*
X23043401Y2854565D01*
X23043404Y2854567D01*
X23219320Y2994854D01*
X23314790Y3104129D01*
X29643500Y3104129D01*
X29643501Y3104123D01*
X29649908Y3044516D01*
X29700202Y2909671D01*
X29700206Y2909664D01*
X29786452Y2794455D01*
X29786455Y2794452D01*
X29901664Y2708206D01*
X29901671Y2708202D01*
X30036517Y2657908D01*
X30036516Y2657908D01*
X30096116Y2651501D01*
X30096119Y2651500D01*
X30096127Y2651500D01*
X30096134Y2651500D01*
X30096135Y2651500D01*
X31691870Y2651500D01*
X31691876Y2651501D01*
X31751483Y2657908D01*
X31886328Y2708202D01*
X31886335Y2708206D01*
X32001544Y2794452D01*
X32001547Y2794455D01*
X32087793Y2909664D01*
X32087797Y2909671D01*
X32138091Y3044517D01*
X32144500Y3104127D01*
X32144500Y3845848D01*
X34643500Y3845848D01*
X34658622Y3677813D01*
X34658623Y3677807D01*
X34718503Y3460839D01*
X34718508Y3460826D01*
X34816167Y3258033D01*
X34816171Y3258025D01*
X34948473Y3075927D01*
X34948474Y3075925D01*
X35111176Y2920366D01*
X35299033Y2796363D01*
X35506004Y2707899D01*
X35506017Y2707895D01*
X35725457Y2657810D01*
X35725468Y2657808D01*
X35950325Y2647710D01*
X35950326Y2647710D01*
X35950330Y2647710D01*
X36173387Y2677925D01*
X36265631Y2707897D01*
X36387465Y2747483D01*
X36585678Y2854146D01*
X36585681Y2854148D01*
X36761663Y2994489D01*
X36761982Y2994854D01*
X36909765Y3164004D01*
X37025215Y3357236D01*
X37104307Y3567976D01*
X37116228Y3633666D01*
X37144500Y3789450D01*
X37144500Y3845870D01*
X39644000Y3845870D01*
X39659116Y3677903D01*
X39659117Y3677897D01*
X39718973Y3461015D01*
X39718978Y3461002D01*
X39816598Y3258291D01*
X39816602Y3258283D01*
X39948851Y3076258D01*
X39948857Y3076250D01*
X40111486Y2920762D01*
X40299266Y2796808D01*
X40506169Y2708375D01*
X40506176Y2708373D01*
X40643999Y2676915D01*
X40644000Y2676915D01*
X40644000Y4133177D01*
X40743895Y4091800D01*
X40856310Y4077000D01*
X40931690Y4077000D01*
X41044105Y4091800D01*
X41144000Y4133177D01*
X41144000Y2674449D01*
X41173278Y2678415D01*
X41387268Y2747945D01*
X41585401Y2854565D01*
X41585404Y2854567D01*
X41761320Y2994854D01*
X41909352Y3164292D01*
X41909359Y3164300D01*
X42024759Y3357446D01*
X42024761Y3357451D01*
X42103824Y3568110D01*
X42103824Y3568111D01*
X42144000Y3789494D01*
X42144000Y4402000D01*
X41412823Y4402000D01*
X41454200Y4501895D01*
X41473962Y4652000D01*
X41454200Y4802105D01*
X41412823Y4902000D01*
X42144000Y4902000D01*
X42144000Y5064286D01*
X48020000Y5064286D01*
X48035418Y4912661D01*
X48096299Y4718618D01*
X48096304Y4718608D01*
X48195005Y4540784D01*
X48195005Y4540783D01*
X48327478Y4386469D01*
X48327479Y4386468D01*
X48488304Y4261981D01*
X48670906Y4172411D01*
X48770000Y4146753D01*
X48770000Y4948889D01*
X48794457Y4909390D01*
X48883962Y4841799D01*
X48991840Y4811105D01*
X49103521Y4821454D01*
X49203922Y4871448D01*
X49270000Y4943930D01*
X49270000Y4141633D01*
X49271946Y4141931D01*
X49271952Y4141933D01*
X49462657Y4212562D01*
X49462664Y4212565D01*
X49635267Y4320149D01*
X49782668Y4460264D01*
X49782669Y4460266D01*
X49898854Y4627193D01*
X49905463Y4642594D01*
X49949988Y4696439D01*
X50016556Y4717665D01*
X50084031Y4699532D01*
X50094902Y4692074D01*
X50159766Y4642302D01*
X50159769Y4642300D01*
X50299764Y4584313D01*
X50412272Y4569500D01*
X50412280Y4569500D01*
X50487727Y4569500D01*
X50586171Y4582461D01*
X50600236Y4584313D01*
X50740229Y4642300D01*
X50740233Y4642302D01*
X50860451Y4734549D01*
X50952698Y4854767D01*
X51010687Y4994764D01*
X51030466Y5144999D01*
X55649534Y5144999D01*
X55669312Y4994765D01*
X55669313Y4994763D01*
X55727300Y4854770D01*
X55727301Y4854767D01*
X55727302Y4854767D01*
X55819549Y4734549D01*
X55939386Y4642594D01*
X55939770Y4642300D01*
X56079764Y4584313D01*
X56192272Y4569500D01*
X56192280Y4569500D01*
X56267727Y4569500D01*
X56366171Y4582461D01*
X56380236Y4584313D01*
X56520229Y4642300D01*
X56520233Y4642302D01*
X56587364Y4693813D01*
X56652531Y4719007D01*
X56720976Y4704969D01*
X56770966Y4656155D01*
X56771268Y4655615D01*
X56835004Y4540784D01*
X56835005Y4540783D01*
X56967478Y4386469D01*
X56967479Y4386468D01*
X57128304Y4261981D01*
X57310906Y4172411D01*
X57410000Y4146753D01*
X57410000Y4948889D01*
X57434457Y4909390D01*
X57523962Y4841799D01*
X57631840Y4811105D01*
X57743521Y4821454D01*
X57843922Y4871448D01*
X57910000Y4943930D01*
X57910000Y4141633D01*
X57911946Y4141931D01*
X57911952Y4141933D01*
X58102657Y4212562D01*
X58102664Y4212565D01*
X58275267Y4320149D01*
X58422668Y4460264D01*
X58422669Y4460266D01*
X58538856Y4627195D01*
X58619059Y4814092D01*
X58660000Y5013309D01*
X58660000Y5415000D01*
X57960000Y5415000D01*
X57960000Y5915000D01*
X58660000Y5915000D01*
X58660000Y6265713D01*
X58644581Y6417338D01*
X58583700Y6611381D01*
X58583695Y6611391D01*
X58484994Y6789215D01*
X58484994Y6789216D01*
X58352521Y6943530D01*
X58352520Y6943531D01*
X58191695Y7068018D01*
X58009092Y7157589D01*
X57910000Y7183244D01*
X57910000Y6381110D01*
X57885543Y6420610D01*
X57796038Y6488201D01*
X57688160Y6518895D01*
X57576479Y6508546D01*
X57476078Y6458552D01*
X57410000Y6386069D01*
X57410000Y7188366D01*
X57408055Y7188069D01*
X57408054Y7188069D01*
X57217339Y7117436D01*
X57217335Y7117434D01*
X57044732Y7009850D01*
X56897331Y6869735D01*
X56897330Y6869733D01*
X56781143Y6702804D01*
X56700940Y6515907D01*
X56660000Y6316690D01*
X56660000Y5775384D01*
X56640315Y5708345D01*
X56587511Y5662590D01*
X56518353Y5652646D01*
X56488547Y5660823D01*
X56478083Y5665156D01*
X56380236Y5705687D01*
X56267720Y5720500D01*
X56192280Y5720500D01*
X56079764Y5705687D01*
X55939767Y5647698D01*
X55819549Y5555451D01*
X55727302Y5435233D01*
X55727300Y5435229D01*
X55669313Y5295236D01*
X55669312Y5295234D01*
X55649534Y5145000D01*
X55649534Y5144999D01*
X51030466Y5144999D01*
X51030466Y5145000D01*
X51010687Y5295236D01*
X50952698Y5435233D01*
X50860451Y5555451D01*
X50740233Y5647698D01*
X50600236Y5705687D01*
X50487720Y5720500D01*
X50412280Y5720500D01*
X50299764Y5705687D01*
X50248926Y5684629D01*
X50191453Y5660823D01*
X50121983Y5653354D01*
X50059504Y5684629D01*
X50023852Y5744718D01*
X50020000Y5775384D01*
X50020000Y6265713D01*
X50004581Y6417338D01*
X49943700Y6611381D01*
X49943695Y6611391D01*
X49844994Y6789215D01*
X49844994Y6789216D01*
X49712521Y6943530D01*
X49712520Y6943531D01*
X49551695Y7068018D01*
X49369092Y7157589D01*
X49270000Y7183244D01*
X49270000Y6381110D01*
X49245543Y6420610D01*
X49156038Y6488201D01*
X49048160Y6518895D01*
X48936479Y6508546D01*
X48836078Y6458552D01*
X48770000Y6386069D01*
X48770000Y7188366D01*
X48768055Y7188069D01*
X48768054Y7188069D01*
X48577339Y7117436D01*
X48577335Y7117434D01*
X48404732Y7009850D01*
X48257331Y6869735D01*
X48257330Y6869733D01*
X48141143Y6702804D01*
X48060940Y6515907D01*
X48020000Y6316690D01*
X48020000Y5915000D01*
X48720000Y5915000D01*
X48720000Y5415000D01*
X48020000Y5415000D01*
X48020000Y5064286D01*
X42144000Y5064286D01*
X42144000Y5458126D01*
X42143999Y5458129D01*
X42128883Y5626096D01*
X42128882Y5626102D01*
X42069026Y5842984D01*
X42069021Y5842997D01*
X41971401Y6045708D01*
X41971397Y6045716D01*
X41839148Y6227741D01*
X41839142Y6227749D01*
X41676513Y6383237D01*
X41488733Y6507191D01*
X41281830Y6595624D01*
X41281821Y6595627D01*
X41144000Y6627084D01*
X41144000Y5170822D01*
X41044105Y5212200D01*
X40931690Y5227000D01*
X40856310Y5227000D01*
X40743895Y5212200D01*
X40644000Y5170822D01*
X40644000Y6629550D01*
X40614732Y6625586D01*
X40614726Y6625585D01*
X40400731Y6556054D01*
X40202598Y6449434D01*
X40202595Y6449432D01*
X40026679Y6309145D01*
X39878647Y6139707D01*
X39878640Y6139699D01*
X39763240Y5946553D01*
X39763238Y5946548D01*
X39684175Y5735889D01*
X39684175Y5735888D01*
X39644000Y5514505D01*
X39644000Y4902000D01*
X40375177Y4902000D01*
X40333800Y4802105D01*
X40314038Y4652000D01*
X40333800Y4501895D01*
X40375177Y4402000D01*
X39644000Y4402000D01*
X39644000Y3845870D01*
X37144500Y3845870D01*
X37144500Y5458148D01*
X37144500Y5458155D01*
X37129377Y5626188D01*
X37107437Y5705686D01*
X37069496Y5843160D01*
X37069495Y5843162D01*
X37069493Y5843170D01*
X36971829Y6045973D01*
X36839522Y6228078D01*
X36676825Y6383632D01*
X36488968Y6507635D01*
X36443949Y6526877D01*
X36281995Y6596100D01*
X36281988Y6596103D01*
X36062537Y6646191D01*
X35837670Y6656290D01*
X35614613Y6626075D01*
X35400536Y6556517D01*
X35400534Y6556516D01*
X35325070Y6515907D01*
X35202319Y6449852D01*
X35178012Y6430468D01*
X35026336Y6309510D01*
X35026334Y6309508D01*
X34878235Y6139996D01*
X34762785Y5946764D01*
X34760308Y5940163D01*
X34683692Y5736023D01*
X34643500Y5514549D01*
X34643500Y3845848D01*
X32144500Y3845848D01*
X32144499Y6199872D01*
X32138091Y6259483D01*
X32087796Y6394331D01*
X32001546Y6509546D01*
X31886331Y6595796D01*
X31751483Y6646091D01*
X31691873Y6652500D01*
X30096128Y6652499D01*
X30047757Y6647299D01*
X30036516Y6646091D01*
X29901671Y6595797D01*
X29901664Y6595793D01*
X29786455Y6509547D01*
X29786452Y6509544D01*
X29700206Y6394335D01*
X29700202Y6394328D01*
X29649908Y6259482D01*
X29643501Y6199883D01*
X29643501Y6199876D01*
X29643500Y6199864D01*
X29643500Y3104129D01*
X23314790Y3104129D01*
X23367352Y3164292D01*
X23367359Y3164300D01*
X23482759Y3357446D01*
X23482761Y3357451D01*
X23561824Y3568110D01*
X23561824Y3568111D01*
X23602000Y3789494D01*
X23602000Y4402000D01*
X22870823Y4402000D01*
X22912200Y4501895D01*
X22931962Y4652000D01*
X22912200Y4802105D01*
X22870823Y4902000D01*
X23602000Y4902000D01*
X23602000Y5458126D01*
X23601999Y5458129D01*
X23586883Y5626096D01*
X23586882Y5626102D01*
X23527026Y5842984D01*
X23527021Y5842997D01*
X23429401Y6045708D01*
X23429397Y6045716D01*
X23297148Y6227741D01*
X23297142Y6227749D01*
X23134513Y6383237D01*
X22946733Y6507191D01*
X22739830Y6595624D01*
X22739821Y6595627D01*
X22602000Y6627084D01*
X22602000Y5170822D01*
X22502105Y5212200D01*
X22389690Y5227000D01*
X22314310Y5227000D01*
X22201895Y5212200D01*
X22102000Y5170822D01*
X22102000Y6629550D01*
X22072732Y6625586D01*
X22072726Y6625585D01*
X21858731Y6556054D01*
X21660598Y6449434D01*
X21660595Y6449432D01*
X21484679Y6309145D01*
X21336647Y6139707D01*
X21336640Y6139699D01*
X21221240Y5946553D01*
X21221238Y5946548D01*
X21142175Y5735889D01*
X21142175Y5735888D01*
X21102000Y5514505D01*
X21102000Y4902000D01*
X21833177Y4902000D01*
X21791800Y4802105D01*
X21772038Y4652000D01*
X21791800Y4501895D01*
X21833177Y4402000D01*
X21102000Y4402000D01*
X21102000Y3845870D01*
X18602500Y3845870D01*
X18602500Y5458148D01*
X18602500Y5458155D01*
X18587377Y5626188D01*
X18565437Y5705686D01*
X18527496Y5843160D01*
X18527495Y5843162D01*
X18527493Y5843170D01*
X18429829Y6045973D01*
X18297522Y6228078D01*
X18134825Y6383632D01*
X17946968Y6507635D01*
X17901949Y6526877D01*
X17739995Y6596100D01*
X17739988Y6596103D01*
X17520537Y6646191D01*
X17295670Y6656290D01*
X17072613Y6626075D01*
X16858536Y6556517D01*
X16858534Y6556516D01*
X16783070Y6515907D01*
X16660319Y6449852D01*
X16636012Y6430468D01*
X16484336Y6309510D01*
X16484334Y6309508D01*
X16336235Y6139996D01*
X16220785Y5946764D01*
X16218308Y5940163D01*
X16141692Y5736023D01*
X16101500Y5514549D01*
X16101500Y3845848D01*
X13602500Y3845848D01*
X13602499Y6199872D01*
X13596091Y6259483D01*
X13545796Y6394331D01*
X13459546Y6509546D01*
X13344331Y6595796D01*
X13209483Y6646091D01*
X13149873Y6652500D01*
X11554128Y6652499D01*
X11505757Y6647299D01*
X11494516Y6646091D01*
X11359671Y6595797D01*
X11359664Y6595793D01*
X11244455Y6509547D01*
X11244452Y6509544D01*
X11158206Y6394335D01*
X11158202Y6394328D01*
X11107908Y6259482D01*
X11101501Y6199883D01*
X11101501Y6199876D01*
X11101500Y6199864D01*
X11101500Y3104129D01*
X378485Y3104129D01*
X365883Y3134553D01*
X365074Y3136564D01*
X287423Y3335565D01*
X284704Y3343284D01*
X224337Y3534743D01*
X223875Y3536253D01*
X162885Y3741111D01*
X160684Y3749599D01*
X117297Y3945302D01*
X117062Y3946392D01*
X73151Y4155816D01*
X71578Y4165045D01*
X45491Y4363195D01*
X18881Y4576673D01*
X18052Y4586540D01*
X9491Y4782596D01*
X605Y4997437D01*
X552Y4999999D01*
X3394551Y4999999D01*
X3402084Y4904284D01*
X3402466Y4894555D01*
X3402466Y4874271D01*
X3405639Y4854237D01*
X3406783Y4844571D01*
X3414317Y4748851D01*
X3414318Y4748844D01*
X3436728Y4655499D01*
X3438627Y4645953D01*
X3441801Y4625913D01*
X3441803Y4625904D01*
X3448071Y4606615D01*
X3450714Y4597244D01*
X3473125Y4503891D01*
X3509868Y4415185D01*
X3513235Y4406059D01*
X3519507Y4386757D01*
X3528716Y4368682D01*
X3532787Y4359851D01*
X3569534Y4271141D01*
X3619700Y4189275D01*
X3624451Y4180792D01*
X3633662Y4162716D01*
X3633667Y4162709D01*
X3645589Y4146298D01*
X3650991Y4138212D01*
X3701165Y4056339D01*
X3763518Y3983332D01*
X3769541Y3975692D01*
X3781468Y3959276D01*
X3795825Y3944918D01*
X3802425Y3937777D01*
X3864775Y3864775D01*
X3937777Y3802425D01*
X3944918Y3795825D01*
X3959276Y3781468D01*
X3975692Y3769541D01*
X3983332Y3763518D01*
X4056339Y3701165D01*
X4138212Y3650991D01*
X4146298Y3645589D01*
X4162709Y3633667D01*
X4162716Y3633662D01*
X4180792Y3624451D01*
X4189275Y3619700D01*
X4249433Y3582836D01*
X4271141Y3569534D01*
X4359851Y3532787D01*
X4368682Y3528716D01*
X4386757Y3519507D01*
X4406059Y3513235D01*
X4415185Y3509868D01*
X4503891Y3473125D01*
X4597244Y3450714D01*
X4606615Y3448071D01*
X4625904Y3441803D01*
X4625913Y3441801D01*
X4645953Y3438627D01*
X4655499Y3436728D01*
X4748844Y3414318D01*
X4748851Y3414317D01*
X4844571Y3406783D01*
X4854237Y3405639D01*
X4857612Y3405104D01*
X4874271Y3402466D01*
X4874272Y3402466D01*
X4894557Y3402466D01*
X4904284Y3402084D01*
X5000000Y3394551D01*
X5095715Y3402084D01*
X5105443Y3402466D01*
X5125734Y3402466D01*
X5145762Y3405638D01*
X5155429Y3406783D01*
X5205531Y3410726D01*
X5251148Y3414317D01*
X5251151Y3414317D01*
X5251153Y3414318D01*
X5344500Y3436728D01*
X5354046Y3438627D01*
X5374090Y3441802D01*
X5393390Y3448072D01*
X5402756Y3450714D01*
X5496114Y3473127D01*
X5584809Y3509866D01*
X5593937Y3513234D01*
X5609199Y3518194D01*
X5613240Y3519507D01*
X5613244Y3519509D01*
X5631315Y3528716D01*
X5640153Y3532790D01*
X5728857Y3569532D01*
X5810728Y3619702D01*
X5819216Y3624456D01*
X5830364Y3630137D01*
X5837290Y3633666D01*
X5853701Y3645589D01*
X5861790Y3650993D01*
X5943652Y3701160D01*
X5943659Y3701164D01*
X5943663Y3701168D01*
X5943668Y3701171D01*
X6016660Y3763512D01*
X6024304Y3769539D01*
X6040723Y3781468D01*
X6055068Y3795813D01*
X6062217Y3802422D01*
X6135223Y3864775D01*
X6138817Y3868983D01*
X6197584Y3937790D01*
X6204179Y3944924D01*
X6218529Y3959274D01*
X6218531Y3959276D01*
X6230463Y3975699D01*
X6236480Y3983332D01*
X6298836Y4056341D01*
X6298838Y4056344D01*
X6298839Y4056345D01*
X6349001Y4138202D01*
X6354408Y4146295D01*
X6366334Y4162710D01*
X6371277Y4172411D01*
X6375550Y4180798D01*
X6380298Y4189275D01*
X6430466Y4271141D01*
X6450766Y4320149D01*
X6467208Y4359843D01*
X6471283Y4368684D01*
X6480344Y4386468D01*
X6480493Y4386760D01*
X6486766Y4406066D01*
X6490122Y4415166D01*
X6526873Y4503889D01*
X6549286Y4597247D01*
X6551927Y4606610D01*
X6558198Y4625910D01*
X6558199Y4625914D01*
X6561371Y4645946D01*
X6563265Y4655477D01*
X6585683Y4748852D01*
X6593217Y4844588D01*
X6594355Y4854199D01*
X6597534Y4874271D01*
X6598119Y4904133D01*
X6598476Y4911402D01*
X6605449Y5000000D01*
X6598476Y5088599D01*
X6598119Y5095880D01*
X6597534Y5125721D01*
X6597534Y5125729D01*
X6594355Y5145800D01*
X6593216Y5155429D01*
X6585683Y5251148D01*
X6563264Y5344527D01*
X6561373Y5354040D01*
X6558198Y5374090D01*
X6551923Y5393400D01*
X6549285Y5402756D01*
X6533113Y5470118D01*
X6526877Y5496096D01*
X6526875Y5496100D01*
X6526873Y5496111D01*
X6490113Y5584855D01*
X6486770Y5593921D01*
X6480493Y5613240D01*
X6471270Y5631341D01*
X6467221Y5640123D01*
X6430466Y5728859D01*
X6380286Y5810744D01*
X6375554Y5819193D01*
X6366334Y5837290D01*
X6354401Y5853714D01*
X6349011Y5861780D01*
X6298836Y5943659D01*
X6236462Y6016688D01*
X6230476Y6024282D01*
X6218531Y6040724D01*
X6204171Y6055083D01*
X6197596Y6062194D01*
X6135224Y6135224D01*
X6062194Y6197596D01*
X6055083Y6204171D01*
X6040724Y6218531D01*
X6024282Y6230476D01*
X6016688Y6236462D01*
X5943659Y6298836D01*
X5861780Y6349011D01*
X5853714Y6354401D01*
X5837290Y6366334D01*
X5819193Y6375554D01*
X5810744Y6380286D01*
X5728859Y6430466D01*
X5640123Y6467221D01*
X5631341Y6471270D01*
X5613240Y6480493D01*
X5593921Y6486770D01*
X5584855Y6490113D01*
X5496111Y6526873D01*
X5496100Y6526875D01*
X5496096Y6526877D01*
X5470118Y6533113D01*
X5402745Y6549287D01*
X5393400Y6551923D01*
X5374090Y6558198D01*
X5354040Y6561373D01*
X5344527Y6563264D01*
X5251148Y6585683D01*
X5155408Y6593217D01*
X5145803Y6594354D01*
X5125729Y6597534D01*
X5125725Y6597534D01*
X5105443Y6597534D01*
X5095715Y6597915D01*
X5000000Y6605449D01*
X4904284Y6597915D01*
X4894557Y6597534D01*
X4874275Y6597534D01*
X4874271Y6597534D01*
X4854196Y6594354D01*
X4844591Y6593217D01*
X4748852Y6585683D01*
X4655477Y6563265D01*
X4645954Y6561372D01*
X4636176Y6559824D01*
X4625914Y6558199D01*
X4625910Y6558198D01*
X4606610Y6551927D01*
X4597247Y6549286D01*
X4503889Y6526873D01*
X4415166Y6490122D01*
X4406066Y6486766D01*
X4386760Y6480493D01*
X4373290Y6473629D01*
X4368684Y6471283D01*
X4359843Y6467208D01*
X4316929Y6449432D01*
X4271141Y6430466D01*
X4189260Y6380289D01*
X4180798Y6375550D01*
X4162714Y6366336D01*
X4162710Y6366334D01*
X4146295Y6354408D01*
X4138202Y6349001D01*
X4056345Y6298839D01*
X4056344Y6298838D01*
X4056341Y6298836D01*
X3983327Y6236476D01*
X3975699Y6230463D01*
X3959276Y6218531D01*
X3959274Y6218529D01*
X3944924Y6204179D01*
X3937790Y6197584D01*
X3870025Y6139707D01*
X3864775Y6135223D01*
X3802422Y6062217D01*
X3795813Y6055068D01*
X3781468Y6040723D01*
X3769539Y6024304D01*
X3763512Y6016660D01*
X3701171Y5943668D01*
X3701168Y5943663D01*
X3701164Y5943659D01*
X3701160Y5943652D01*
X3650993Y5861790D01*
X3645587Y5853698D01*
X3633666Y5837290D01*
X3630137Y5830364D01*
X3624456Y5819216D01*
X3619702Y5810728D01*
X3569532Y5728857D01*
X3532790Y5640153D01*
X3528716Y5631315D01*
X3526057Y5626096D01*
X3519507Y5613240D01*
X3519505Y5613233D01*
X3513234Y5593937D01*
X3509866Y5584809D01*
X3473127Y5496114D01*
X3450714Y5402756D01*
X3448072Y5393390D01*
X3441802Y5374090D01*
X3438627Y5354046D01*
X3436728Y5344500D01*
X3424901Y5295234D01*
X3414317Y5251148D01*
X3411252Y5212200D01*
X3406783Y5155429D01*
X3405638Y5145762D01*
X3402466Y5125734D01*
X3402466Y5105443D01*
X3402084Y5095715D01*
X3395599Y5013309D01*
X3394551Y4999999D01*
X552Y4999999D01*
X500Y5002561D01*
X500Y7620000D01*
X50148540Y7620000D01*
X50168326Y7431744D01*
X50168326Y7431741D01*
X50168327Y7431740D01*
X50226818Y7251722D01*
X50226821Y7251715D01*
X50321466Y7087785D01*
X50448129Y6947111D01*
X50601265Y6835851D01*
X50601270Y6835848D01*
X50774192Y6758857D01*
X50774197Y6758855D01*
X50926897Y6726398D01*
X50959354Y6719500D01*
X50959355Y6719500D01*
X51148645Y6719500D01*
X51148646Y6719500D01*
X51188001Y6727865D01*
X51333802Y6758855D01*
X51333807Y6758857D01*
X51506729Y6835848D01*
X51506734Y6835851D01*
X51584867Y6892618D01*
X51650673Y6916098D01*
X51657752Y6916300D01*
X55022248Y6916300D01*
X55089287Y6896615D01*
X55095133Y6892618D01*
X55173265Y6835851D01*
X55173270Y6835848D01*
X55346192Y6758857D01*
X55346197Y6758855D01*
X55498897Y6726398D01*
X55531354Y6719500D01*
X55531355Y6719500D01*
X55720645Y6719500D01*
X55720646Y6719500D01*
X55760001Y6727865D01*
X55905802Y6758855D01*
X55905807Y6758857D01*
X56078729Y6835848D01*
X56078734Y6835851D01*
X56231870Y6947111D01*
X56231871Y6947112D01*
X56358533Y7087784D01*
X56453179Y7251716D01*
X56511674Y7431744D01*
X56531460Y7620000D01*
X56511674Y7808256D01*
X56453179Y7988284D01*
X56358533Y8152216D01*
X56231871Y8292888D01*
X56078730Y8404151D01*
X55905803Y8481144D01*
X55720646Y8520500D01*
X55531354Y8520500D01*
X55423147Y8497500D01*
X55346197Y8481144D01*
X55346192Y8481142D01*
X55173270Y8404151D01*
X55173265Y8404148D01*
X55095133Y8347382D01*
X55029327Y8323902D01*
X55022248Y8323700D01*
X51657752Y8323700D01*
X51590713Y8343385D01*
X51584867Y8347382D01*
X51506734Y8404148D01*
X51506730Y8404151D01*
X51333803Y8481144D01*
X51148646Y8520500D01*
X50959354Y8520500D01*
X50851147Y8497500D01*
X50774197Y8481144D01*
X50774192Y8481142D01*
X50601270Y8404151D01*
X50601265Y8404148D01*
X50517632Y8343385D01*
X50448129Y8292888D01*
X50321467Y8152216D01*
X50230614Y7994854D01*
X50226821Y7988284D01*
X50226818Y7988277D01*
X50182491Y7851851D01*
X50168326Y7808256D01*
X50148540Y7620000D01*
X500Y7620000D01*
X500Y8104129D01*
X11101500Y8104129D01*
X11101501Y8104123D01*
X11107908Y8044516D01*
X11158202Y7909671D01*
X11158206Y7909664D01*
X11244452Y7794455D01*
X11244455Y7794452D01*
X11359664Y7708206D01*
X11359671Y7708202D01*
X11494517Y7657908D01*
X11494516Y7657908D01*
X11554116Y7651501D01*
X11554119Y7651500D01*
X11554127Y7651500D01*
X11554134Y7651500D01*
X11554135Y7651500D01*
X13149870Y7651500D01*
X13149876Y7651501D01*
X13209483Y7657908D01*
X13344328Y7708202D01*
X13344335Y7708206D01*
X13459544Y7794452D01*
X13459547Y7794455D01*
X13545793Y7909664D01*
X13545797Y7909671D01*
X13596091Y8044517D01*
X13597985Y8062135D01*
X13602500Y8104127D01*
X13602500Y8845848D01*
X16101500Y8845848D01*
X16116622Y8677813D01*
X16116623Y8677807D01*
X16176503Y8460839D01*
X16176508Y8460826D01*
X16274167Y8258033D01*
X16274171Y8258025D01*
X16406473Y8075927D01*
X16406474Y8075925D01*
X16569176Y7920366D01*
X16757033Y7796363D01*
X16964004Y7707899D01*
X16964017Y7707895D01*
X17183457Y7657810D01*
X17183468Y7657808D01*
X17408325Y7647710D01*
X17408326Y7647710D01*
X17408330Y7647710D01*
X17631387Y7677925D01*
X17723631Y7707897D01*
X17845465Y7747483D01*
X18043678Y7854146D01*
X18043681Y7854148D01*
X18219663Y7994489D01*
X18219982Y7994854D01*
X18367765Y8164004D01*
X18483215Y8357236D01*
X18562307Y8567976D01*
X18582255Y8677897D01*
X18602500Y8789450D01*
X18602500Y8845870D01*
X21102000Y8845870D01*
X21117116Y8677903D01*
X21117117Y8677897D01*
X21176973Y8461015D01*
X21176978Y8461002D01*
X21274598Y8258291D01*
X21274602Y8258283D01*
X21406851Y8076258D01*
X21406857Y8076250D01*
X21569486Y7920762D01*
X21757266Y7796808D01*
X21964169Y7708375D01*
X21964176Y7708373D01*
X22101999Y7676915D01*
X22102000Y7676915D01*
X22102000Y9133177D01*
X22201895Y9091800D01*
X22314310Y9077000D01*
X22389690Y9077000D01*
X22502105Y9091800D01*
X22602000Y9133177D01*
X22602000Y7674449D01*
X22631278Y7678415D01*
X22845268Y7747945D01*
X23043401Y7854565D01*
X23043404Y7854567D01*
X23219320Y7994854D01*
X23314790Y8104129D01*
X29643500Y8104129D01*
X29643501Y8104123D01*
X29649908Y8044516D01*
X29700202Y7909671D01*
X29700206Y7909664D01*
X29786452Y7794455D01*
X29786455Y7794452D01*
X29901664Y7708206D01*
X29901671Y7708202D01*
X30036517Y7657908D01*
X30036516Y7657908D01*
X30096116Y7651501D01*
X30096119Y7651500D01*
X30096127Y7651500D01*
X30096134Y7651500D01*
X30096135Y7651500D01*
X31691870Y7651500D01*
X31691876Y7651501D01*
X31751483Y7657908D01*
X31886328Y7708202D01*
X31886335Y7708206D01*
X32001544Y7794452D01*
X32001547Y7794455D01*
X32087793Y7909664D01*
X32087797Y7909671D01*
X32138091Y8044517D01*
X32139985Y8062135D01*
X32144500Y8104127D01*
X32144500Y8845848D01*
X34643500Y8845848D01*
X34658622Y8677813D01*
X34658623Y8677807D01*
X34718503Y8460839D01*
X34718508Y8460826D01*
X34816167Y8258033D01*
X34816171Y8258025D01*
X34948473Y8075927D01*
X34948474Y8075925D01*
X35111176Y7920366D01*
X35299033Y7796363D01*
X35506004Y7707899D01*
X35506017Y7707895D01*
X35725457Y7657810D01*
X35725468Y7657808D01*
X35950325Y7647710D01*
X35950326Y7647710D01*
X35950330Y7647710D01*
X36173387Y7677925D01*
X36265631Y7707897D01*
X36387465Y7747483D01*
X36585678Y7854146D01*
X36585681Y7854148D01*
X36761663Y7994489D01*
X36761982Y7994854D01*
X36909765Y8164004D01*
X37025215Y8357236D01*
X37104307Y8567976D01*
X37124255Y8677897D01*
X37144500Y8789450D01*
X37144500Y8845870D01*
X39644000Y8845870D01*
X39659116Y8677903D01*
X39659117Y8677897D01*
X39718973Y8461015D01*
X39718978Y8461002D01*
X39816598Y8258291D01*
X39816602Y8258283D01*
X39948851Y8076258D01*
X39948857Y8076250D01*
X40111486Y7920762D01*
X40299266Y7796808D01*
X40506169Y7708375D01*
X40506176Y7708373D01*
X40643999Y7676915D01*
X40644000Y7676915D01*
X40644000Y9133177D01*
X40743895Y9091800D01*
X40856310Y9077000D01*
X40931690Y9077000D01*
X41044105Y9091800D01*
X41144000Y9133177D01*
X41144000Y7674449D01*
X41173278Y7678415D01*
X41387268Y7747945D01*
X41585401Y7854565D01*
X41585404Y7854567D01*
X41761320Y7994854D01*
X41909352Y8164292D01*
X41909359Y8164300D01*
X42024759Y8357446D01*
X42024761Y8357451D01*
X42103824Y8568110D01*
X42103824Y8568111D01*
X42144000Y8789494D01*
X42144000Y9402000D01*
X41412823Y9402000D01*
X41454200Y9501895D01*
X41473962Y9652000D01*
X41454200Y9802105D01*
X41412823Y9902000D01*
X42144000Y9902000D01*
X42144000Y10458126D01*
X42143999Y10458129D01*
X42128883Y10626096D01*
X42128882Y10626102D01*
X42069026Y10842984D01*
X42069021Y10842997D01*
X41971401Y11045708D01*
X41971397Y11045716D01*
X41839148Y11227741D01*
X41839142Y11227749D01*
X41676513Y11383237D01*
X41488733Y11507191D01*
X41281830Y11595624D01*
X41281821Y11595627D01*
X41144000Y11627084D01*
X41144000Y10170822D01*
X41044105Y10212200D01*
X40931690Y10227000D01*
X40856310Y10227000D01*
X40743895Y10212200D01*
X40644000Y10170822D01*
X40644000Y11629550D01*
X40614732Y11625586D01*
X40614726Y11625585D01*
X40400731Y11556054D01*
X40202598Y11449434D01*
X40202595Y11449432D01*
X40026679Y11309145D01*
X39878647Y11139707D01*
X39878640Y11139699D01*
X39763240Y10946553D01*
X39763238Y10946548D01*
X39684175Y10735889D01*
X39684175Y10735888D01*
X39644000Y10514505D01*
X39644000Y9902000D01*
X40375177Y9902000D01*
X40333800Y9802105D01*
X40314038Y9652000D01*
X40333800Y9501895D01*
X40375177Y9402000D01*
X39644000Y9402000D01*
X39644000Y8845870D01*
X37144500Y8845870D01*
X37144500Y10458148D01*
X37144500Y10458155D01*
X37129377Y10626188D01*
X37100802Y10729727D01*
X37069496Y10843160D01*
X37069495Y10843162D01*
X37069493Y10843170D01*
X36971829Y11045973D01*
X36839522Y11228078D01*
X36676825Y11383632D01*
X36488968Y11507635D01*
X36281988Y11596103D01*
X36062537Y11646191D01*
X35837670Y11656290D01*
X35614613Y11626075D01*
X35400536Y11556517D01*
X35400534Y11556516D01*
X35313251Y11509547D01*
X35202319Y11449852D01*
X35143657Y11403070D01*
X35026336Y11309510D01*
X35026334Y11309508D01*
X34878235Y11139996D01*
X34762785Y10946764D01*
X34740169Y10886504D01*
X34683692Y10736023D01*
X34643500Y10514549D01*
X34643500Y8845848D01*
X32144500Y8845848D01*
X32144499Y11199872D01*
X32138091Y11259483D01*
X32087796Y11394331D01*
X32001546Y11509546D01*
X31886331Y11595796D01*
X31751483Y11646091D01*
X31691873Y11652500D01*
X30096128Y11652499D01*
X30047757Y11647299D01*
X30036516Y11646091D01*
X29901671Y11595797D01*
X29901664Y11595793D01*
X29786455Y11509547D01*
X29786452Y11509544D01*
X29700206Y11394335D01*
X29700202Y11394328D01*
X29649908Y11259482D01*
X29646497Y11227749D01*
X29643501Y11199876D01*
X29643500Y11199864D01*
X29643500Y8104129D01*
X23314790Y8104129D01*
X23367352Y8164292D01*
X23367359Y8164300D01*
X23482759Y8357446D01*
X23482761Y8357451D01*
X23561824Y8568110D01*
X23561824Y8568111D01*
X23602000Y8789494D01*
X23602000Y9402000D01*
X22870823Y9402000D01*
X22912200Y9501895D01*
X22931962Y9652000D01*
X22912200Y9802105D01*
X22870823Y9902000D01*
X23602000Y9902000D01*
X23602000Y10458126D01*
X23601999Y10458129D01*
X23586883Y10626096D01*
X23586882Y10626102D01*
X23527026Y10842984D01*
X23527021Y10842997D01*
X23429401Y11045708D01*
X23429397Y11045716D01*
X23297148Y11227741D01*
X23297142Y11227749D01*
X23134513Y11383237D01*
X22946733Y11507191D01*
X22739830Y11595624D01*
X22739821Y11595627D01*
X22602000Y11627084D01*
X22602000Y10170822D01*
X22502105Y10212200D01*
X22389690Y10227000D01*
X22314310Y10227000D01*
X22201895Y10212200D01*
X22102000Y10170822D01*
X22102000Y11629550D01*
X22072732Y11625586D01*
X22072726Y11625585D01*
X21858731Y11556054D01*
X21660598Y11449434D01*
X21660595Y11449432D01*
X21484679Y11309145D01*
X21336647Y11139707D01*
X21336640Y11139699D01*
X21221240Y10946553D01*
X21221238Y10946548D01*
X21142175Y10735889D01*
X21142175Y10735888D01*
X21102000Y10514505D01*
X21102000Y9902000D01*
X21833177Y9902000D01*
X21791800Y9802105D01*
X21772038Y9652000D01*
X21791800Y9501895D01*
X21833177Y9402000D01*
X21102000Y9402000D01*
X21102000Y8845870D01*
X18602500Y8845870D01*
X18602500Y10458148D01*
X18602500Y10458155D01*
X18587377Y10626188D01*
X18558802Y10729727D01*
X18527496Y10843160D01*
X18527495Y10843162D01*
X18527493Y10843170D01*
X18429829Y11045973D01*
X18297522Y11228078D01*
X18134825Y11383632D01*
X17946968Y11507635D01*
X17739988Y11596103D01*
X17520537Y11646191D01*
X17295670Y11656290D01*
X17072613Y11626075D01*
X16858536Y11556517D01*
X16858534Y11556516D01*
X16771251Y11509547D01*
X16660319Y11449852D01*
X16601657Y11403070D01*
X16484336Y11309510D01*
X16484334Y11309508D01*
X16336235Y11139996D01*
X16220785Y10946764D01*
X16198169Y10886504D01*
X16141692Y10736023D01*
X16101500Y10514549D01*
X16101500Y8845848D01*
X13602500Y8845848D01*
X13602499Y11199872D01*
X13596091Y11259483D01*
X13545796Y11394331D01*
X13459546Y11509546D01*
X13344331Y11595796D01*
X13209483Y11646091D01*
X13149873Y11652500D01*
X11554128Y11652499D01*
X11505757Y11647299D01*
X11494516Y11646091D01*
X11359671Y11595797D01*
X11359664Y11595793D01*
X11244455Y11509547D01*
X11244452Y11509544D01*
X11158206Y11394335D01*
X11158202Y11394328D01*
X11107908Y11259482D01*
X11104497Y11227749D01*
X11101501Y11199876D01*
X11101500Y11199864D01*
X11101500Y8104129D01*
X500Y8104129D01*
X500Y20807999D01*
X2642449Y20807999D01*
X2646415Y20778721D01*
X2715945Y20564731D01*
X2822565Y20366598D01*
X2822567Y20366595D01*
X2962854Y20190679D01*
X3132292Y20042647D01*
X3132300Y20042640D01*
X3325446Y19927240D01*
X3325451Y19927238D01*
X3536110Y19848175D01*
X3757494Y19808000D01*
X4370000Y19808000D01*
X4370000Y20539177D01*
X4469895Y20497800D01*
X4582310Y20483000D01*
X4657690Y20483000D01*
X4770105Y20497800D01*
X4870000Y20539177D01*
X4870000Y19808000D01*
X5426129Y19808000D01*
X5594096Y19823116D01*
X5594102Y19823117D01*
X5810984Y19882973D01*
X5810997Y19882978D01*
X6013708Y19980598D01*
X6013716Y19980602D01*
X6195741Y20112851D01*
X6195749Y20112857D01*
X6351237Y20275486D01*
X6475191Y20463266D01*
X6563624Y20670169D01*
X6563627Y20670178D01*
X6595084Y20807999D01*
X7642449Y20807999D01*
X7646415Y20778721D01*
X7715945Y20564731D01*
X7822565Y20366598D01*
X7822567Y20366595D01*
X7962854Y20190679D01*
X8132292Y20042647D01*
X8132300Y20042640D01*
X8325446Y19927240D01*
X8325451Y19927238D01*
X8536110Y19848175D01*
X8757494Y19808000D01*
X9370000Y19808000D01*
X9370000Y20539177D01*
X9469895Y20497800D01*
X9582310Y20483000D01*
X9657690Y20483000D01*
X9770105Y20497800D01*
X9870000Y20539177D01*
X9870000Y19808000D01*
X10426129Y19808000D01*
X10594096Y19823116D01*
X10594102Y19823117D01*
X10810984Y19882973D01*
X10810997Y19882978D01*
X11013708Y19980598D01*
X11013716Y19980602D01*
X11195741Y20112851D01*
X11195749Y20112857D01*
X11351237Y20275486D01*
X11475191Y20463266D01*
X11563624Y20670169D01*
X11563627Y20670178D01*
X11595084Y20808000D01*
X10138823Y20808000D01*
X10180200Y20907895D01*
X10199962Y21058000D01*
X10180200Y21208105D01*
X10138823Y21308000D01*
X11597550Y21308000D01*
X11593584Y21337278D01*
X11524054Y21551268D01*
X11417434Y21749401D01*
X11417432Y21749404D01*
X11277145Y21925320D01*
X11107707Y22073352D01*
X11107699Y22073359D01*
X10914553Y22188759D01*
X10914548Y22188761D01*
X10703889Y22267824D01*
X10482506Y22308000D01*
X9870000Y22308000D01*
X9870000Y21576822D01*
X9770105Y21618200D01*
X9657690Y21633000D01*
X9582310Y21633000D01*
X9469895Y21618200D01*
X9370000Y21576822D01*
X9370000Y22308000D01*
X8813874Y22308000D01*
X8813870Y22307999D01*
X8645903Y22292883D01*
X8645897Y22292882D01*
X8429015Y22233026D01*
X8429002Y22233021D01*
X8226291Y22135401D01*
X8226283Y22135397D01*
X8044258Y22003148D01*
X8044250Y22003142D01*
X7888762Y21840513D01*
X7764808Y21652733D01*
X7676375Y21445830D01*
X7676372Y21445821D01*
X7644915Y21308000D01*
X9101177Y21308000D01*
X9059800Y21208105D01*
X9040038Y21058000D01*
X9059800Y20907895D01*
X9101177Y20808000D01*
X7642450Y20808000D01*
X7642449Y20807999D01*
X6595084Y20807999D01*
X6595084Y20808000D01*
X5138823Y20808000D01*
X5180200Y20907895D01*
X5199962Y21058000D01*
X5180200Y21208105D01*
X5138823Y21308000D01*
X6597550Y21308000D01*
X6593584Y21337278D01*
X6524054Y21551268D01*
X6417434Y21749401D01*
X6417432Y21749404D01*
X6277145Y21925320D01*
X6107707Y22073352D01*
X6107699Y22073359D01*
X5914553Y22188759D01*
X5914548Y22188761D01*
X5703889Y22267824D01*
X5482506Y22308000D01*
X4870000Y22308000D01*
X4870000Y21576822D01*
X4770105Y21618200D01*
X4657690Y21633000D01*
X4582310Y21633000D01*
X4469895Y21618200D01*
X4370000Y21576822D01*
X4370000Y22308000D01*
X3813874Y22308000D01*
X3813870Y22307999D01*
X3645903Y22292883D01*
X3645897Y22292882D01*
X3429015Y22233026D01*
X3429002Y22233021D01*
X3226291Y22135401D01*
X3226283Y22135397D01*
X3044258Y22003148D01*
X3044250Y22003142D01*
X2888762Y21840513D01*
X2764808Y21652733D01*
X2676375Y21445830D01*
X2676372Y21445821D01*
X2644915Y21308000D01*
X4101177Y21308000D01*
X4059800Y21208105D01*
X4040038Y21058000D01*
X4059800Y20907895D01*
X4101177Y20808000D01*
X2642450Y20808000D01*
X2642449Y20807999D01*
X500Y20807999D01*
X500Y26001670D01*
X2615710Y26001670D01*
X2645925Y25778613D01*
X2645926Y25778609D01*
X2715483Y25564534D01*
X2822146Y25366321D01*
X2822148Y25366318D01*
X2962489Y25190336D01*
X3053309Y25110989D01*
X3132004Y25042235D01*
X3198401Y25002565D01*
X3325232Y24926787D01*
X3325234Y24926786D01*
X3325236Y24926785D01*
X3355531Y24915415D01*
X3535976Y24847692D01*
X3757450Y24807500D01*
X3757453Y24807500D01*
X5426151Y24807500D01*
X5426155Y24807500D01*
X5477416Y24812113D01*
X5594186Y24822622D01*
X5594192Y24822623D01*
X5811160Y24882503D01*
X5811173Y24882508D01*
X6013966Y24980167D01*
X6013974Y24980171D01*
X6196072Y25112473D01*
X6196074Y25112474D01*
X6214970Y25132237D01*
X6351632Y25275175D01*
X6359664Y25287342D01*
X6475636Y25463033D01*
X6564100Y25670004D01*
X6564101Y25670007D01*
X6564103Y25670012D01*
X6614191Y25889463D01*
X6619230Y26001670D01*
X7615710Y26001670D01*
X7645925Y25778613D01*
X7645926Y25778609D01*
X7715483Y25564534D01*
X7822146Y25366321D01*
X7822148Y25366318D01*
X7962489Y25190336D01*
X8053309Y25110989D01*
X8132004Y25042235D01*
X8198401Y25002565D01*
X8325232Y24926787D01*
X8325234Y24926786D01*
X8325236Y24926785D01*
X8355531Y24915415D01*
X8535976Y24847692D01*
X8757450Y24807500D01*
X8757453Y24807500D01*
X10426151Y24807500D01*
X10426155Y24807500D01*
X10477416Y24812113D01*
X10594186Y24822622D01*
X10594192Y24822623D01*
X10811160Y24882503D01*
X10811173Y24882508D01*
X11013966Y24980167D01*
X11013974Y24980171D01*
X11196072Y25112473D01*
X11196074Y25112474D01*
X11214970Y25132237D01*
X11351632Y25275175D01*
X11359664Y25287342D01*
X11475636Y25463033D01*
X11564100Y25670004D01*
X11564101Y25670007D01*
X11564103Y25670012D01*
X11614191Y25889463D01*
X11624290Y26114330D01*
X11594075Y26337387D01*
X11524517Y26551464D01*
X11417852Y26749681D01*
X11277508Y26925666D01*
X11107996Y27073765D01*
X10914764Y27189215D01*
X10704024Y27268307D01*
X10648654Y27278355D01*
X10482550Y27308500D01*
X10482547Y27308500D01*
X8813845Y27308500D01*
X8645812Y27293377D01*
X8645810Y27293376D01*
X8645807Y27293376D01*
X8428839Y27233496D01*
X8428834Y27233494D01*
X8428830Y27233493D01*
X8428826Y27233491D01*
X8226033Y27135832D01*
X8226025Y27135828D01*
X8043927Y27003526D01*
X8043925Y27003525D01*
X7888366Y26840823D01*
X7764363Y26652966D01*
X7675899Y26445995D01*
X7675895Y26445982D01*
X7625810Y26226542D01*
X7625808Y26226531D01*
X7617464Y26040736D01*
X7615710Y26001670D01*
X6619230Y26001670D01*
X6624290Y26114330D01*
X6594075Y26337387D01*
X6524517Y26551464D01*
X6417852Y26749681D01*
X6277508Y26925666D01*
X6107996Y27073765D01*
X5914764Y27189215D01*
X5704024Y27268307D01*
X5648654Y27278355D01*
X5482550Y27308500D01*
X5482547Y27308500D01*
X3813845Y27308500D01*
X3645812Y27293377D01*
X3645810Y27293376D01*
X3645807Y27293376D01*
X3428839Y27233496D01*
X3428834Y27233494D01*
X3428830Y27233493D01*
X3428826Y27233491D01*
X3226033Y27135832D01*
X3226025Y27135828D01*
X3043927Y27003526D01*
X3043925Y27003525D01*
X2888366Y26840823D01*
X2764363Y26652966D01*
X2675899Y26445995D01*
X2675895Y26445982D01*
X2625810Y26226542D01*
X2625808Y26226531D01*
X2617464Y26040736D01*
X2615710Y26001670D01*
X500Y26001670D01*
X500Y28193994D01*
X33396859Y28193994D01*
X33417385Y27946270D01*
X33417387Y27946261D01*
X33478412Y27705282D01*
X33578267Y27477632D01*
X33678564Y27324116D01*
X34376070Y28021622D01*
X34378884Y28008085D01*
X34448442Y27873844D01*
X34551638Y27763348D01*
X34680819Y27684791D01*
X34732002Y27670449D01*
X34031942Y26970390D01*
X34031942Y26970388D01*
X34078761Y26933949D01*
X34297390Y26815632D01*
X34297396Y26815630D01*
X34532506Y26734916D01*
X34777707Y26694000D01*
X35026293Y26694000D01*
X35271493Y26734916D01*
X35506603Y26815630D01*
X35506614Y26815635D01*
X35725229Y26933943D01*
X35772056Y26970389D01*
X35772057Y26970390D01*
X35073568Y27668878D01*
X35190458Y27719651D01*
X35307739Y27815066D01*
X35394928Y27938585D01*
X35425354Y28024197D01*
X36125434Y27324116D01*
X36225731Y27477630D01*
X36325587Y27705282D01*
X36386612Y27946261D01*
X36386614Y27946270D01*
X36407141Y28193994D01*
X39896859Y28193994D01*
X39917385Y27946270D01*
X39917387Y27946261D01*
X39978412Y27705282D01*
X40078267Y27477632D01*
X40178564Y27324116D01*
X40876070Y28021622D01*
X40878884Y28008085D01*
X40948442Y27873844D01*
X41051638Y27763348D01*
X41180819Y27684791D01*
X41232002Y27670449D01*
X40531942Y26970390D01*
X40531942Y26970388D01*
X40578761Y26933949D01*
X40797390Y26815632D01*
X40797396Y26815630D01*
X41032506Y26734916D01*
X41277707Y26694000D01*
X41526293Y26694000D01*
X41771493Y26734916D01*
X42006603Y26815630D01*
X42006614Y26815635D01*
X42225229Y26933943D01*
X42272056Y26970389D01*
X42272057Y26970390D01*
X41573568Y27668878D01*
X41690458Y27719651D01*
X41807739Y27815066D01*
X41894928Y27938585D01*
X41925354Y28024197D01*
X42625434Y27324116D01*
X42725731Y27477630D01*
X42825587Y27705282D01*
X42886612Y27946261D01*
X42886614Y27946270D01*
X42907141Y28193994D01*
X42907141Y28194005D01*
X42886614Y28441729D01*
X42886612Y28441738D01*
X42825587Y28682717D01*
X42725731Y28910369D01*
X42625434Y29063882D01*
X41927929Y28366376D01*
X41925116Y28379915D01*
X41855558Y28514156D01*
X41752362Y28624652D01*
X41623181Y28703209D01*
X41571997Y28717550D01*
X42272056Y29417609D01*
X42225231Y29454055D01*
X42225228Y29454057D01*
X42006614Y29572364D01*
X42006603Y29572369D01*
X41771493Y29653083D01*
X41526293Y29694000D01*
X41277707Y29694000D01*
X41032506Y29653083D01*
X40797396Y29572369D01*
X40797385Y29572364D01*
X40578770Y29454056D01*
X40578768Y29454055D01*
X40531942Y29417609D01*
X41230431Y28719121D01*
X41113542Y28668349D01*
X40996261Y28572934D01*
X40909072Y28449415D01*
X40878645Y28363801D01*
X40178564Y29063882D01*
X40078266Y28910364D01*
X39978412Y28682717D01*
X39917387Y28441738D01*
X39917385Y28441729D01*
X39896859Y28194005D01*
X39896859Y28193994D01*
X36407141Y28193994D01*
X36407141Y28194005D01*
X36386614Y28441729D01*
X36386612Y28441738D01*
X36325587Y28682717D01*
X36225731Y28910369D01*
X36125434Y29063882D01*
X35427929Y28366377D01*
X35425116Y28379915D01*
X35355558Y28514156D01*
X35252362Y28624652D01*
X35123181Y28703209D01*
X35071997Y28717550D01*
X35772056Y29417609D01*
X35725231Y29454055D01*
X35725228Y29454057D01*
X35506614Y29572364D01*
X35506603Y29572369D01*
X35271493Y29653083D01*
X35026293Y29694000D01*
X34777707Y29694000D01*
X34532506Y29653083D01*
X34297396Y29572369D01*
X34297385Y29572364D01*
X34078770Y29454056D01*
X34078768Y29454055D01*
X34031942Y29417609D01*
X34730431Y28719121D01*
X34613542Y28668349D01*
X34496261Y28572934D01*
X34409072Y28449415D01*
X34378645Y28363801D01*
X33678564Y29063882D01*
X33578266Y28910364D01*
X33478412Y28682717D01*
X33417387Y28441738D01*
X33417385Y28441729D01*
X33396859Y28194005D01*
X33396859Y28193994D01*
X500Y28193994D01*
X500Y30260129D01*
X2619500Y30260129D01*
X2619501Y30260123D01*
X2625908Y30200516D01*
X2676202Y30065671D01*
X2676206Y30065664D01*
X2762452Y29950455D01*
X2762455Y29950452D01*
X2877664Y29864206D01*
X2877671Y29864202D01*
X3012517Y29813908D01*
X3012516Y29813908D01*
X3072116Y29807501D01*
X3072119Y29807500D01*
X3072127Y29807500D01*
X3072134Y29807500D01*
X3072135Y29807500D01*
X6167870Y29807500D01*
X6167876Y29807501D01*
X6227483Y29813908D01*
X6362328Y29864202D01*
X6362335Y29864206D01*
X6477544Y29950452D01*
X6477547Y29950455D01*
X6563793Y30065664D01*
X6563797Y30065671D01*
X6614091Y30200517D01*
X6620500Y30260127D01*
X6620500Y30260129D01*
X7619500Y30260129D01*
X7619501Y30260123D01*
X7625908Y30200516D01*
X7676202Y30065671D01*
X7676206Y30065664D01*
X7762452Y29950455D01*
X7762455Y29950452D01*
X7877664Y29864206D01*
X7877671Y29864202D01*
X8012517Y29813908D01*
X8012516Y29813908D01*
X8072116Y29807501D01*
X8072119Y29807500D01*
X8072127Y29807500D01*
X8072134Y29807500D01*
X8072135Y29807500D01*
X11167870Y29807500D01*
X11167876Y29807501D01*
X11227483Y29813908D01*
X11362328Y29864202D01*
X11362335Y29864206D01*
X11477544Y29950452D01*
X11477547Y29950455D01*
X11563793Y30065664D01*
X11563797Y30065671D01*
X11614091Y30200517D01*
X11620500Y30260127D01*
X11620499Y31855872D01*
X11614091Y31915483D01*
X11563796Y32050331D01*
X11477546Y32165546D01*
X11362331Y32251796D01*
X11227483Y32302091D01*
X11167873Y32308500D01*
X8072128Y32308499D01*
X8023757Y32303299D01*
X8012516Y32302091D01*
X7877671Y32251797D01*
X7877664Y32251793D01*
X7762455Y32165547D01*
X7762452Y32165544D01*
X7676206Y32050335D01*
X7676202Y32050328D01*
X7625908Y31915482D01*
X7619501Y31855883D01*
X7619501Y31855876D01*
X7619500Y31855864D01*
X7619500Y30260129D01*
X6620500Y30260129D01*
X6620499Y31855872D01*
X6614091Y31915483D01*
X6563796Y32050331D01*
X6477546Y32165546D01*
X6362331Y32251796D01*
X6227483Y32302091D01*
X6167873Y32308500D01*
X3072128Y32308499D01*
X3023757Y32303299D01*
X3012516Y32302091D01*
X2877671Y32251797D01*
X2877664Y32251793D01*
X2762455Y32165547D01*
X2762452Y32165544D01*
X2676206Y32050335D01*
X2676202Y32050328D01*
X2625908Y31915482D01*
X2619501Y31855883D01*
X2619501Y31855876D01*
X2619500Y31855864D01*
X2619500Y30260129D01*
X500Y30260129D01*
X500Y41070271D01*
X12705836Y41070271D01*
X12710150Y41024632D01*
X12710700Y41012963D01*
X12710700Y39248165D01*
X12708928Y39232116D01*
X12709166Y39232094D01*
X12708431Y39224331D01*
X12710639Y39154095D01*
X12710700Y39150201D01*
X12710700Y39121323D01*
X12711257Y39116910D01*
X12712172Y39105280D01*
X12713612Y39059451D01*
X12713613Y39059450D01*
X12719567Y39038952D01*
X12723509Y39019914D01*
X12726184Y38998749D01*
X12726187Y38998737D01*
X12743061Y38956115D01*
X12746843Y38945068D01*
X12759635Y38901039D01*
X12759636Y38901037D01*
X12770500Y38882666D01*
X12779055Y38865204D01*
X12786910Y38845366D01*
X12786910Y38845365D01*
X12813858Y38808273D01*
X12820266Y38798517D01*
X12843609Y38759049D01*
X12858698Y38743960D01*
X12871329Y38729172D01*
X12883873Y38711908D01*
X12883877Y38711903D01*
X12919196Y38682684D01*
X12927834Y38674824D01*
X21015682Y30586976D01*
X21025776Y30574378D01*
X21025960Y30574530D01*
X21030933Y30568518D01*
X21082166Y30520406D01*
X21084957Y30517701D01*
X21105371Y30497287D01*
X21105375Y30497284D01*
X21108890Y30494558D01*
X21117763Y30486979D01*
X21151182Y30455596D01*
X21151186Y30455594D01*
X21169885Y30445313D01*
X21186136Y30434638D01*
X21203001Y30421557D01*
X21203009Y30421552D01*
X21245081Y30403345D01*
X21255564Y30398209D01*
X21295741Y30376123D01*
X21316416Y30370814D01*
X21334812Y30364515D01*
X21354392Y30356042D01*
X21354400Y30356040D01*
X21399678Y30348869D01*
X21411116Y30346500D01*
X21455512Y30335100D01*
X21455520Y30335100D01*
X21476861Y30335100D01*
X21496258Y30333573D01*
X21501214Y30332788D01*
X21517327Y30330236D01*
X21517328Y30330236D01*
X21517329Y30330236D01*
X21562967Y30334550D01*
X21574635Y30335100D01*
X49970198Y30335100D01*
X50037237Y30315415D01*
X50057879Y30298781D01*
X52629918Y27726740D01*
X52663403Y27665417D01*
X52665557Y27652023D01*
X52684298Y27473716D01*
X52684298Y27473713D01*
X52684299Y27473712D01*
X52742790Y27293694D01*
X52742793Y27293687D01*
X52837438Y27129757D01*
X52964101Y26989083D01*
X53117237Y26877823D01*
X53117242Y26877820D01*
X53290164Y26800829D01*
X53290169Y26800827D01*
X53442869Y26768370D01*
X53475326Y26761472D01*
X53475327Y26761472D01*
X53579100Y26761472D01*
X53646139Y26741787D01*
X53691894Y26688983D01*
X53703100Y26637472D01*
X53703100Y24886101D01*
X53683415Y24819062D01*
X53630611Y24773307D01*
X53561453Y24763363D01*
X53497897Y24792388D01*
X53491419Y24798420D01*
X52900094Y25389745D01*
X52300817Y25989021D01*
X52290725Y26001620D01*
X52290541Y26001468D01*
X52285568Y26007477D01*
X52285566Y26007482D01*
X52234298Y26055624D01*
X52231597Y26058241D01*
X52211126Y26078714D01*
X52207614Y26081436D01*
X52198739Y26089016D01*
X52165315Y26120405D01*
X52146611Y26130686D01*
X52130365Y26141357D01*
X52113495Y26154445D01*
X52071393Y26172663D01*
X52060946Y26177781D01*
X52020759Y26199876D01*
X52018473Y26200462D01*
X52000093Y26205182D01*
X51981681Y26211485D01*
X51962101Y26219959D01*
X51916813Y26227130D01*
X51905403Y26229493D01*
X51860980Y26240900D01*
X51860977Y26240900D01*
X51839639Y26240900D01*
X51820241Y26242426D01*
X51799171Y26245764D01*
X51753532Y26241449D01*
X51741865Y26240900D01*
X51340957Y26240900D01*
X51277836Y26258168D01*
X51245147Y26277500D01*
X51139898Y26339744D01*
X51023691Y26373505D01*
X50982073Y26385597D01*
X50982071Y26385597D01*
X50982069Y26385598D01*
X50945194Y26388500D01*
X49638806Y26388500D01*
X49601931Y26385598D01*
X49601929Y26385597D01*
X49601926Y26385597D01*
X49504994Y26357435D01*
X49444102Y26339744D01*
X49302635Y26256081D01*
X49302633Y26256079D01*
X49302629Y26256076D01*
X49186423Y26139870D01*
X49186417Y26139862D01*
X49160629Y26096256D01*
X49104662Y26001620D01*
X49102755Y25998396D01*
X49102754Y25998393D01*
X49056902Y25840573D01*
X49056901Y25840567D01*
X49054000Y25803701D01*
X49054000Y25562500D01*
X49034315Y25495461D01*
X48981511Y25449706D01*
X48930000Y25438500D01*
X47763806Y25438500D01*
X47726931Y25435598D01*
X47726929Y25435597D01*
X47726926Y25435597D01*
X47610724Y25401836D01*
X47569102Y25389744D01*
X47427635Y25306081D01*
X47427633Y25306079D01*
X47427629Y25306076D01*
X47311423Y25189870D01*
X47311417Y25189862D01*
X47227755Y25048396D01*
X47227754Y25048393D01*
X47181902Y24890573D01*
X47181901Y24890567D01*
X47179000Y24853701D01*
X47179000Y24422295D01*
X47181735Y24387546D01*
X47167370Y24319169D01*
X47145798Y24290138D01*
X45826979Y22971319D01*
X45814381Y22961227D01*
X45814534Y22961043D01*
X45808522Y22956068D01*
X45808518Y22956066D01*
X45760409Y22904835D01*
X45757696Y22902036D01*
X45737288Y22881629D01*
X45734560Y22878112D01*
X45726975Y22869231D01*
X45695593Y22835813D01*
X45685314Y22817115D01*
X45674633Y22800855D01*
X45661556Y22783996D01*
X45661554Y22783994D01*
X45661446Y22783744D01*
X45643340Y22741904D01*
X45638216Y22731445D01*
X45616124Y22691259D01*
X45616123Y22691256D01*
X45610816Y22670587D01*
X45604515Y22652184D01*
X45596041Y22632601D01*
X45596039Y22632595D01*
X45588869Y22587320D01*
X45586500Y22575881D01*
X45575100Y22531483D01*
X45575100Y22510138D01*
X45573573Y22490737D01*
X45570236Y22469671D01*
X45574550Y22424032D01*
X45575100Y22412363D01*
X45575100Y22237911D01*
X45555415Y22170872D01*
X45502611Y22125117D01*
X45433453Y22115173D01*
X45400670Y22124629D01*
X45237803Y22197144D01*
X45052646Y22236500D01*
X44863354Y22236500D01*
X44678197Y22197144D01*
X44678192Y22197142D01*
X44505270Y22120151D01*
X44505265Y22120148D01*
X44357213Y22012582D01*
X44291407Y21989102D01*
X44284328Y21988900D01*
X41796698Y21988900D01*
X41729659Y22008585D01*
X41683904Y22061389D01*
X41673960Y22130547D01*
X41702985Y22194103D01*
X41761763Y22231877D01*
X41766685Y22233005D01*
X41766644Y22233170D01*
X41771615Y22234428D01*
X42006802Y22315169D01*
X42006811Y22315172D01*
X42225506Y22433524D01*
X42271948Y22469671D01*
X42421744Y22586262D01*
X42590164Y22769215D01*
X42590166Y22769217D01*
X42726173Y22977393D01*
X42826063Y23205118D01*
X42887107Y23446175D01*
X42887109Y23446187D01*
X42907643Y23693994D01*
X42907643Y23694005D01*
X42887109Y23941812D01*
X42887108Y23941814D01*
X42887108Y23941821D01*
X42840966Y24124030D01*
X42843590Y24193848D01*
X42873490Y24242150D01*
X45374121Y26742781D01*
X45435444Y26776266D01*
X45461802Y26779100D01*
X47840328Y26779100D01*
X47907367Y26759415D01*
X47913213Y26755418D01*
X48061265Y26647851D01*
X48061270Y26647848D01*
X48234192Y26570857D01*
X48234197Y26570855D01*
X48386897Y26538398D01*
X48419354Y26531500D01*
X48419355Y26531500D01*
X48608645Y26531500D01*
X48608646Y26531500D01*
X48648001Y26539865D01*
X48793802Y26570855D01*
X48793807Y26570857D01*
X48966729Y26647848D01*
X48966734Y26647851D01*
X49119870Y26759111D01*
X49129360Y26769651D01*
X49246533Y26899784D01*
X49341179Y27063716D01*
X49399674Y27243744D01*
X49419460Y27432000D01*
X49399674Y27620256D01*
X49341179Y27800284D01*
X49246533Y27964216D01*
X49119871Y28104888D01*
X48966730Y28216151D01*
X48793803Y28293144D01*
X48608646Y28332500D01*
X48419354Y28332500D01*
X48299164Y28306953D01*
X48234197Y28293144D01*
X48234192Y28293142D01*
X48061270Y28216151D01*
X48061265Y28216148D01*
X47913213Y28108582D01*
X47847407Y28085102D01*
X47840328Y28084900D01*
X45225768Y28084900D01*
X45209721Y28086671D01*
X45209699Y28086434D01*
X45201938Y28087166D01*
X45201931Y28087168D01*
X45131710Y28084961D01*
X45127815Y28084900D01*
X45098925Y28084900D01*
X45094504Y28084341D01*
X45082872Y28083425D01*
X45037052Y28081986D01*
X45037049Y28081985D01*
X45037047Y28081985D01*
X45016569Y28076035D01*
X44997511Y28072088D01*
X44976340Y28069414D01*
X44936958Y28053821D01*
X44933710Y28052535D01*
X44922661Y28048752D01*
X44878641Y28035964D01*
X44860267Y28025098D01*
X44842802Y28016542D01*
X44822963Y28008688D01*
X44785870Y27981738D01*
X44776112Y27975328D01*
X44736652Y27951992D01*
X44736647Y27951987D01*
X44721566Y27936906D01*
X44706774Y27924271D01*
X44689507Y27911726D01*
X44689505Y27911723D01*
X44689504Y27911723D01*
X44689503Y27911722D01*
X44660285Y27876403D01*
X44652422Y27867762D01*
X41950382Y25165722D01*
X41889059Y25132237D01*
X41822437Y25136122D01*
X41771614Y25153571D01*
X41526335Y25194500D01*
X41277665Y25194500D01*
X41032386Y25153571D01*
X40797190Y25072828D01*
X40578491Y24954474D01*
X40382256Y24801738D01*
X40288646Y24700050D01*
X40213833Y24618782D01*
X40077826Y24410606D01*
X39977936Y24182881D01*
X39916892Y23941824D01*
X39916890Y23941812D01*
X39896357Y23694005D01*
X39896357Y23693994D01*
X39916890Y23446187D01*
X39916892Y23446175D01*
X39977936Y23205118D01*
X40077826Y22977393D01*
X40213833Y22769217D01*
X40382257Y22586261D01*
X40578493Y22433524D01*
X40797188Y22315172D01*
X40797197Y22315169D01*
X41032384Y22234428D01*
X41037356Y22233170D01*
X41036761Y22230821D01*
X41090579Y22204775D01*
X41127030Y22145167D01*
X41125469Y22075315D01*
X41086390Y22017396D01*
X41022202Y21989798D01*
X41007302Y21988900D01*
X35296698Y21988900D01*
X35229659Y22008585D01*
X35183904Y22061389D01*
X35173960Y22130547D01*
X35202985Y22194103D01*
X35261763Y22231877D01*
X35266685Y22233005D01*
X35266644Y22233170D01*
X35271615Y22234428D01*
X35506802Y22315169D01*
X35506811Y22315172D01*
X35725506Y22433524D01*
X35771948Y22469671D01*
X35921744Y22586262D01*
X36090164Y22769215D01*
X36090166Y22769217D01*
X36226173Y22977393D01*
X36326063Y23205118D01*
X36387107Y23446175D01*
X36387109Y23446187D01*
X36407643Y23693994D01*
X36407643Y23694005D01*
X36387109Y23941812D01*
X36387108Y23941815D01*
X36387108Y23941821D01*
X36326063Y24182881D01*
X36226173Y24410607D01*
X36090164Y24618785D01*
X35921744Y24801738D01*
X35725509Y24954474D01*
X35506810Y25072828D01*
X35271614Y25153571D01*
X35026335Y25194500D01*
X34777665Y25194500D01*
X34532386Y25153571D01*
X34297190Y25072828D01*
X34078491Y24954474D01*
X33882256Y24801738D01*
X33788646Y24700050D01*
X33713833Y24618782D01*
X33577826Y24410606D01*
X33477936Y24182881D01*
X33416892Y23941824D01*
X33416890Y23941812D01*
X33396357Y23694005D01*
X33396357Y23693994D01*
X33416890Y23446187D01*
X33416892Y23446175D01*
X33477936Y23205118D01*
X33577826Y22977393D01*
X33713833Y22769217D01*
X33882257Y22586261D01*
X34078493Y22433524D01*
X34297188Y22315172D01*
X34297197Y22315169D01*
X34532384Y22234428D01*
X34537356Y22233170D01*
X34536761Y22230821D01*
X34590579Y22204775D01*
X34627030Y22145167D01*
X34625469Y22075315D01*
X34586390Y22017396D01*
X34522202Y21989798D01*
X34507302Y21988900D01*
X33341803Y21988900D01*
X33274764Y22008585D01*
X33254123Y22025217D01*
X33210077Y22069262D01*
X33192408Y22086930D01*
X33158924Y22148251D01*
X33156772Y22161629D01*
X33143674Y22286256D01*
X33085179Y22466284D01*
X32990533Y22630216D01*
X32863871Y22770888D01*
X32710730Y22882151D01*
X32537803Y22959144D01*
X32352646Y22998500D01*
X32163354Y22998500D01*
X31989926Y22961637D01*
X31978197Y22959144D01*
X31978192Y22959142D01*
X31805270Y22882151D01*
X31805265Y22882148D01*
X31715755Y22817115D01*
X31652129Y22770888D01*
X31525467Y22630216D01*
X31525466Y22630214D01*
X31430821Y22466284D01*
X31430818Y22466277D01*
X31381721Y22315172D01*
X31372326Y22286256D01*
X31352540Y22098000D01*
X31372326Y21909744D01*
X31372326Y21909741D01*
X31372327Y21909740D01*
X31430818Y21729722D01*
X31430821Y21729715D01*
X31525466Y21565785D01*
X31652129Y21425111D01*
X31805265Y21313851D01*
X31805270Y21313848D01*
X31978192Y21236857D01*
X31978197Y21236855D01*
X32130897Y21204398D01*
X32163354Y21197500D01*
X32183798Y21197500D01*
X32250837Y21177815D01*
X32271474Y21161185D01*
X32452692Y20979967D01*
X32497683Y20934976D01*
X32507777Y20922378D01*
X32507960Y20922530D01*
X32512933Y20916518D01*
X32564166Y20868406D01*
X32566957Y20865701D01*
X32587372Y20845286D01*
X32587376Y20845283D01*
X32590891Y20842557D01*
X32599764Y20834978D01*
X32633180Y20803598D01*
X32633188Y20803592D01*
X32651887Y20793312D01*
X32668141Y20782635D01*
X32685002Y20769556D01*
X32685007Y20769554D01*
X32727081Y20751346D01*
X32737567Y20746209D01*
X32746599Y20741244D01*
X32777745Y20724122D01*
X32798413Y20718815D01*
X32816812Y20712516D01*
X32836399Y20704041D01*
X32836400Y20704040D01*
X32836402Y20704040D01*
X32881678Y20696869D01*
X32893116Y20694500D01*
X32937512Y20683100D01*
X32937520Y20683100D01*
X32958861Y20683100D01*
X32978258Y20681573D01*
X32983214Y20680788D01*
X32999327Y20678236D01*
X32999328Y20678235D01*
X33044970Y20682550D01*
X33056638Y20683100D01*
X44284328Y20683100D01*
X44351367Y20663415D01*
X44357213Y20659418D01*
X44505265Y20551851D01*
X44505270Y20551848D01*
X44678192Y20474857D01*
X44678197Y20474855D01*
X44836114Y20441290D01*
X44897596Y20408098D01*
X44931372Y20346935D01*
X44926720Y20277220D01*
X44885115Y20221088D01*
X44836114Y20198710D01*
X44678197Y20165144D01*
X44678192Y20165142D01*
X44505270Y20088151D01*
X44505265Y20088148D01*
X44357213Y19980582D01*
X44291407Y19957102D01*
X44284328Y19956900D01*
X29277802Y19956900D01*
X29210763Y19976585D01*
X29190121Y19993219D01*
X24057219Y25126121D01*
X24023734Y25187444D01*
X24020900Y25213802D01*
X24020900Y25239742D01*
X24040585Y25306781D01*
X24052750Y25322714D01*
X24100529Y25375778D01*
X24100534Y25375785D01*
X24195178Y25539715D01*
X24195179Y25539716D01*
X24253674Y25719744D01*
X24273460Y25908000D01*
X24253674Y26096256D01*
X24195179Y26276284D01*
X24158911Y26339100D01*
X24142439Y26407000D01*
X24165292Y26473027D01*
X24220213Y26516218D01*
X24266299Y26525100D01*
X27774328Y26525100D01*
X27841367Y26505415D01*
X27847213Y26501418D01*
X27995265Y26393851D01*
X27995270Y26393849D01*
X28168192Y26316857D01*
X28168197Y26316855D01*
X28320897Y26284398D01*
X28353354Y26277500D01*
X28353355Y26277500D01*
X28542645Y26277500D01*
X28542646Y26277500D01*
X28582001Y26285865D01*
X28727802Y26316855D01*
X28727807Y26316857D01*
X28900730Y26393849D01*
X28900734Y26393851D01*
X29053870Y26505111D01*
X29087535Y26542500D01*
X29180533Y26645784D01*
X29275179Y26809716D01*
X29333674Y26989744D01*
X29353460Y27178000D01*
X29333674Y27366256D01*
X29275179Y27546284D01*
X29180533Y27710216D01*
X29053871Y27850888D01*
X28900730Y27962151D01*
X28727803Y28039144D01*
X28542646Y28078500D01*
X28353354Y28078500D01*
X28168197Y28039144D01*
X28168192Y28039142D01*
X27995270Y27962151D01*
X27995265Y27962148D01*
X27847213Y27854582D01*
X27781407Y27831102D01*
X27774328Y27830900D01*
X23199766Y27830900D01*
X23183716Y27832671D01*
X23183694Y27832434D01*
X23175938Y27833166D01*
X23175931Y27833168D01*
X23105710Y27830961D01*
X23101815Y27830900D01*
X23072925Y27830900D01*
X23068504Y27830341D01*
X23056872Y27829425D01*
X23011052Y27827986D01*
X23011049Y27827985D01*
X23011047Y27827985D01*
X22990569Y27822035D01*
X22971511Y27818088D01*
X22950340Y27815414D01*
X22912127Y27800284D01*
X22907710Y27798535D01*
X22896661Y27794752D01*
X22852641Y27781964D01*
X22834267Y27771098D01*
X22816802Y27762542D01*
X22796963Y27754688D01*
X22759870Y27727738D01*
X22750112Y27721328D01*
X22710652Y27697992D01*
X22710647Y27697987D01*
X22695566Y27682906D01*
X22680774Y27670271D01*
X22663507Y27657726D01*
X22663505Y27657723D01*
X22663504Y27657723D01*
X22663503Y27657722D01*
X22634285Y27622403D01*
X22626422Y27613762D01*
X22204979Y27192319D01*
X22192381Y27182227D01*
X22192534Y27182043D01*
X22186522Y27177068D01*
X22186518Y27177066D01*
X22177850Y27167835D01*
X22138409Y27125835D01*
X22135696Y27123036D01*
X22115288Y27102629D01*
X22112560Y27099112D01*
X22104975Y27090231D01*
X22073593Y27056813D01*
X22063314Y27038115D01*
X22052631Y27021852D01*
X22039556Y27004996D01*
X22039554Y27004994D01*
X22032955Y26989744D01*
X22021340Y26962904D01*
X22016216Y26952445D01*
X21994124Y26912259D01*
X21994123Y26912256D01*
X21988816Y26891587D01*
X21982515Y26873184D01*
X21974041Y26853601D01*
X21974039Y26853595D01*
X21966869Y26808320D01*
X21964500Y26796881D01*
X21953100Y26752483D01*
X21953100Y26731138D01*
X21951573Y26711737D01*
X21948236Y26690671D01*
X21952550Y26645032D01*
X21953100Y26633363D01*
X21953100Y17865765D01*
X21951328Y17849716D01*
X21951566Y17849694D01*
X21950831Y17841931D01*
X21953039Y17771695D01*
X21953100Y17767801D01*
X21953100Y17738923D01*
X21953657Y17734510D01*
X21954572Y17722880D01*
X21956012Y17677051D01*
X21956013Y17677050D01*
X21961967Y17656552D01*
X21965909Y17637514D01*
X21968584Y17616349D01*
X21968587Y17616337D01*
X21985461Y17573715D01*
X21989243Y17562668D01*
X22002035Y17518639D01*
X22002036Y17518637D01*
X22012900Y17500266D01*
X22021455Y17482804D01*
X22029310Y17462966D01*
X22029310Y17462965D01*
X22056258Y17425873D01*
X22062666Y17416117D01*
X22086009Y17376649D01*
X22101098Y17361560D01*
X22113729Y17346772D01*
X22126273Y17329508D01*
X22126277Y17329503D01*
X22161596Y17300284D01*
X22170234Y17292424D01*
X22591682Y16870976D01*
X22601776Y16858378D01*
X22601960Y16858530D01*
X22606933Y16852518D01*
X22658166Y16804406D01*
X22660957Y16801701D01*
X22681371Y16781287D01*
X22681375Y16781284D01*
X22684890Y16778558D01*
X22693763Y16770979D01*
X22727182Y16739596D01*
X22727186Y16739594D01*
X22745885Y16729313D01*
X22762136Y16718638D01*
X22779001Y16705557D01*
X22779009Y16705552D01*
X22821081Y16687345D01*
X22831564Y16682209D01*
X22871741Y16660123D01*
X22892416Y16654814D01*
X22910812Y16648515D01*
X22930392Y16640042D01*
X22930400Y16640040D01*
X22975678Y16632869D01*
X22987116Y16630500D01*
X23031512Y16619100D01*
X23031520Y16619100D01*
X23052861Y16619100D01*
X23072258Y16617573D01*
X23077214Y16616788D01*
X23093327Y16614236D01*
X23093328Y16614236D01*
X23093329Y16614236D01*
X23138967Y16618550D01*
X23150635Y16619100D01*
X44538328Y16619100D01*
X44605367Y16599415D01*
X44611213Y16595418D01*
X44759265Y16487851D01*
X44759270Y16487848D01*
X44932192Y16410857D01*
X44932197Y16410855D01*
X45084897Y16378398D01*
X45117354Y16371500D01*
X45117355Y16371500D01*
X45198540Y16371500D01*
X45265579Y16351815D01*
X45311334Y16299011D01*
X45320618Y16256332D01*
X45321861Y16256463D01*
X45322540Y16250001D01*
X45322540Y16250000D01*
X45342326Y16061744D01*
X45342326Y16061741D01*
X45342327Y16061740D01*
X45400818Y15881722D01*
X45400821Y15881715D01*
X45495466Y15717785D01*
X45622129Y15577111D01*
X45775265Y15465851D01*
X45775270Y15465848D01*
X45948192Y15388857D01*
X45948197Y15388855D01*
X46100897Y15356398D01*
X46133354Y15349500D01*
X46133355Y15349500D01*
X46322645Y15349500D01*
X46322646Y15349500D01*
X46362001Y15357865D01*
X46507802Y15388855D01*
X46507807Y15388857D01*
X46680729Y15465848D01*
X46680734Y15465851D01*
X46833870Y15577111D01*
X46925253Y15678602D01*
X46960533Y15717784D01*
X47055179Y15881716D01*
X47113674Y16061744D01*
X47133460Y16250000D01*
X47113674Y16438256D01*
X47055179Y16618284D01*
X46960533Y16782216D01*
X46912749Y16835284D01*
X46882520Y16898275D01*
X46880900Y16918256D01*
X46880900Y22127198D01*
X46900585Y22194237D01*
X46917219Y22214879D01*
X47396859Y22694519D01*
X47458182Y22728004D01*
X47527874Y22723020D01*
X47583807Y22681148D01*
X47608224Y22615684D01*
X47608540Y22606838D01*
X47608540Y22606002D01*
X47608540Y22606000D01*
X47628326Y22417744D01*
X47628326Y22417741D01*
X47628327Y22417740D01*
X47686818Y22237722D01*
X47686821Y22237715D01*
X47781466Y22073783D01*
X47784752Y22069262D01*
X47808231Y22003456D01*
X47792405Y21935402D01*
X47742299Y21886708D01*
X47719028Y21877302D01*
X47569102Y21833744D01*
X47427635Y21750081D01*
X47427633Y21750079D01*
X47427629Y21750076D01*
X47311423Y21633870D01*
X47311417Y21633862D01*
X47227755Y21492396D01*
X47227754Y21492393D01*
X47181902Y21334573D01*
X47181901Y21334567D01*
X47179000Y21297701D01*
X47179000Y20866298D01*
X47181901Y20829432D01*
X47181902Y20829426D01*
X47227754Y20671606D01*
X47227755Y20671603D01*
X47311417Y20530137D01*
X47311423Y20530129D01*
X47427629Y20413923D01*
X47427637Y20413917D01*
X47569103Y20330255D01*
X47569106Y20330254D01*
X47726926Y20284402D01*
X47726931Y20284401D01*
X47754294Y20282248D01*
X47819582Y20257363D01*
X47844883Y20231513D01*
X47867257Y20200716D01*
X47873666Y20190959D01*
X47897009Y20151491D01*
X47912098Y20136402D01*
X47924729Y20121614D01*
X47937273Y20104350D01*
X47937277Y20104345D01*
X47972596Y20075126D01*
X47981234Y20067266D01*
X49145524Y18902976D01*
X49155618Y18890378D01*
X49155802Y18890530D01*
X49160775Y18884518D01*
X49212008Y18836406D01*
X49214799Y18833701D01*
X49235214Y18813286D01*
X49235218Y18813283D01*
X49238733Y18810557D01*
X49247606Y18802978D01*
X49281022Y18771598D01*
X49281030Y18771592D01*
X49299729Y18761312D01*
X49315983Y18750635D01*
X49332844Y18737556D01*
X49332849Y18737554D01*
X49374923Y18719346D01*
X49385410Y18714209D01*
X49425587Y18692122D01*
X49446255Y18686815D01*
X49464654Y18680516D01*
X49484241Y18672041D01*
X49484242Y18672040D01*
X49484244Y18672040D01*
X49529520Y18664869D01*
X49540958Y18662500D01*
X49585354Y18651100D01*
X49585362Y18651100D01*
X49606703Y18651100D01*
X49626100Y18649573D01*
X49630780Y18648832D01*
X49647169Y18646236D01*
X49647170Y18646235D01*
X49692812Y18650550D01*
X49704480Y18651100D01*
X51041423Y18651100D01*
X51108462Y18631415D01*
X51154217Y18578611D01*
X51164743Y18540062D01*
X51179206Y18402456D01*
X51182175Y18374212D01*
X51169605Y18305482D01*
X51121873Y18254459D01*
X51068582Y18237633D01*
X51055431Y18236598D01*
X51055429Y18236597D01*
X51055426Y18236597D01*
X50954450Y18207260D01*
X50897602Y18190744D01*
X50756135Y18107081D01*
X50756133Y18107079D01*
X50756129Y18107076D01*
X50639923Y17990870D01*
X50639920Y17990866D01*
X50639919Y17990865D01*
X50557841Y17852077D01*
X50556255Y17849396D01*
X50556254Y17849393D01*
X50510402Y17691573D01*
X50510401Y17691567D01*
X50507500Y17654701D01*
X50507500Y15873298D01*
X50510401Y15836432D01*
X50510402Y15836426D01*
X50556254Y15678606D01*
X50556255Y15678603D01*
X50639917Y15537137D01*
X50639923Y15537129D01*
X50756129Y15420923D01*
X50756137Y15420917D01*
X50897603Y15337255D01*
X50897606Y15337254D01*
X51055426Y15291402D01*
X51055432Y15291401D01*
X51092298Y15288500D01*
X51092306Y15288500D01*
X51523701Y15288500D01*
X51560567Y15291401D01*
X51560573Y15291402D01*
X51718393Y15337254D01*
X51718396Y15337255D01*
X51739102Y15349500D01*
X51859865Y15420919D01*
X51859866Y15420920D01*
X51866031Y15425702D01*
X51867927Y15423256D01*
X51916642Y15449857D01*
X51986334Y15444873D01*
X52018703Y15424069D01*
X52019969Y15425702D01*
X52026137Y15420917D01*
X52167603Y15337255D01*
X52167606Y15337254D01*
X52325426Y15291402D01*
X52325432Y15291401D01*
X52362298Y15288500D01*
X52362306Y15288500D01*
X52793701Y15288500D01*
X52830567Y15291401D01*
X52830573Y15291402D01*
X52988393Y15337254D01*
X52988396Y15337255D01*
X53009102Y15349500D01*
X53129865Y15420919D01*
X53129866Y15420920D01*
X53136031Y15425702D01*
X53137927Y15423256D01*
X53186642Y15449857D01*
X53256334Y15444873D01*
X53288703Y15424069D01*
X53289969Y15425702D01*
X53296137Y15420917D01*
X53437603Y15337255D01*
X53437606Y15337254D01*
X53595426Y15291402D01*
X53595432Y15291401D01*
X53632298Y15288500D01*
X53632306Y15288500D01*
X54063701Y15288500D01*
X54100567Y15291401D01*
X54100573Y15291402D01*
X54258393Y15337254D01*
X54258396Y15337255D01*
X54279102Y15349500D01*
X54399865Y15420919D01*
X54399866Y15420920D01*
X54406031Y15425702D01*
X54407927Y15423256D01*
X54456642Y15449857D01*
X54526334Y15444873D01*
X54558703Y15424069D01*
X54559969Y15425702D01*
X54566137Y15420917D01*
X54707603Y15337255D01*
X54707606Y15337254D01*
X54865426Y15291402D01*
X54865432Y15291401D01*
X54902298Y15288500D01*
X54902306Y15288500D01*
X55333701Y15288500D01*
X55370567Y15291401D01*
X55370573Y15291402D01*
X55528393Y15337254D01*
X55528396Y15337255D01*
X55549102Y15349500D01*
X55669865Y15420919D01*
X55669866Y15420920D01*
X55676031Y15425702D01*
X55677927Y15423256D01*
X55726642Y15449857D01*
X55796334Y15444873D01*
X55828703Y15424069D01*
X55829969Y15425702D01*
X55836137Y15420917D01*
X55977603Y15337255D01*
X55977606Y15337254D01*
X56135426Y15291402D01*
X56135432Y15291401D01*
X56172298Y15288500D01*
X56172306Y15288500D01*
X56603701Y15288500D01*
X56640567Y15291401D01*
X56640573Y15291402D01*
X56798393Y15337254D01*
X56798396Y15337255D01*
X56819102Y15349500D01*
X56939865Y15420919D01*
X56939866Y15420920D01*
X56946031Y15425702D01*
X56947927Y15423256D01*
X56996642Y15449857D01*
X57066334Y15444873D01*
X57098703Y15424069D01*
X57099969Y15425702D01*
X57106137Y15420917D01*
X57247603Y15337255D01*
X57247606Y15337254D01*
X57405426Y15291402D01*
X57405432Y15291401D01*
X57442298Y15288500D01*
X57442306Y15288500D01*
X57873701Y15288500D01*
X57910567Y15291401D01*
X57910573Y15291402D01*
X58068393Y15337254D01*
X58068396Y15337255D01*
X58089102Y15349500D01*
X58209865Y15420919D01*
X58209866Y15420920D01*
X58216031Y15425702D01*
X58217927Y15423256D01*
X58266642Y15449857D01*
X58336334Y15444873D01*
X58368703Y15424069D01*
X58369969Y15425702D01*
X58376137Y15420917D01*
X58517603Y15337255D01*
X58517606Y15337254D01*
X58675426Y15291402D01*
X58675432Y15291401D01*
X58712298Y15288500D01*
X58712306Y15288500D01*
X59143701Y15288500D01*
X59180567Y15291401D01*
X59180573Y15291402D01*
X59338393Y15337254D01*
X59338394Y15337254D01*
X59338396Y15337255D01*
X59338398Y15337256D01*
X59357980Y15348837D01*
X59425704Y15366018D01*
X59491967Y15343858D01*
X59535729Y15289392D01*
X59545100Y15242104D01*
X59545100Y14799802D01*
X59525415Y14732763D01*
X59508781Y14712121D01*
X59455879Y14659219D01*
X59394556Y14625734D01*
X59368198Y14622900D01*
X56981766Y14622900D01*
X56965716Y14624671D01*
X56965694Y14624434D01*
X56957938Y14625166D01*
X56957931Y14625168D01*
X56887710Y14622961D01*
X56883815Y14622900D01*
X56854925Y14622900D01*
X56850504Y14622341D01*
X56838872Y14621425D01*
X56793052Y14619986D01*
X56793049Y14619985D01*
X56793047Y14619985D01*
X56772569Y14614035D01*
X56753511Y14610088D01*
X56732340Y14607414D01*
X56692958Y14591821D01*
X56689710Y14590535D01*
X56678661Y14586752D01*
X56634641Y14573964D01*
X56616267Y14563098D01*
X56598802Y14554542D01*
X56578963Y14546688D01*
X56541870Y14519738D01*
X56532112Y14513328D01*
X56492652Y14489992D01*
X56492647Y14489987D01*
X56477566Y14474906D01*
X56462774Y14462271D01*
X56445507Y14449726D01*
X56445505Y14449723D01*
X56445504Y14449723D01*
X56445503Y14449722D01*
X56416285Y14414403D01*
X56408422Y14405762D01*
X55986979Y13984319D01*
X55974381Y13974227D01*
X55974534Y13974043D01*
X55968522Y13969068D01*
X55968518Y13969066D01*
X55927513Y13925400D01*
X55920409Y13917835D01*
X55917696Y13915036D01*
X55897288Y13894629D01*
X55894560Y13891112D01*
X55886975Y13882231D01*
X55855593Y13848813D01*
X55845314Y13830115D01*
X55834631Y13813852D01*
X55821556Y13796996D01*
X55821554Y13796994D01*
X55819831Y13793011D01*
X55803340Y13754904D01*
X55798216Y13744445D01*
X55776124Y13704259D01*
X55776123Y13704256D01*
X55770816Y13683587D01*
X55764515Y13665184D01*
X55756041Y13645601D01*
X55756039Y13645595D01*
X55748869Y13600320D01*
X55746500Y13588881D01*
X55735100Y13544483D01*
X55735100Y13523138D01*
X55733573Y13503742D01*
X55731440Y13490274D01*
X55730236Y13482671D01*
X55734550Y13437032D01*
X55735100Y13425363D01*
X55735100Y13335895D01*
X55715415Y13268856D01*
X55662611Y13223101D01*
X55593453Y13213157D01*
X55547981Y13229162D01*
X55528398Y13240744D01*
X55372287Y13286099D01*
X55370573Y13286597D01*
X55370571Y13286597D01*
X55370569Y13286598D01*
X55333694Y13289500D01*
X54902306Y13289500D01*
X54865431Y13286598D01*
X54865429Y13286597D01*
X54865426Y13286597D01*
X54749224Y13252836D01*
X54707602Y13240744D01*
X54566135Y13157081D01*
X54566132Y13157078D01*
X54559969Y13152298D01*
X54558066Y13154750D01*
X54509421Y13128155D01*
X54439726Y13133104D01*
X54407304Y13153940D01*
X54406031Y13152298D01*
X54399870Y13157076D01*
X54399865Y13157081D01*
X54258398Y13240744D01*
X54102287Y13286099D01*
X54100573Y13286597D01*
X54100571Y13286597D01*
X54100569Y13286598D01*
X54063694Y13289500D01*
X53632306Y13289500D01*
X53595431Y13286598D01*
X53595429Y13286597D01*
X53595426Y13286597D01*
X53479224Y13252836D01*
X53437602Y13240744D01*
X53296135Y13157081D01*
X53296132Y13157078D01*
X53289969Y13152298D01*
X53288066Y13154750D01*
X53239421Y13128155D01*
X53169726Y13133104D01*
X53137304Y13153940D01*
X53136031Y13152298D01*
X53129870Y13157076D01*
X53129865Y13157081D01*
X52988398Y13240744D01*
X52832287Y13286099D01*
X52830573Y13286597D01*
X52830571Y13286597D01*
X52830569Y13286598D01*
X52793694Y13289500D01*
X52362306Y13289500D01*
X52325431Y13286598D01*
X52325429Y13286597D01*
X52325426Y13286597D01*
X52209224Y13252836D01*
X52167602Y13240744D01*
X52026135Y13157081D01*
X52026132Y13157078D01*
X52019969Y13152298D01*
X52018066Y13154750D01*
X51969421Y13128155D01*
X51899726Y13133104D01*
X51867304Y13153940D01*
X51866031Y13152298D01*
X51859870Y13157076D01*
X51859865Y13157081D01*
X51718398Y13240744D01*
X51562287Y13286099D01*
X51560573Y13286597D01*
X51560571Y13286597D01*
X51560569Y13286598D01*
X51523694Y13289500D01*
X51092306Y13289500D01*
X51055431Y13286598D01*
X51055429Y13286597D01*
X51055426Y13286597D01*
X50939224Y13252836D01*
X50897602Y13240744D01*
X50756135Y13157081D01*
X50756133Y13157079D01*
X50756129Y13157076D01*
X50639923Y13040870D01*
X50639917Y13040862D01*
X50556255Y12899396D01*
X50556254Y12899393D01*
X50510402Y12741573D01*
X50510401Y12741567D01*
X50507500Y12704701D01*
X50507500Y10923298D01*
X50510401Y10886432D01*
X50510402Y10886426D01*
X50556254Y10728606D01*
X50556255Y10728603D01*
X50639917Y10587137D01*
X50639923Y10587129D01*
X50756129Y10470923D01*
X50756137Y10470917D01*
X50897603Y10387255D01*
X50897606Y10387254D01*
X51055426Y10341402D01*
X51055432Y10341401D01*
X51092298Y10338500D01*
X51092306Y10338500D01*
X51523701Y10338500D01*
X51560567Y10341401D01*
X51560573Y10341402D01*
X51718393Y10387254D01*
X51718396Y10387255D01*
X51719178Y10387717D01*
X51838238Y10458129D01*
X51859862Y10470917D01*
X51866031Y10475702D01*
X51867927Y10473256D01*
X51916642Y10499857D01*
X51986334Y10494873D01*
X52018703Y10474069D01*
X52019969Y10475702D01*
X52026137Y10470917D01*
X52167603Y10387255D01*
X52167606Y10387254D01*
X52325426Y10341402D01*
X52325432Y10341401D01*
X52362298Y10338500D01*
X52362306Y10338500D01*
X52793701Y10338500D01*
X52830567Y10341401D01*
X52830570Y10341402D01*
X52839835Y10344094D01*
X52909705Y10343895D01*
X52968375Y10305953D01*
X52997219Y10242315D01*
X52992362Y10186701D01*
X52974590Y10132002D01*
X52962326Y10094256D01*
X52942540Y9906000D01*
X52962326Y9717744D01*
X52962326Y9717741D01*
X52962327Y9717740D01*
X53020818Y9537722D01*
X53020821Y9537715D01*
X53115466Y9373785D01*
X53242129Y9233111D01*
X53395265Y9121851D01*
X53395270Y9121848D01*
X53568192Y9044857D01*
X53568197Y9044855D01*
X53720897Y9012398D01*
X53753354Y9005500D01*
X53753355Y9005500D01*
X53942645Y9005500D01*
X53942646Y9005500D01*
X53982001Y9013865D01*
X54127802Y9044855D01*
X54127807Y9044857D01*
X54300729Y9121848D01*
X54300734Y9121851D01*
X54410115Y9201321D01*
X54475921Y9224801D01*
X54543975Y9208975D01*
X54555885Y9201321D01*
X54665265Y9121851D01*
X54665270Y9121848D01*
X54838192Y9044857D01*
X54838197Y9044855D01*
X54990897Y9012398D01*
X55023354Y9005500D01*
X55023355Y9005500D01*
X55212645Y9005500D01*
X55212646Y9005500D01*
X55252001Y9013865D01*
X55397802Y9044855D01*
X55397807Y9044857D01*
X55570729Y9121848D01*
X55570734Y9121851D01*
X55723870Y9233111D01*
X55733380Y9243673D01*
X55850533Y9373784D01*
X55945179Y9537716D01*
X56003674Y9717744D01*
X56023460Y9906000D01*
X56003674Y10094256D01*
X55973637Y10186701D01*
X55971642Y10256541D01*
X56007722Y10316374D01*
X56070423Y10347202D01*
X56126162Y10344095D01*
X56135432Y10341401D01*
X56172298Y10338500D01*
X56172306Y10338500D01*
X56603701Y10338500D01*
X56640567Y10341401D01*
X56640573Y10341402D01*
X56798393Y10387254D01*
X56798394Y10387254D01*
X56798396Y10387255D01*
X56798398Y10387256D01*
X56843380Y10413858D01*
X56911104Y10431039D01*
X56977367Y10408879D01*
X57021129Y10354413D01*
X57030500Y10307125D01*
X57030500Y9332465D01*
X57010815Y9265426D01*
X56998656Y9249500D01*
X56925467Y9168216D01*
X56925464Y9168211D01*
X56830821Y9004284D01*
X56830818Y9004277D01*
X56785820Y8865785D01*
X56772326Y8824256D01*
X56752540Y8636000D01*
X56772326Y8447744D01*
X56772326Y8447741D01*
X56772327Y8447740D01*
X56830818Y8267722D01*
X56830821Y8267715D01*
X56925466Y8103785D01*
X57052129Y7963111D01*
X57205265Y7851851D01*
X57205270Y7851848D01*
X57378192Y7774857D01*
X57378197Y7774855D01*
X57530897Y7742398D01*
X57563354Y7735500D01*
X57563355Y7735500D01*
X57752645Y7735500D01*
X57752646Y7735500D01*
X57811196Y7747945D01*
X57937802Y7774855D01*
X57937807Y7774857D01*
X58110729Y7851848D01*
X58110734Y7851851D01*
X58263870Y7963111D01*
X58263871Y7963112D01*
X58390533Y8103784D01*
X58485179Y8267716D01*
X58503370Y8323700D01*
X58543008Y8445695D01*
X58582445Y8503370D01*
X58646804Y8530569D01*
X58686718Y8528668D01*
X58833354Y8497500D01*
X58833359Y8497500D01*
X59022645Y8497500D01*
X59022646Y8497500D01*
X59062001Y8505865D01*
X59207802Y8536855D01*
X59207807Y8536857D01*
X59380729Y8613848D01*
X59380734Y8613851D01*
X59533870Y8725111D01*
X59582075Y8778648D01*
X59660533Y8865784D01*
X59755179Y9029716D01*
X59813674Y9209744D01*
X59833460Y9398000D01*
X59813674Y9586256D01*
X59755179Y9766284D01*
X59660533Y9930216D01*
X59587348Y10011494D01*
X59557120Y10074484D01*
X59555500Y10094465D01*
X59555500Y10307706D01*
X59575185Y10374745D01*
X59627989Y10420500D01*
X59697147Y10430444D01*
X59742621Y10414438D01*
X59787803Y10387717D01*
X59787806Y10387716D01*
X59945505Y10341900D01*
X59945502Y10341900D01*
X59948000Y10341703D01*
X59948000Y11564000D01*
X60448000Y11564000D01*
X60448000Y10341703D01*
X60450496Y10341900D01*
X60608193Y10387716D01*
X60608196Y10387717D01*
X60749552Y10471314D01*
X60749561Y10471321D01*
X60865678Y10587438D01*
X60865685Y10587447D01*
X60949282Y10728803D01*
X60949283Y10728806D01*
X60995099Y10886504D01*
X60995100Y10886510D01*
X60997999Y10923350D01*
X60998000Y10923365D01*
X60998000Y11564000D01*
X60448000Y11564000D01*
X59948000Y11564000D01*
X59948000Y12064000D01*
X60448000Y12064000D01*
X60998000Y12064000D01*
X60998000Y12528436D01*
X61017685Y12595475D01*
X61070489Y12641230D01*
X61139647Y12651174D01*
X61163584Y12644043D01*
X61163842Y12644819D01*
X61334347Y12588319D01*
X61435345Y12578000D01*
X61472000Y12578000D01*
X61472000Y13365500D01*
X60747001Y13365500D01*
X60747001Y13365108D01*
X60727316Y13298069D01*
X60674512Y13252314D01*
X60605354Y13242370D01*
X60588406Y13246032D01*
X60450494Y13286099D01*
X60450488Y13286100D01*
X60448001Y13286295D01*
X60448000Y13286295D01*
X60448000Y12064000D01*
X59948000Y12064000D01*
X59948000Y13287522D01*
X59967685Y13354561D01*
X60002156Y13386759D01*
X60000727Y13388727D01*
X60044123Y13420256D01*
X60053885Y13426669D01*
X60093350Y13450009D01*
X60108434Y13465094D01*
X60123230Y13477731D01*
X60130029Y13482671D01*
X60140494Y13490274D01*
X60140494Y13490275D01*
X60169719Y13525601D01*
X60177581Y13534241D01*
X60540239Y13896899D01*
X60601562Y13930384D01*
X60671254Y13925400D01*
X60715601Y13896899D01*
X60747000Y13865500D01*
X61848000Y13865500D01*
X61915039Y13845815D01*
X61960794Y13793011D01*
X61972000Y13741500D01*
X61972000Y12578000D01*
X62008638Y12578000D01*
X62008656Y12578001D01*
X62109653Y12588319D01*
X62197890Y12617557D01*
X62267718Y12619958D01*
X62327760Y12584226D01*
X62358952Y12521706D01*
X62360213Y12512820D01*
X62360326Y12511743D01*
X62360326Y12511742D01*
X62418818Y12331722D01*
X62418821Y12331715D01*
X62513466Y12167785D01*
X62640129Y12027111D01*
X62793265Y11915851D01*
X62793270Y11915848D01*
X62966192Y11838857D01*
X62966197Y11838855D01*
X63118897Y11806398D01*
X63151354Y11799500D01*
X63151355Y11799500D01*
X63231100Y11799500D01*
X63298139Y11779815D01*
X63343894Y11727011D01*
X63355100Y11675500D01*
X63355100Y11095012D01*
X63335415Y11027973D01*
X63318781Y11007331D01*
X61555120Y9243670D01*
X61465220Y9132653D01*
X61378672Y8962794D01*
X61378671Y8962791D01*
X61329332Y8778655D01*
X61329331Y8778648D01*
X61319355Y8588275D01*
X61349176Y8399986D01*
X61417494Y8222008D01*
X61417498Y8222001D01*
X61521316Y8062135D01*
X61521327Y8062122D01*
X61656122Y7927327D01*
X61656135Y7927316D01*
X61816001Y7823498D01*
X61816008Y7823494D01*
X61993985Y7755177D01*
X62182272Y7725354D01*
X62372648Y7735331D01*
X62372655Y7735332D01*
X62556791Y7784671D01*
X62556794Y7784672D01*
X62726653Y7871220D01*
X62774134Y7909669D01*
X62837665Y7961116D01*
X62837673Y7961123D01*
X64845903Y9969353D01*
X64860696Y9981988D01*
X64872175Y9990328D01*
X64872177Y9990330D01*
X64917893Y10041103D01*
X64922345Y10045795D01*
X64936880Y10060330D01*
X64938309Y10062095D01*
X64949808Y10076295D01*
X64954010Y10081215D01*
X64999739Y10132002D01*
X65006831Y10144287D01*
X65017853Y10160324D01*
X65026780Y10171347D01*
X65057804Y10232237D01*
X65060891Y10237920D01*
X65095053Y10297090D01*
X65095056Y10297096D01*
X65095058Y10297099D01*
X65099442Y10310593D01*
X65106886Y10328565D01*
X65113328Y10341206D01*
X65131015Y10407219D01*
X65132856Y10413431D01*
X65133184Y10414438D01*
X65151535Y10470917D01*
X65153966Y10478399D01*
X65153966Y10478400D01*
X65153968Y10478406D01*
X65155450Y10492519D01*
X65158994Y10511639D01*
X65162668Y10525348D01*
X65166243Y10593580D01*
X65166752Y10600038D01*
X65168899Y10620467D01*
X65168900Y10620474D01*
X65168900Y10641018D01*
X65169070Y10647507D01*
X65172645Y10715725D01*
X65170605Y10728606D01*
X65170426Y10729730D01*
X65168900Y10749127D01*
X65168900Y34462872D01*
X65170427Y34482271D01*
X65172645Y34496275D01*
X65169070Y34564492D01*
X65168900Y34570981D01*
X65168900Y34591524D01*
X65168900Y34591525D01*
X65166750Y34611968D01*
X65166243Y34618422D01*
X65162668Y34686645D01*
X65162668Y34686652D01*
X65158995Y34700355D01*
X65155450Y34719481D01*
X65153968Y34733594D01*
X65132852Y34798581D01*
X65131009Y34804805D01*
X65113331Y34870784D01*
X65113329Y34870786D01*
X65113328Y34870794D01*
X65106886Y34883433D01*
X65099441Y34901407D01*
X65095058Y34914901D01*
X65060878Y34974099D01*
X65057817Y34979737D01*
X65026780Y35040653D01*
X65017854Y35051674D01*
X65006828Y35067718D01*
X64999741Y35079994D01*
X64999739Y35079998D01*
X64953997Y35130797D01*
X64949817Y35135691D01*
X64936880Y35151670D01*
X64922335Y35166213D01*
X64917904Y35170882D01*
X64872177Y35221670D01*
X64860692Y35230013D01*
X64845909Y35242639D01*
X59789670Y40298880D01*
X58864639Y41223909D01*
X58852013Y41238692D01*
X58843670Y41250177D01*
X58792882Y41295904D01*
X58788213Y41300335D01*
X58773670Y41314880D01*
X58757691Y41327817D01*
X58752797Y41331997D01*
X58701998Y41377739D01*
X58689716Y41384829D01*
X58673674Y41395854D01*
X58662653Y41404780D01*
X58601737Y41435817D01*
X58596099Y41438878D01*
X58536901Y41473058D01*
X58523407Y41477441D01*
X58505433Y41484886D01*
X58492794Y41491328D01*
X58492786Y41491329D01*
X58492784Y41491331D01*
X58426805Y41509009D01*
X58420578Y41510853D01*
X58355594Y41531968D01*
X58341481Y41533450D01*
X58322355Y41536995D01*
X58308652Y41540668D01*
X58240411Y41544243D01*
X58233968Y41544750D01*
X58213525Y41546900D01*
X58213524Y41546900D01*
X58192981Y41546900D01*
X58186492Y41547070D01*
X58118275Y41550645D01*
X58104526Y41548467D01*
X58104271Y41548427D01*
X58084872Y41546900D01*
X37950499Y41546900D01*
X37883460Y41566585D01*
X37837705Y41619389D01*
X37826499Y41670900D01*
X37826499Y42187870D01*
X37826499Y42187873D01*
X37820091Y42247483D01*
X37769796Y42382331D01*
X37683546Y42497546D01*
X37568331Y42583796D01*
X37433483Y42634091D01*
X37373873Y42640500D01*
X35778128Y42640499D01*
X35729757Y42635299D01*
X35718516Y42634091D01*
X35583671Y42583797D01*
X35583664Y42583793D01*
X35468455Y42497547D01*
X35468452Y42497544D01*
X35382206Y42382335D01*
X35382202Y42382328D01*
X35331908Y42247482D01*
X35328497Y42215749D01*
X35325501Y42187876D01*
X35325500Y42187864D01*
X35325500Y39092129D01*
X35325501Y39092123D01*
X35331908Y39032516D01*
X35382202Y38897671D01*
X35382206Y38897664D01*
X35468452Y38782455D01*
X35468455Y38782452D01*
X35583664Y38696206D01*
X35583671Y38696202D01*
X35718517Y38645908D01*
X35718516Y38645908D01*
X35778116Y38639501D01*
X35778119Y38639500D01*
X35778127Y38639500D01*
X35778134Y38639500D01*
X35778135Y38639500D01*
X37373870Y38639500D01*
X37373876Y38639501D01*
X37433483Y38645908D01*
X37568328Y38696202D01*
X37568335Y38696206D01*
X37683544Y38782452D01*
X37683547Y38782455D01*
X37769793Y38897664D01*
X37769797Y38897671D01*
X37820091Y39032517D01*
X37820783Y39038952D01*
X37826500Y39092127D01*
X37826500Y39609100D01*
X37846185Y39676139D01*
X37898989Y39721894D01*
X37950500Y39733100D01*
X57738988Y39733100D01*
X57806027Y39713415D01*
X57826669Y39696781D01*
X63318781Y34204669D01*
X63352266Y34143346D01*
X63355100Y34116988D01*
X63355100Y31943352D01*
X63335415Y31876313D01*
X63282611Y31830558D01*
X63213453Y31820614D01*
X63149897Y31849639D01*
X63138950Y31860380D01*
X63124604Y31876313D01*
X63089871Y31914888D01*
X62936730Y32026151D01*
X62763803Y32103144D01*
X62578646Y32142500D01*
X62389354Y32142500D01*
X62242719Y32111332D01*
X62173053Y32116648D01*
X62117319Y32158785D01*
X62099009Y32194301D01*
X62041179Y32372284D01*
X61946533Y32536216D01*
X61819871Y32676888D01*
X61666730Y32788151D01*
X61493803Y32865144D01*
X61308646Y32904500D01*
X61119354Y32904500D01*
X61044075Y32888499D01*
X60934197Y32865144D01*
X60934192Y32865142D01*
X60761270Y32788151D01*
X60761265Y32788148D01*
X60608130Y32676889D01*
X60608123Y32676883D01*
X60533881Y32594428D01*
X60474395Y32557779D01*
X60441731Y32553400D01*
X60107291Y32553400D01*
X60040252Y32573085D01*
X60007625Y32606319D01*
X60006821Y32605683D01*
X60002343Y32611344D01*
X60002340Y32611350D01*
X59880350Y32733340D01*
X59733516Y32823908D01*
X59569753Y32878174D01*
X59468677Y32888500D01*
X58895324Y32888499D01*
X58895316Y32888498D01*
X58895312Y32888498D01*
X58794247Y32878174D01*
X58630484Y32823908D01*
X58483650Y32733340D01*
X58483648Y32733338D01*
X58361660Y32611350D01*
X58361658Y32611347D01*
X58361321Y32610801D01*
X58360992Y32610505D01*
X58357179Y32605683D01*
X58356354Y32606334D01*
X58309370Y32564079D01*
X58271458Y32552898D01*
X58271127Y32552856D01*
X58259372Y32551925D01*
X58213552Y32550486D01*
X58213549Y32550485D01*
X58213547Y32550485D01*
X58193069Y32544535D01*
X58174011Y32540588D01*
X58152840Y32537914D01*
X58113458Y32522321D01*
X58110210Y32521035D01*
X58099161Y32517252D01*
X58055141Y32504464D01*
X58036767Y32493598D01*
X58019302Y32485042D01*
X57999463Y32477188D01*
X57999458Y32477186D01*
X57992624Y32473429D01*
X57991760Y32474999D01*
X57935164Y32454810D01*
X57867111Y32470640D01*
X57840416Y32490923D01*
X53608317Y36723021D01*
X53598225Y36735620D01*
X53598041Y36735468D01*
X53593068Y36741477D01*
X53593066Y36741482D01*
X53541798Y36789624D01*
X53539097Y36792241D01*
X53518626Y36812714D01*
X53515114Y36815436D01*
X53506239Y36823016D01*
X53472815Y36854405D01*
X53454111Y36864686D01*
X53437865Y36875357D01*
X53420995Y36888445D01*
X53378893Y36906663D01*
X53368446Y36911781D01*
X53328259Y36933876D01*
X53325973Y36934462D01*
X53307593Y36939182D01*
X53289181Y36945485D01*
X53269601Y36953959D01*
X53224313Y36961130D01*
X53212903Y36963493D01*
X53168480Y36974900D01*
X53168477Y36974900D01*
X53147139Y36974900D01*
X53127741Y36976426D01*
X53106671Y36979764D01*
X53061032Y36975449D01*
X53049365Y36974900D01*
X49187672Y36974900D01*
X49120633Y36994585D01*
X49114787Y36998582D01*
X48966734Y37106148D01*
X48966730Y37106151D01*
X48793803Y37183144D01*
X48608646Y37222500D01*
X48419354Y37222500D01*
X48234197Y37183144D01*
X48234192Y37183142D01*
X48061270Y37106151D01*
X48061265Y37106148D01*
X47913213Y36998582D01*
X47908129Y36994888D01*
X47781467Y36854216D01*
X47781466Y36854214D01*
X47686821Y36690284D01*
X47686818Y36690277D01*
X47630292Y36516309D01*
X47628326Y36510256D01*
X47608540Y36322000D01*
X47628326Y36133744D01*
X47628326Y36133741D01*
X47628327Y36133740D01*
X47686818Y35953722D01*
X47686821Y35953715D01*
X47781466Y35789785D01*
X47908129Y35649111D01*
X48061265Y35537851D01*
X48061270Y35537848D01*
X48234192Y35460857D01*
X48234197Y35460855D01*
X48386897Y35428398D01*
X48419354Y35421500D01*
X48419355Y35421500D01*
X48608645Y35421500D01*
X48608646Y35421500D01*
X48648001Y35429865D01*
X48793802Y35460855D01*
X48793807Y35460857D01*
X48966729Y35537848D01*
X48966734Y35537851D01*
X49114787Y35645418D01*
X49180593Y35668898D01*
X49187672Y35669100D01*
X52764198Y35669100D01*
X52831237Y35649415D01*
X52851879Y35632781D01*
X57222781Y31261879D01*
X57256266Y31200556D01*
X57259100Y31174198D01*
X57259100Y29803765D01*
X57257328Y29787716D01*
X57257566Y29787694D01*
X57256831Y29779931D01*
X57259039Y29709695D01*
X57259100Y29705801D01*
X57259100Y29676923D01*
X57259657Y29672510D01*
X57260572Y29660880D01*
X57262012Y29615051D01*
X57262013Y29615050D01*
X57267967Y29594552D01*
X57271909Y29575514D01*
X57274584Y29554349D01*
X57274587Y29554337D01*
X57291461Y29511715D01*
X57295243Y29500668D01*
X57308035Y29456639D01*
X57308036Y29456637D01*
X57318900Y29438266D01*
X57327455Y29420804D01*
X57335310Y29400966D01*
X57335310Y29400965D01*
X57362258Y29363873D01*
X57368666Y29354117D01*
X57392009Y29314649D01*
X57407098Y29299560D01*
X57419729Y29284772D01*
X57432273Y29267508D01*
X57432277Y29267503D01*
X57467596Y29238284D01*
X57476234Y29230424D01*
X59000781Y27705878D01*
X59034266Y27644555D01*
X59037100Y27618197D01*
X59037100Y27337769D01*
X59017415Y27270730D01*
X58964611Y27224975D01*
X58895453Y27215031D01*
X58872143Y27220728D01*
X58853139Y27227378D01*
X58810518Y27232180D01*
X58746103Y27259246D01*
X58706548Y27316840D01*
X58701180Y27341518D01*
X58696378Y27384139D01*
X58636834Y27554305D01*
X58636834Y27554306D01*
X58628161Y27568106D01*
X58628160Y27568106D01*
X58265053Y27204999D01*
X58302217Y27167837D01*
X58648048Y26822006D01*
X58648050Y26822001D01*
X58939872Y26530182D01*
X58973357Y26468859D01*
X58968373Y26399167D01*
X58939872Y26354819D01*
X58625788Y26040736D01*
X58625780Y26040726D01*
X58265053Y25679999D01*
X58302217Y25642837D01*
X58648048Y25297006D01*
X58648050Y25297001D01*
X58939872Y25005182D01*
X58973357Y24943859D01*
X58968373Y24874167D01*
X58939872Y24829819D01*
X58625788Y24515736D01*
X58625780Y24515726D01*
X58265053Y24154999D01*
X58265053Y24154998D01*
X58628160Y23791892D01*
X58628161Y23791892D01*
X58636833Y23805692D01*
X58696378Y23975861D01*
X58701180Y24018482D01*
X58728246Y24082896D01*
X58785840Y24122451D01*
X58810515Y24127819D01*
X58853138Y24132621D01*
X58853145Y24132623D01*
X58872147Y24139272D01*
X58941926Y24142833D01*
X59002553Y24108103D01*
X59034779Y24046109D01*
X59037100Y24022230D01*
X59037100Y20808283D01*
X59017415Y20741244D01*
X58964611Y20695489D01*
X58895453Y20685545D01*
X58831897Y20714570D01*
X58795169Y20769965D01*
X58789395Y20787734D01*
X58739179Y20942284D01*
X58644533Y21106216D01*
X58517871Y21246888D01*
X58364730Y21358151D01*
X58191803Y21435144D01*
X58006646Y21474500D01*
X58006645Y21474500D01*
X57986202Y21474500D01*
X57919163Y21494185D01*
X57898521Y21510819D01*
X57094168Y22315172D01*
X56268443Y23140896D01*
X56234960Y23202217D01*
X56239944Y23271909D01*
X56281816Y23327842D01*
X56347280Y23352259D01*
X56370006Y23351796D01*
X56386500Y23349938D01*
X56386503Y23349938D01*
X56565638Y23370121D01*
X56735804Y23429665D01*
X56749604Y23438337D01*
X57548391Y23438337D01*
X57562191Y23429667D01*
X57562201Y23429662D01*
X57732358Y23370122D01*
X57732361Y23370121D01*
X57911497Y23349938D01*
X57911503Y23349938D01*
X58090638Y23370121D01*
X58260804Y23429665D01*
X58274606Y23438337D01*
X57911500Y23801447D01*
X57911499Y23801447D01*
X57548391Y23438338D01*
X57548391Y23438337D01*
X56749604Y23438337D01*
X56749606Y23438338D01*
X56386500Y23801447D01*
X56065438Y24122508D01*
X56286500Y24122508D01*
X56324697Y24069935D01*
X56370662Y24055000D01*
X56402338Y24055000D01*
X56448303Y24069935D01*
X56486500Y24122508D01*
X56486500Y24154998D01*
X56740053Y24154998D01*
X57103160Y23791891D01*
X57135122Y23795492D01*
X57162885Y23795491D01*
X57194837Y23791890D01*
X57525456Y24122508D01*
X57811500Y24122508D01*
X57849697Y24069935D01*
X57895662Y24055000D01*
X57927338Y24055000D01*
X57973303Y24069935D01*
X58011500Y24122508D01*
X58011500Y24187492D01*
X57973303Y24240065D01*
X57927338Y24255000D01*
X57895662Y24255000D01*
X57849697Y24240065D01*
X57811500Y24187492D01*
X57811500Y24122508D01*
X57525456Y24122508D01*
X57557946Y24154998D01*
X57557946Y24154999D01*
X57196137Y24516809D01*
X57149000Y24563946D01*
X56740053Y24154999D01*
X56740053Y24154998D01*
X56486500Y24154998D01*
X56486500Y24187492D01*
X56448303Y24240065D01*
X56402338Y24255000D01*
X56370662Y24255000D01*
X56324697Y24240065D01*
X56286500Y24187492D01*
X56286500Y24122508D01*
X56065438Y24122508D01*
X56043314Y24144632D01*
X55613632Y24574314D01*
X55358128Y24829819D01*
X55327992Y24885008D01*
X55524000Y24885008D01*
X55562197Y24832435D01*
X55608162Y24817500D01*
X55639838Y24817500D01*
X55685803Y24832435D01*
X55724000Y24885008D01*
X55724000Y24917499D01*
X55977553Y24917499D01*
X56012546Y24882508D01*
X56012548Y24882506D01*
X56386499Y24508553D01*
X56386501Y24508553D01*
X56760453Y24882507D01*
X56762954Y24885008D01*
X57049000Y24885008D01*
X57087197Y24832435D01*
X57133162Y24817500D01*
X57164838Y24817500D01*
X57210803Y24832435D01*
X57249000Y24885008D01*
X57249000Y24917499D01*
X57502553Y24917499D01*
X57537546Y24882508D01*
X57537548Y24882506D01*
X57911499Y24508553D01*
X57911501Y24508553D01*
X58285453Y24882507D01*
X58287954Y24885008D01*
X58574000Y24885008D01*
X58612197Y24832435D01*
X58658162Y24817500D01*
X58689838Y24817500D01*
X58735803Y24832435D01*
X58774000Y24885008D01*
X58774000Y24949992D01*
X58735803Y25002565D01*
X58689838Y25017500D01*
X58658162Y25017500D01*
X58612197Y25002565D01*
X58574000Y24949992D01*
X58574000Y24885008D01*
X58287954Y24885008D01*
X58320446Y24917500D01*
X57911500Y25326446D01*
X57502553Y24917499D01*
X57249000Y24917499D01*
X57249000Y24949992D01*
X57210803Y25002565D01*
X57164838Y25017500D01*
X57133162Y25017500D01*
X57087197Y25002565D01*
X57049000Y24949992D01*
X57049000Y24885008D01*
X56762954Y24885008D01*
X56795446Y24917500D01*
X56386500Y25326446D01*
X55977553Y24917499D01*
X55724000Y24917499D01*
X55724000Y24949992D01*
X55685803Y25002565D01*
X55639838Y25017500D01*
X55608162Y25017500D01*
X55562197Y25002565D01*
X55524000Y24949992D01*
X55524000Y24885008D01*
X55327992Y24885008D01*
X55324643Y24891142D01*
X55329627Y24960834D01*
X55358128Y25005181D01*
X55631068Y25278121D01*
X55631073Y25278127D01*
X56000454Y25647508D01*
X56286500Y25647508D01*
X56324697Y25594935D01*
X56370662Y25580000D01*
X56402338Y25580000D01*
X56448303Y25594935D01*
X56486500Y25647508D01*
X56486500Y25679999D01*
X56740053Y25679999D01*
X56777217Y25642837D01*
X56777219Y25642835D01*
X57148999Y25271053D01*
X57149001Y25271053D01*
X57520782Y25642836D01*
X57525454Y25647508D01*
X57811500Y25647508D01*
X57849697Y25594935D01*
X57895662Y25580000D01*
X57927338Y25580000D01*
X57973303Y25594935D01*
X58011500Y25647508D01*
X58011500Y25712492D01*
X57973303Y25765065D01*
X57927338Y25780000D01*
X57895662Y25780000D01*
X57849697Y25765065D01*
X57811500Y25712492D01*
X57811500Y25647508D01*
X57525454Y25647508D01*
X57557946Y25680000D01*
X57149000Y26088946D01*
X56740053Y25679999D01*
X56486500Y25679999D01*
X56486500Y25712492D01*
X56448303Y25765065D01*
X56402338Y25780000D01*
X56370662Y25780000D01*
X56324697Y25765065D01*
X56286500Y25712492D01*
X56286500Y25647508D01*
X56000454Y25647508D01*
X56032946Y25680000D01*
X55613632Y26099314D01*
X55358128Y26354819D01*
X55327992Y26410008D01*
X55524000Y26410008D01*
X55562197Y26357435D01*
X55608162Y26342500D01*
X55639838Y26342500D01*
X55685803Y26357435D01*
X55724000Y26410008D01*
X55724000Y26442499D01*
X55977553Y26442499D01*
X56026205Y26393849D01*
X56026206Y26393848D01*
X56386499Y26033553D01*
X56386501Y26033553D01*
X56746795Y26393849D01*
X56762954Y26410008D01*
X57049000Y26410008D01*
X57087197Y26357435D01*
X57133162Y26342500D01*
X57164838Y26342500D01*
X57210803Y26357435D01*
X57249000Y26410008D01*
X57249000Y26442499D01*
X57502553Y26442499D01*
X57551205Y26393849D01*
X57551206Y26393848D01*
X57911499Y26033553D01*
X57911501Y26033553D01*
X58271795Y26393849D01*
X58287954Y26410008D01*
X58574000Y26410008D01*
X58612197Y26357435D01*
X58658162Y26342500D01*
X58689838Y26342500D01*
X58735803Y26357435D01*
X58774000Y26410008D01*
X58774000Y26474992D01*
X58735803Y26527565D01*
X58689838Y26542500D01*
X58658162Y26542500D01*
X58612197Y26527565D01*
X58574000Y26474992D01*
X58574000Y26410008D01*
X58287954Y26410008D01*
X58320446Y26442500D01*
X57911500Y26851446D01*
X57502553Y26442499D01*
X57249000Y26442499D01*
X57249000Y26474992D01*
X57210803Y26527565D01*
X57164838Y26542500D01*
X57133162Y26542500D01*
X57087197Y26527565D01*
X57049000Y26474992D01*
X57049000Y26410008D01*
X56762954Y26410008D01*
X56795446Y26442500D01*
X56386500Y26851446D01*
X55977553Y26442499D01*
X55724000Y26442499D01*
X55724000Y26474992D01*
X55685803Y26527565D01*
X55639838Y26542500D01*
X55608162Y26542500D01*
X55562197Y26527565D01*
X55524000Y26474992D01*
X55524000Y26410008D01*
X55327992Y26410008D01*
X55324643Y26416142D01*
X55329627Y26485834D01*
X55358128Y26530181D01*
X55631068Y26803121D01*
X55631073Y26803127D01*
X56000454Y27172508D01*
X56286500Y27172508D01*
X56324697Y27119935D01*
X56370662Y27105000D01*
X56402338Y27105000D01*
X56448303Y27119935D01*
X56486500Y27172508D01*
X56486500Y27204999D01*
X56740053Y27204999D01*
X56777217Y27167837D01*
X56777219Y27167835D01*
X57148999Y26796053D01*
X57149001Y26796053D01*
X57520782Y27167836D01*
X57525454Y27172508D01*
X57811500Y27172508D01*
X57849697Y27119935D01*
X57895662Y27105000D01*
X57927338Y27105000D01*
X57973303Y27119935D01*
X58011500Y27172508D01*
X58011500Y27237492D01*
X57973303Y27290065D01*
X57927338Y27305000D01*
X57895662Y27305000D01*
X57849697Y27290065D01*
X57811500Y27237492D01*
X57811500Y27172508D01*
X57525454Y27172508D01*
X57557946Y27205000D01*
X57194838Y27568107D01*
X57162885Y27564507D01*
X57135122Y27564506D01*
X57103160Y27568106D01*
X56740053Y27204999D01*
X56486500Y27204999D01*
X56486500Y27237492D01*
X56448303Y27290065D01*
X56402338Y27305000D01*
X56370662Y27305000D01*
X56324697Y27290065D01*
X56286500Y27237492D01*
X56286500Y27172508D01*
X56000454Y27172508D01*
X56032946Y27205000D01*
X55669838Y27568107D01*
X55661165Y27554304D01*
X55601621Y27384138D01*
X55596819Y27341515D01*
X55569752Y27277102D01*
X55512157Y27237547D01*
X55487482Y27232180D01*
X55444859Y27227377D01*
X55274697Y27167836D01*
X55198873Y27120192D01*
X55131636Y27101191D01*
X55064801Y27121558D01*
X55019586Y27174826D01*
X55008900Y27225185D01*
X55008900Y27854232D01*
X55010671Y27870278D01*
X55010434Y27870301D01*
X55011166Y27878062D01*
X55011168Y27878069D01*
X55009797Y27921660D01*
X56023392Y27921660D01*
X56386500Y27558553D01*
X56386501Y27558553D01*
X56749606Y27921660D01*
X57548392Y27921660D01*
X57911500Y27558553D01*
X57911501Y27558553D01*
X58274606Y27921660D01*
X58274606Y27921661D01*
X58260805Y27930334D01*
X58090641Y27989877D01*
X58090638Y27989878D01*
X57911503Y28010062D01*
X57911497Y28010062D01*
X57732361Y27989878D01*
X57562192Y27930333D01*
X57548392Y27921661D01*
X57548392Y27921660D01*
X56749606Y27921660D01*
X56749606Y27921661D01*
X56735805Y27930334D01*
X56565641Y27989877D01*
X56565638Y27989878D01*
X56386503Y28010062D01*
X56386497Y28010062D01*
X56207361Y27989878D01*
X56037192Y27930333D01*
X56023392Y27921661D01*
X56023392Y27921660D01*
X55009797Y27921660D01*
X55008960Y27948290D01*
X55008900Y27952185D01*
X55008900Y27981073D01*
X55008900Y27981075D01*
X55008343Y27985477D01*
X55007425Y27997135D01*
X55006815Y28016540D01*
X55005986Y28042948D01*
X55000032Y28063437D01*
X54996088Y28082481D01*
X54993414Y28103660D01*
X54976532Y28146296D01*
X54972754Y28157329D01*
X54959964Y28201359D01*
X54949102Y28219725D01*
X54940541Y28237199D01*
X54932688Y28257037D01*
X54905731Y28294138D01*
X54899335Y28303876D01*
X54875992Y28343348D01*
X54860900Y28358439D01*
X54848270Y28373226D01*
X54835726Y28390493D01*
X54800390Y28419724D01*
X54791772Y28427566D01*
X52248626Y30970714D01*
X52031882Y31187457D01*
X51998399Y31248778D01*
X52003383Y31318469D01*
X52045254Y31374403D01*
X52089713Y31394580D01*
X52089626Y31394849D01*
X52092014Y31395625D01*
X52093775Y31396424D01*
X52095797Y31396853D01*
X52095807Y31396857D01*
X52268729Y31473848D01*
X52268734Y31473851D01*
X52421870Y31585111D01*
X52444536Y31610284D01*
X52548533Y31725784D01*
X52643179Y31889716D01*
X52701674Y32069744D01*
X52721460Y32258000D01*
X52701674Y32446256D01*
X52643179Y32626284D01*
X52548533Y32790216D01*
X52421871Y32930888D01*
X52268730Y33042151D01*
X52095803Y33119144D01*
X51910646Y33158500D01*
X51721354Y33158500D01*
X51536197Y33119144D01*
X51536192Y33119142D01*
X51363270Y33042151D01*
X51363265Y33042148D01*
X51215213Y32934582D01*
X51149407Y32911102D01*
X51142328Y32910900D01*
X29785802Y32910900D01*
X29718763Y32930585D01*
X29698121Y32947219D01*
X28149065Y34496275D01*
X23374573Y39270765D01*
X23341090Y39332086D01*
X23342481Y39390536D01*
X23344071Y39396474D01*
X23346070Y39403932D01*
X23359384Y39556111D01*
X23365323Y39623997D01*
X23365323Y39624002D01*
X23357500Y39713415D01*
X23346962Y39833870D01*
X30326000Y39833870D01*
X30341116Y39665903D01*
X30341117Y39665897D01*
X30400973Y39449015D01*
X30400978Y39449002D01*
X30498598Y39246291D01*
X30498602Y39246283D01*
X30630851Y39064258D01*
X30630857Y39064250D01*
X30793486Y38908762D01*
X30981266Y38784808D01*
X31188169Y38696375D01*
X31188176Y38696373D01*
X31325999Y38664915D01*
X31326000Y38664915D01*
X31326000Y40121177D01*
X31425895Y40079800D01*
X31538310Y40065000D01*
X31613690Y40065000D01*
X31726105Y40079800D01*
X31826000Y40121177D01*
X31826000Y38662449D01*
X31855278Y38666415D01*
X32069268Y38735945D01*
X32267401Y38842565D01*
X32267404Y38842567D01*
X32443320Y38982854D01*
X32591352Y39152292D01*
X32591359Y39152300D01*
X32706759Y39345446D01*
X32706761Y39345451D01*
X32785824Y39556110D01*
X32785824Y39556111D01*
X32826000Y39777494D01*
X32826000Y40390000D01*
X32094823Y40390000D01*
X32136200Y40489895D01*
X32155962Y40640000D01*
X32136200Y40790105D01*
X32094823Y40890000D01*
X32826000Y40890000D01*
X32826000Y41446126D01*
X32825999Y41446129D01*
X32810883Y41614096D01*
X32810882Y41614102D01*
X32751026Y41830984D01*
X32751021Y41830997D01*
X32653401Y42033708D01*
X32653397Y42033716D01*
X32521148Y42215741D01*
X32521142Y42215749D01*
X32358513Y42371237D01*
X32170733Y42495191D01*
X31963830Y42583624D01*
X31963821Y42583627D01*
X31826000Y42615084D01*
X31826000Y41158822D01*
X31726105Y41200200D01*
X31613690Y41215000D01*
X31538310Y41215000D01*
X31425895Y41200200D01*
X31326000Y41158822D01*
X31326000Y42617550D01*
X31296732Y42613586D01*
X31296726Y42613585D01*
X31082731Y42544054D01*
X30884598Y42437434D01*
X30884595Y42437432D01*
X30708679Y42297145D01*
X30560647Y42127707D01*
X30560640Y42127699D01*
X30445240Y41934553D01*
X30445238Y41934548D01*
X30366175Y41723889D01*
X30366175Y41723888D01*
X30326000Y41502505D01*
X30326000Y40890000D01*
X31057177Y40890000D01*
X31015800Y40790105D01*
X30996038Y40640000D01*
X31015800Y40489895D01*
X31057177Y40390000D01*
X30326000Y40390000D01*
X30326000Y39833870D01*
X23346962Y39833870D01*
X23346070Y39844068D01*
X23288894Y40057450D01*
X23195534Y40257661D01*
X23068826Y40438620D01*
X22912620Y40594826D01*
X22731662Y40721534D01*
X22602811Y40781618D01*
X22550371Y40827790D01*
X22531219Y40894983D01*
X22551435Y40961865D01*
X22602811Y41006382D01*
X22731658Y41066464D01*
X22731666Y41066468D01*
X22912615Y41193170D01*
X22912621Y41193175D01*
X23068824Y41349378D01*
X23068829Y41349384D01*
X23195531Y41530333D01*
X23195533Y41530337D01*
X23195534Y41530338D01*
X23288894Y41730550D01*
X23346070Y41943932D01*
X23365323Y42164000D01*
X23363234Y42187873D01*
X23358019Y42247483D01*
X23346070Y42384068D01*
X23288894Y42597450D01*
X23195534Y42797661D01*
X23068826Y42978620D01*
X22912620Y43134826D01*
X22731662Y43261534D01*
X22602218Y43321894D01*
X22549779Y43368066D01*
X22530627Y43435259D01*
X22550843Y43502141D01*
X22602219Y43546658D01*
X22731405Y43606898D01*
X22731411Y43606901D01*
X22796187Y43652258D01*
X22796188Y43652259D01*
X22125448Y44323000D01*
X22129569Y44323000D01*
X22223421Y44338661D01*
X22335251Y44399180D01*
X22421371Y44492731D01*
X22472448Y44609177D01*
X22478105Y44677446D01*
X23149740Y44005810D01*
X23195099Y44070590D01*
X23195100Y44070592D01*
X23288419Y44270715D01*
X23288424Y44270729D01*
X23345573Y44484013D01*
X23345575Y44484023D01*
X23364821Y44703999D01*
X23364821Y44704000D01*
X23353458Y44833870D01*
X30326000Y44833870D01*
X30341116Y44665903D01*
X30341117Y44665897D01*
X30400973Y44449015D01*
X30400978Y44449002D01*
X30498598Y44246291D01*
X30498602Y44246283D01*
X30630851Y44064258D01*
X30630857Y44064250D01*
X30793486Y43908762D01*
X30981266Y43784808D01*
X31188169Y43696375D01*
X31188176Y43696373D01*
X31325999Y43664915D01*
X31326000Y43664915D01*
X31326000Y45121177D01*
X31425895Y45079800D01*
X31538310Y45065000D01*
X31613690Y45065000D01*
X31726105Y45079800D01*
X31826000Y45121177D01*
X31826000Y43662449D01*
X31855278Y43666415D01*
X32069268Y43735945D01*
X32267401Y43842565D01*
X32267404Y43842567D01*
X32443320Y43982854D01*
X32538790Y44092129D01*
X35325500Y44092129D01*
X35325501Y44092123D01*
X35331908Y44032516D01*
X35382202Y43897671D01*
X35382206Y43897664D01*
X35468452Y43782455D01*
X35468455Y43782452D01*
X35583664Y43696206D01*
X35583671Y43696202D01*
X35718517Y43645908D01*
X35718516Y43645908D01*
X35778116Y43639501D01*
X35778119Y43639500D01*
X35778127Y43639500D01*
X35778134Y43639500D01*
X35778135Y43639500D01*
X37373870Y43639500D01*
X37373876Y43639501D01*
X37433483Y43645908D01*
X37568328Y43696202D01*
X37568335Y43696206D01*
X37683544Y43782452D01*
X37683547Y43782455D01*
X37769793Y43897664D01*
X37769797Y43897671D01*
X37820091Y44032517D01*
X37822652Y44056341D01*
X37826500Y44092127D01*
X37826499Y45832000D01*
X46702000Y45832000D01*
X46702000Y45413469D01*
X46716648Y45283460D01*
X46774330Y45118613D01*
X46867246Y44970737D01*
X46990737Y44847246D01*
X47138613Y44754330D01*
X47303460Y44696648D01*
X47433469Y44682000D01*
X47502000Y44682000D01*
X47502000Y45832000D01*
X48002000Y45832000D01*
X48002000Y44682000D01*
X48070530Y44682000D01*
X48200539Y44696648D01*
X48365386Y44754330D01*
X48513262Y44847246D01*
X48636753Y44970737D01*
X48729669Y45118613D01*
X48787351Y45283460D01*
X48801999Y45413469D01*
X48802000Y45413473D01*
X48802000Y45832000D01*
X48002000Y45832000D01*
X47502000Y45832000D01*
X46702000Y45832000D01*
X37826499Y45832000D01*
X37826499Y47187872D01*
X37820091Y47247483D01*
X37769796Y47382331D01*
X37694105Y47483441D01*
X45431500Y47483441D01*
X45446157Y47353351D01*
X45446159Y47353341D01*
X45503877Y47188395D01*
X45596853Y47040423D01*
X45720423Y46916853D01*
X45868395Y46823877D01*
X46033341Y46766159D01*
X46033351Y46766157D01*
X46163441Y46751500D01*
X46578000Y46751500D01*
X46645039Y46731815D01*
X46690794Y46679011D01*
X46702000Y46627500D01*
X46702000Y46332000D01*
X47403148Y46332000D01*
X47403837Y46329281D01*
X47472289Y46224508D01*
X47571052Y46147637D01*
X47689424Y46107000D01*
X47783073Y46107000D01*
X47875446Y46122414D01*
X47985514Y46181981D01*
X48070278Y46274059D01*
X48095693Y46332000D01*
X48802000Y46332000D01*
X48802000Y46627500D01*
X48821685Y46694539D01*
X48874489Y46740294D01*
X48926000Y46751500D01*
X49619870Y46751500D01*
X49619876Y46751501D01*
X49679483Y46757908D01*
X49814328Y46808202D01*
X49814335Y46808206D01*
X49929544Y46894452D01*
X49929547Y46894455D01*
X50015793Y47009664D01*
X50015797Y47009671D01*
X50066091Y47144517D01*
X50070752Y47187873D01*
X50072500Y47204127D01*
X50072499Y49099872D01*
X50066091Y49159483D01*
X50015796Y49294331D01*
X49929546Y49409546D01*
X49814331Y49495796D01*
X49679483Y49546091D01*
X49619873Y49552500D01*
X48424128Y49552499D01*
X48375757Y49547299D01*
X48364516Y49546091D01*
X48229671Y49495797D01*
X48229664Y49495793D01*
X48114455Y49409547D01*
X48114452Y49409544D01*
X48028206Y49294335D01*
X48028202Y49294328D01*
X47977908Y49159482D01*
X47973191Y49115604D01*
X47971501Y49099876D01*
X47971500Y49099864D01*
X47971500Y47204129D01*
X47971501Y47204123D01*
X47977908Y47144516D01*
X47994182Y47100886D01*
X48002000Y47057553D01*
X48002000Y46762617D01*
X47932948Y46816363D01*
X47814576Y46857000D01*
X47720927Y46857000D01*
X47628554Y46841586D01*
X47518486Y46782019D01*
X47502000Y46764110D01*
X47502000Y47287001D01*
X47508958Y47327955D01*
X47517840Y47353340D01*
X47517842Y47353348D01*
X47532499Y47483441D01*
X47532500Y47483445D01*
X47532500Y48820554D01*
X47532499Y48820558D01*
X47517842Y48950648D01*
X47517841Y48950657D01*
X47460122Y49115606D01*
X47367147Y49263576D01*
X47243576Y49387147D01*
X47095606Y49480122D01*
X46930657Y49537841D01*
X46800555Y49552499D01*
X46800554Y49552500D01*
X46800552Y49552500D01*
X46163448Y49552500D01*
X46163446Y49552500D01*
X46163443Y49552499D01*
X46074750Y49542506D01*
X46033351Y49537842D01*
X46033349Y49537841D01*
X46033343Y49537841D01*
X45868394Y49480122D01*
X45720424Y49387147D01*
X45720423Y49387146D01*
X45596853Y49263576D01*
X45503877Y49115604D01*
X45446159Y48950658D01*
X45446157Y48950648D01*
X45431500Y48820558D01*
X45431500Y47483441D01*
X37694105Y47483441D01*
X37683546Y47497546D01*
X37568331Y47583796D01*
X37433483Y47634091D01*
X37373873Y47640500D01*
X35778128Y47640499D01*
X35729757Y47635299D01*
X35718516Y47634091D01*
X35583671Y47583797D01*
X35583664Y47583793D01*
X35468455Y47497547D01*
X35468452Y47497544D01*
X35382206Y47382335D01*
X35382202Y47382328D01*
X35331908Y47247482D01*
X35327247Y47204123D01*
X35325501Y47187876D01*
X35325500Y47187864D01*
X35325500Y44092129D01*
X32538790Y44092129D01*
X32591352Y44152292D01*
X32591359Y44152300D01*
X32706759Y44345446D01*
X32706761Y44345451D01*
X32785824Y44556110D01*
X32785824Y44556111D01*
X32826000Y44777494D01*
X32826000Y45390000D01*
X32094823Y45390000D01*
X32136200Y45489895D01*
X32155962Y45640000D01*
X32136200Y45790105D01*
X32094823Y45890000D01*
X32826000Y45890000D01*
X32826000Y46446126D01*
X32825999Y46446129D01*
X32810883Y46614096D01*
X32810882Y46614102D01*
X32751026Y46830984D01*
X32751021Y46830997D01*
X32653401Y47033708D01*
X32653397Y47033716D01*
X32521148Y47215741D01*
X32521142Y47215749D01*
X32358513Y47371237D01*
X32170733Y47495191D01*
X31963830Y47583624D01*
X31963821Y47583627D01*
X31826000Y47615084D01*
X31826000Y46158822D01*
X31726105Y46200200D01*
X31613690Y46215000D01*
X31538310Y46215000D01*
X31425895Y46200200D01*
X31326000Y46158822D01*
X31326000Y47617550D01*
X31296732Y47613586D01*
X31296726Y47613585D01*
X31082731Y47544054D01*
X30884598Y47437434D01*
X30884595Y47437432D01*
X30708679Y47297145D01*
X30560647Y47127707D01*
X30560640Y47127699D01*
X30445240Y46934553D01*
X30445238Y46934548D01*
X30366175Y46723889D01*
X30366175Y46723888D01*
X30326000Y46502505D01*
X30326000Y45890000D01*
X31057177Y45890000D01*
X31015800Y45790105D01*
X30996038Y45640000D01*
X31015800Y45489895D01*
X31057177Y45390000D01*
X30326000Y45390000D01*
X30326000Y44833870D01*
X23353458Y44833870D01*
X23345575Y44923976D01*
X23345573Y44923986D01*
X23288424Y45137270D01*
X23288420Y45137279D01*
X23195098Y45337409D01*
X23149740Y45402188D01*
X22482903Y44735351D01*
X22482949Y44735898D01*
X22451734Y44859162D01*
X22382187Y44965612D01*
X22281843Y45043713D01*
X22161578Y45085000D01*
X22125448Y45085000D01*
X22796188Y45755741D01*
X22731417Y45801094D01*
X22731407Y45801100D01*
X22531284Y45894419D01*
X22531270Y45894424D01*
X22317986Y45951573D01*
X22317976Y45951575D01*
X22098001Y45970821D01*
X22097999Y45970821D01*
X21878023Y45951575D01*
X21878013Y45951573D01*
X21664729Y45894424D01*
X21664720Y45894420D01*
X21464586Y45801096D01*
X21399811Y45755741D01*
X21399810Y45755740D01*
X22070553Y45085000D01*
X22066431Y45085000D01*
X21972579Y45069339D01*
X21860749Y45008820D01*
X21774629Y44915269D01*
X21723552Y44798823D01*
X21717894Y44730552D01*
X21046258Y45402188D01*
X21046257Y45402187D01*
X21000903Y45337413D01*
X20907579Y45137279D01*
X20907575Y45137270D01*
X20850426Y44923986D01*
X20850424Y44923976D01*
X20831179Y44704000D01*
X20831179Y44703999D01*
X20850424Y44484023D01*
X20850426Y44484013D01*
X20907575Y44270729D01*
X20907580Y44270715D01*
X21000901Y44070588D01*
X21000902Y44070586D01*
X21046257Y44005811D01*
X21046258Y44005810D01*
X21713096Y44672648D01*
X21713051Y44672102D01*
X21744266Y44548838D01*
X21813813Y44442388D01*
X21914157Y44364287D01*
X22034422Y44323000D01*
X22070553Y44323000D01*
X21399810Y43652258D01*
X21399811Y43652257D01*
X21464585Y43606902D01*
X21593781Y43546657D01*
X21646220Y43500484D01*
X21665372Y43433290D01*
X21645156Y43366409D01*
X21593781Y43321894D01*
X21464339Y43261534D01*
X21464338Y43261533D01*
X21283377Y43134824D01*
X21127175Y42978622D01*
X21000466Y42797661D01*
X20907106Y42597450D01*
X20907104Y42597445D01*
X20849930Y42384070D01*
X20849929Y42384062D01*
X20830677Y42164002D01*
X20830677Y42163997D01*
X20849929Y41943937D01*
X20849930Y41943929D01*
X20907104Y41730554D01*
X20907107Y41730548D01*
X21000466Y41530337D01*
X21000468Y41530333D01*
X21127170Y41349384D01*
X21127175Y41349378D01*
X21283378Y41193175D01*
X21283384Y41193170D01*
X21464333Y41066468D01*
X21464338Y41066466D01*
X21593189Y41006381D01*
X21645628Y40960208D01*
X21664780Y40893014D01*
X21644564Y40826133D01*
X21593189Y40781618D01*
X21464339Y40721534D01*
X21464338Y40721533D01*
X21283377Y40594824D01*
X21127175Y40438622D01*
X21093130Y40390000D01*
X21000466Y40257661D01*
X20907106Y40057450D01*
X20907104Y40057445D01*
X20849930Y39844070D01*
X20849929Y39844062D01*
X20830677Y39624002D01*
X20830677Y39623997D01*
X20849929Y39403937D01*
X20849930Y39403929D01*
X20907104Y39190554D01*
X20907107Y39190548D01*
X21000466Y38990337D01*
X21000468Y38990333D01*
X21127170Y38809384D01*
X21127175Y38809378D01*
X21283378Y38653175D01*
X21283384Y38653170D01*
X21464333Y38526468D01*
X21464337Y38526466D01*
X21664548Y38433107D01*
X21664554Y38433104D01*
X21877929Y38375930D01*
X21877937Y38375929D01*
X22097998Y38356677D01*
X22098000Y38356677D01*
X22098002Y38356677D01*
X22318061Y38375929D01*
X22318075Y38375931D01*
X22331464Y38379519D01*
X22401314Y38377854D01*
X22451234Y38347424D01*
X28180879Y32617781D01*
X28214364Y32556458D01*
X28209380Y32486766D01*
X28167508Y32430833D01*
X28102044Y32406416D01*
X28093198Y32406100D01*
X22670602Y32406100D01*
X22603563Y32425785D01*
X22582921Y32442419D01*
X20881994Y34143346D01*
X15754573Y39270765D01*
X15721090Y39332086D01*
X15722481Y39390536D01*
X15724071Y39396474D01*
X15726070Y39403932D01*
X15739384Y39556111D01*
X15745323Y39623997D01*
X15745323Y39624002D01*
X15737500Y39713415D01*
X15726070Y39844068D01*
X15668894Y40057450D01*
X15575534Y40257661D01*
X15448826Y40438620D01*
X15292620Y40594826D01*
X15111662Y40721534D01*
X14982811Y40781618D01*
X14930371Y40827790D01*
X14911219Y40894983D01*
X14931435Y40961865D01*
X14982811Y41006382D01*
X15111658Y41066464D01*
X15111666Y41066468D01*
X15292615Y41193170D01*
X15292621Y41193175D01*
X15448824Y41349378D01*
X15448829Y41349384D01*
X15575531Y41530333D01*
X15575533Y41530337D01*
X15575534Y41530338D01*
X15668894Y41730550D01*
X15726070Y41943932D01*
X15745323Y42164000D01*
X15743234Y42187873D01*
X15738019Y42247483D01*
X15726070Y42384068D01*
X15668894Y42597450D01*
X15575534Y42797661D01*
X15448826Y42978620D01*
X15292620Y43134826D01*
X15111662Y43261534D01*
X14982218Y43321894D01*
X14929779Y43368066D01*
X14910627Y43435259D01*
X14930843Y43502141D01*
X14982219Y43546658D01*
X15111405Y43606898D01*
X15111411Y43606901D01*
X15176187Y43652258D01*
X15176188Y43652259D01*
X14505448Y44323000D01*
X14509569Y44323000D01*
X14603421Y44338661D01*
X14715251Y44399180D01*
X14801371Y44492731D01*
X14852448Y44609177D01*
X14858105Y44677446D01*
X15529740Y44005810D01*
X15575099Y44070590D01*
X15575100Y44070592D01*
X15668419Y44270715D01*
X15668424Y44270729D01*
X15725573Y44484013D01*
X15725575Y44484023D01*
X15744821Y44703999D01*
X15744821Y44704000D01*
X15725575Y44923976D01*
X15725573Y44923986D01*
X15668424Y45137270D01*
X15668420Y45137279D01*
X15575098Y45337409D01*
X15529740Y45402188D01*
X14862903Y44735351D01*
X14862949Y44735898D01*
X14831734Y44859162D01*
X14762187Y44965612D01*
X14661843Y45043713D01*
X14541578Y45085000D01*
X14505448Y45085000D01*
X15176188Y45755741D01*
X15111417Y45801094D01*
X15111407Y45801100D01*
X14911284Y45894419D01*
X14911270Y45894424D01*
X14697986Y45951573D01*
X14697976Y45951575D01*
X14478001Y45970821D01*
X14477999Y45970821D01*
X14258023Y45951575D01*
X14258013Y45951573D01*
X14044729Y45894424D01*
X14044720Y45894420D01*
X13844586Y45801096D01*
X13779811Y45755741D01*
X13779810Y45755740D01*
X14450553Y45085000D01*
X14446431Y45085000D01*
X14352579Y45069339D01*
X14240749Y45008820D01*
X14154629Y44915269D01*
X14103552Y44798823D01*
X14097894Y44730552D01*
X13426258Y45402188D01*
X13426257Y45402187D01*
X13380903Y45337413D01*
X13287579Y45137279D01*
X13287575Y45137270D01*
X13230426Y44923986D01*
X13230424Y44923976D01*
X13211179Y44704000D01*
X13211179Y44703999D01*
X13230424Y44484023D01*
X13230426Y44484013D01*
X13287575Y44270729D01*
X13287580Y44270715D01*
X13380901Y44070588D01*
X13380902Y44070586D01*
X13426257Y44005811D01*
X13426258Y44005810D01*
X14093096Y44672648D01*
X14093051Y44672102D01*
X14124266Y44548838D01*
X14193813Y44442388D01*
X14294157Y44364287D01*
X14414422Y44323000D01*
X14450553Y44323000D01*
X13779810Y43652258D01*
X13779811Y43652257D01*
X13844585Y43606902D01*
X13973781Y43546657D01*
X14026220Y43500484D01*
X14045372Y43433290D01*
X14025156Y43366409D01*
X13973781Y43321894D01*
X13844339Y43261534D01*
X13844338Y43261533D01*
X13663377Y43134824D01*
X13507175Y42978622D01*
X13380466Y42797661D01*
X13287106Y42597450D01*
X13287104Y42597445D01*
X13229930Y42384070D01*
X13229929Y42384062D01*
X13210677Y42164002D01*
X13210677Y42163997D01*
X13229929Y41943938D01*
X13229931Y41943925D01*
X13233520Y41930531D01*
X13231853Y41860681D01*
X13201424Y41810764D01*
X12962579Y41571919D01*
X12949981Y41561827D01*
X12950134Y41561643D01*
X12944122Y41556668D01*
X12944118Y41556666D01*
X12919390Y41530333D01*
X12896009Y41505435D01*
X12893296Y41502636D01*
X12872888Y41482229D01*
X12870160Y41478712D01*
X12862575Y41469831D01*
X12831193Y41436413D01*
X12820914Y41417715D01*
X12810233Y41401455D01*
X12797336Y41384828D01*
X12797156Y41384596D01*
X12797154Y41384594D01*
X12794189Y41377741D01*
X12778940Y41342504D01*
X12773816Y41332045D01*
X12751724Y41291859D01*
X12751723Y41291856D01*
X12746416Y41271187D01*
X12740115Y41252784D01*
X12731641Y41233201D01*
X12731639Y41233195D01*
X12724469Y41187920D01*
X12722100Y41176481D01*
X12710700Y41132083D01*
X12710700Y41110738D01*
X12709173Y41091337D01*
X12705836Y41070271D01*
X500Y41070271D01*
X500Y44997438D01*
X553Y44999999D01*
X3394551Y44999999D01*
X3402084Y44904284D01*
X3402466Y44894555D01*
X3402466Y44874271D01*
X3405639Y44854237D01*
X3406783Y44844571D01*
X3414317Y44748851D01*
X3414318Y44748844D01*
X3436728Y44655499D01*
X3438627Y44645953D01*
X3441801Y44625913D01*
X3441803Y44625904D01*
X3448071Y44606615D01*
X3450714Y44597244D01*
X3473125Y44503891D01*
X3509868Y44415185D01*
X3513235Y44406059D01*
X3519507Y44386757D01*
X3528716Y44368682D01*
X3532787Y44359851D01*
X3569534Y44271141D01*
X3619700Y44189275D01*
X3624451Y44180792D01*
X3633662Y44162716D01*
X3633667Y44162709D01*
X3645589Y44146298D01*
X3650991Y44138212D01*
X3701165Y44056339D01*
X3763518Y43983332D01*
X3769541Y43975692D01*
X3781468Y43959276D01*
X3795825Y43944918D01*
X3802425Y43937777D01*
X3864775Y43864775D01*
X3937777Y43802425D01*
X3944918Y43795825D01*
X3959276Y43781468D01*
X3975692Y43769541D01*
X3983332Y43763518D01*
X4056339Y43701165D01*
X4138212Y43650991D01*
X4146298Y43645589D01*
X4162709Y43633667D01*
X4162716Y43633662D01*
X4180792Y43624451D01*
X4189275Y43619700D01*
X4249433Y43582836D01*
X4271141Y43569534D01*
X4359851Y43532787D01*
X4368682Y43528716D01*
X4386757Y43519507D01*
X4406059Y43513235D01*
X4415185Y43509868D01*
X4503891Y43473125D01*
X4597244Y43450714D01*
X4606615Y43448071D01*
X4625904Y43441803D01*
X4625913Y43441801D01*
X4645953Y43438627D01*
X4655499Y43436728D01*
X4748844Y43414318D01*
X4748851Y43414317D01*
X4844571Y43406783D01*
X4854237Y43405639D01*
X4857612Y43405104D01*
X4874271Y43402466D01*
X4874272Y43402466D01*
X4894557Y43402466D01*
X4904284Y43402084D01*
X5000000Y43394551D01*
X5095715Y43402084D01*
X5105443Y43402466D01*
X5125734Y43402466D01*
X5145762Y43405638D01*
X5155429Y43406783D01*
X5205531Y43410726D01*
X5251148Y43414317D01*
X5251151Y43414317D01*
X5251153Y43414318D01*
X5344500Y43436728D01*
X5354046Y43438627D01*
X5374090Y43441802D01*
X5393390Y43448072D01*
X5402756Y43450714D01*
X5496114Y43473127D01*
X5584809Y43509866D01*
X5593937Y43513234D01*
X5609199Y43518194D01*
X5613240Y43519507D01*
X5613244Y43519509D01*
X5631315Y43528716D01*
X5640153Y43532790D01*
X5728857Y43569532D01*
X5810728Y43619702D01*
X5819216Y43624456D01*
X5830364Y43630137D01*
X5837290Y43633666D01*
X5853701Y43645589D01*
X5861790Y43650993D01*
X5943652Y43701160D01*
X5943659Y43701164D01*
X5943663Y43701168D01*
X5943668Y43701171D01*
X6016660Y43763512D01*
X6024304Y43769539D01*
X6040723Y43781468D01*
X6055068Y43795813D01*
X6062217Y43802422D01*
X6135223Y43864775D01*
X6138817Y43868983D01*
X6197584Y43937790D01*
X6204179Y43944924D01*
X6218529Y43959274D01*
X6218531Y43959276D01*
X6230463Y43975699D01*
X6236480Y43983332D01*
X6298836Y44056341D01*
X6298838Y44056344D01*
X6298839Y44056345D01*
X6349001Y44138202D01*
X6354408Y44146295D01*
X6366334Y44162710D01*
X6366337Y44162716D01*
X6375550Y44180798D01*
X6380298Y44189275D01*
X6430466Y44271141D01*
X6461244Y44345446D01*
X6467208Y44359843D01*
X6471283Y44368684D01*
X6480492Y44386759D01*
X6480493Y44386760D01*
X6486766Y44406066D01*
X6490122Y44415166D01*
X6526873Y44503889D01*
X6549286Y44597247D01*
X6551927Y44606610D01*
X6558198Y44625910D01*
X6558199Y44625914D01*
X6561371Y44645946D01*
X6563265Y44655477D01*
X6585683Y44748852D01*
X6593217Y44844588D01*
X6594355Y44854199D01*
X6597534Y44874271D01*
X6598119Y44904133D01*
X6598476Y44911402D01*
X6605449Y45000000D01*
X6598476Y45088599D01*
X6598119Y45095880D01*
X6597673Y45118613D01*
X6597534Y45125729D01*
X6594355Y45145800D01*
X6593216Y45155429D01*
X6585683Y45251148D01*
X6563264Y45344527D01*
X6561373Y45354040D01*
X6558198Y45374090D01*
X6551923Y45393400D01*
X6549285Y45402756D01*
X6533113Y45470118D01*
X6526877Y45496096D01*
X6526875Y45496100D01*
X6526873Y45496111D01*
X6490113Y45584855D01*
X6486770Y45593921D01*
X6480493Y45613240D01*
X6471270Y45631341D01*
X6467221Y45640123D01*
X6430466Y45728859D01*
X6380286Y45810744D01*
X6375554Y45819193D01*
X6366334Y45837290D01*
X6354401Y45853714D01*
X6349011Y45861780D01*
X6298836Y45943659D01*
X6236462Y46016688D01*
X6230476Y46024282D01*
X6218531Y46040724D01*
X6204171Y46055083D01*
X6197596Y46062194D01*
X6135224Y46135224D01*
X6062194Y46197596D01*
X6055083Y46204171D01*
X6040724Y46218531D01*
X6024282Y46230476D01*
X6016688Y46236462D01*
X5943659Y46298836D01*
X5861780Y46349011D01*
X5853714Y46354401D01*
X5837290Y46366334D01*
X5819193Y46375554D01*
X5810744Y46380286D01*
X5728859Y46430466D01*
X5640123Y46467221D01*
X5631341Y46471270D01*
X5613240Y46480493D01*
X5593921Y46486770D01*
X5584855Y46490113D01*
X5496111Y46526873D01*
X5496100Y46526875D01*
X5496096Y46526877D01*
X5470118Y46533113D01*
X5402745Y46549287D01*
X5393400Y46551923D01*
X5374090Y46558198D01*
X5354040Y46561373D01*
X5344527Y46563264D01*
X5251148Y46585683D01*
X5155408Y46593217D01*
X5145803Y46594354D01*
X5125729Y46597534D01*
X5125725Y46597534D01*
X5105443Y46597534D01*
X5095715Y46597915D01*
X5000000Y46605449D01*
X4904284Y46597915D01*
X4894557Y46597534D01*
X4874275Y46597534D01*
X4874271Y46597534D01*
X4854196Y46594354D01*
X4844591Y46593217D01*
X4748852Y46585683D01*
X4655477Y46563265D01*
X4645954Y46561372D01*
X4636176Y46559824D01*
X4625914Y46558199D01*
X4625910Y46558198D01*
X4606610Y46551927D01*
X4597247Y46549286D01*
X4503889Y46526873D01*
X4415166Y46490122D01*
X4406066Y46486766D01*
X4386760Y46480493D01*
X4373290Y46473629D01*
X4368684Y46471283D01*
X4359843Y46467208D01*
X4280936Y46434523D01*
X4271141Y46430466D01*
X4189260Y46380289D01*
X4180798Y46375550D01*
X4162714Y46366336D01*
X4162710Y46366334D01*
X4146295Y46354408D01*
X4138202Y46349001D01*
X4056345Y46298839D01*
X4056344Y46298838D01*
X4056341Y46298836D01*
X3983327Y46236476D01*
X3975699Y46230463D01*
X3959276Y46218531D01*
X3959274Y46218529D01*
X3944924Y46204179D01*
X3937790Y46197584D01*
X3864776Y46135224D01*
X3864775Y46135223D01*
X3802422Y46062217D01*
X3795813Y46055068D01*
X3781468Y46040723D01*
X3769539Y46024304D01*
X3763512Y46016660D01*
X3701171Y45943668D01*
X3701168Y45943663D01*
X3701164Y45943659D01*
X3701160Y45943652D01*
X3650993Y45861790D01*
X3645587Y45853698D01*
X3633666Y45837290D01*
X3632465Y45834932D01*
X3624456Y45819216D01*
X3619702Y45810728D01*
X3569532Y45728857D01*
X3532790Y45640153D01*
X3528716Y45631315D01*
X3519509Y45613244D01*
X3519507Y45613240D01*
X3519505Y45613233D01*
X3513234Y45593937D01*
X3509866Y45584809D01*
X3473127Y45496114D01*
X3450714Y45402756D01*
X3448072Y45393390D01*
X3441802Y45374090D01*
X3438627Y45354046D01*
X3436728Y45344500D01*
X3435027Y45337413D01*
X3414317Y45251148D01*
X3410828Y45206822D01*
X3406783Y45155429D01*
X3405638Y45145762D01*
X3402466Y45125734D01*
X3402466Y45105443D01*
X3402084Y45095715D01*
X3400832Y45079800D01*
X3394551Y44999999D01*
X553Y44999999D01*
X606Y45002562D01*
X3368Y45069339D01*
X9495Y45217486D01*
X10965Y45251143D01*
X18053Y45413469D01*
X18881Y45423330D01*
X45493Y45636817D01*
X71578Y45834953D01*
X73149Y45844173D01*
X117068Y46053632D01*
X117323Y46054814D01*
X160680Y46250382D01*
X162882Y46258874D01*
X223838Y46463620D01*
X224409Y46465483D01*
X226238Y46471283D01*
X284703Y46656711D01*
X287427Y46664443D01*
X365031Y46863324D01*
X365930Y46865560D01*
X442745Y47051008D01*
X445875Y47057949D01*
X539617Y47249702D01*
X540940Y47252323D01*
X633652Y47430420D01*
X637118Y47436636D01*
X742556Y47613585D01*
X746259Y47619799D01*
X748198Y47622946D01*
X755299Y47634091D01*
X788681Y47686491D01*
X856078Y47792282D01*
X859740Y47797709D01*
X862768Y47801950D01*
X983619Y47971213D01*
X986105Y47974570D01*
X1108392Y48133938D01*
X1112141Y48138586D01*
X1249875Y48301207D01*
X1253074Y48304839D01*
X1388746Y48452900D01*
X1392488Y48456808D01*
X1543190Y48607510D01*
X1547098Y48611252D01*
X1695159Y48746924D01*
X1698791Y48750123D01*
X1861412Y48887857D01*
X1866066Y48891611D01*
X2007321Y49000000D01*
X2025409Y49013880D01*
X2028806Y49016394D01*
X2145713Y49099864D01*
X2202289Y49140258D01*
X2207716Y49143920D01*
X2377052Y49251800D01*
X2380205Y49253743D01*
X2563362Y49362880D01*
X2569578Y49366346D01*
X2695402Y49431847D01*
X2747613Y49459026D01*
X2750360Y49460413D01*
X2942021Y49554109D01*
X2949024Y49557268D01*
X3134369Y49634040D01*
X3136747Y49634996D01*
X3335528Y49712561D01*
X3343316Y49715305D01*
X3534515Y49775589D01*
X3536420Y49776173D01*
X3741099Y49837109D01*
X3749643Y49839325D01*
X3945084Y49882653D01*
X3946475Y49882953D01*
X4155804Y49926845D01*
X4165066Y49928423D01*
X4362830Y49954459D01*
X4363677Y49954568D01*
X4576641Y49981114D01*
X4586570Y49981948D01*
X4782617Y49990508D01*
X4782901Y49990520D01*
X4997437Y49999394D01*
X5002562Y49999500D01*
X66997438Y49999500D01*
X67002563Y49999394D01*
G37*
G04 #@! TD.AperFunction*
M02*
