G04 #@! TF.GenerationSoftware,KiCad,Pcbnew,7.0.10*
G04 #@! TF.CreationDate,2024-02-23T22:27:58+01:00*
G04 #@! TF.ProjectId,WLED_Controller,574c4544-5f43-46f6-9e74-726f6c6c6572,rev?*
G04 #@! TF.SameCoordinates,Original*
G04 #@! TF.FileFunction,Legend,Bot*
G04 #@! TF.FilePolarity,Positive*
%FSLAX46Y46*%
G04 Gerber Fmt 4.6, Leading zero omitted, Abs format (unit mm)*
G04 Created by KiCad (PCBNEW 7.0.10) date 2024-02-23 22:27:58*
%MOMM*%
%LPD*%
G01*
G04 APERTURE LIST*
G04 Aperture macros list*
%AMRoundRect*
0 Rectangle with rounded corners*
0 $1 Rounding radius*
0 $2 $3 $4 $5 $6 $7 $8 $9 X,Y pos of 4 corners*
0 Add a 4 corners polygon primitive as box body*
4,1,4,$2,$3,$4,$5,$6,$7,$8,$9,$2,$3,0*
0 Add four circle primitives for the rounded corners*
1,1,$1+$1,$2,$3*
1,1,$1+$1,$4,$5*
1,1,$1+$1,$6,$7*
1,1,$1+$1,$8,$9*
0 Add four rect primitives between the rounded corners*
20,1,$1+$1,$2,$3,$4,$5,0*
20,1,$1+$1,$4,$5,$6,$7,0*
20,1,$1+$1,$6,$7,$8,$9,0*
20,1,$1+$1,$8,$9,$2,$3,0*%
G04 Aperture macros list end*
%ADD10C,0.300000*%
%ADD11C,0.150000*%
%ADD12C,0.120000*%
%ADD13R,1.500000X3.000000*%
%ADD14O,1.500000X3.000000*%
%ADD15C,2.000000*%
%ADD16R,3.000000X1.500000*%
%ADD17O,3.000000X1.500000*%
%ADD18R,1.100000X1.800000*%
%ADD19RoundRect,0.275000X0.275000X0.625000X-0.275000X0.625000X-0.275000X-0.625000X0.275000X-0.625000X0*%
%ADD20C,0.650000*%
%ADD21O,1.000000X2.100000*%
%ADD22O,1.000000X1.800000*%
%ADD23C,1.524000*%
%ADD24RoundRect,0.237500X-0.237500X0.250000X-0.237500X-0.250000X0.237500X-0.250000X0.237500X0.250000X0*%
%ADD25RoundRect,0.150000X0.150000X-0.825000X0.150000X0.825000X-0.150000X0.825000X-0.150000X-0.825000X0*%
%ADD26RoundRect,0.150000X0.587500X0.150000X-0.587500X0.150000X-0.587500X-0.150000X0.587500X-0.150000X0*%
%ADD27RoundRect,0.237500X0.237500X-0.250000X0.237500X0.250000X-0.237500X0.250000X-0.237500X-0.250000X0*%
%ADD28RoundRect,0.237500X-0.237500X0.300000X-0.237500X-0.300000X0.237500X-0.300000X0.237500X0.300000X0*%
G04 APERTURE END LIST*
D10*
X15822828Y36672346D02*
X17322828Y36315203D01*
X17322828Y36315203D02*
X16251400Y36029489D01*
X16251400Y36029489D02*
X17322828Y35743774D01*
X17322828Y35743774D02*
X15822828Y35386632D01*
X17322828Y34100917D02*
X17322828Y34815203D01*
X17322828Y34815203D02*
X15822828Y34815203D01*
X16537114Y33600917D02*
X16537114Y33100917D01*
X17322828Y32886631D02*
X17322828Y33600917D01*
X17322828Y33600917D02*
X15822828Y33600917D01*
X15822828Y33600917D02*
X15822828Y32886631D01*
X17322828Y32243774D02*
X15822828Y32243774D01*
X15822828Y32243774D02*
X15822828Y31886631D01*
X15822828Y31886631D02*
X15894257Y31672345D01*
X15894257Y31672345D02*
X16037114Y31529488D01*
X16037114Y31529488D02*
X16179971Y31458059D01*
X16179971Y31458059D02*
X16465685Y31386631D01*
X16465685Y31386631D02*
X16679971Y31386631D01*
X16679971Y31386631D02*
X16965685Y31458059D01*
X16965685Y31458059D02*
X17108542Y31529488D01*
X17108542Y31529488D02*
X17251400Y31672345D01*
X17251400Y31672345D02*
X17322828Y31886631D01*
X17322828Y31886631D02*
X17322828Y32243774D01*
X17179971Y28743774D02*
X17251400Y28815202D01*
X17251400Y28815202D02*
X17322828Y29029488D01*
X17322828Y29029488D02*
X17322828Y29172345D01*
X17322828Y29172345D02*
X17251400Y29386631D01*
X17251400Y29386631D02*
X17108542Y29529488D01*
X17108542Y29529488D02*
X16965685Y29600917D01*
X16965685Y29600917D02*
X16679971Y29672345D01*
X16679971Y29672345D02*
X16465685Y29672345D01*
X16465685Y29672345D02*
X16179971Y29600917D01*
X16179971Y29600917D02*
X16037114Y29529488D01*
X16037114Y29529488D02*
X15894257Y29386631D01*
X15894257Y29386631D02*
X15822828Y29172345D01*
X15822828Y29172345D02*
X15822828Y29029488D01*
X15822828Y29029488D02*
X15894257Y28815202D01*
X15894257Y28815202D02*
X15965685Y28743774D01*
X17322828Y27886631D02*
X17251400Y28029488D01*
X17251400Y28029488D02*
X17179971Y28100917D01*
X17179971Y28100917D02*
X17037114Y28172345D01*
X17037114Y28172345D02*
X16608542Y28172345D01*
X16608542Y28172345D02*
X16465685Y28100917D01*
X16465685Y28100917D02*
X16394257Y28029488D01*
X16394257Y28029488D02*
X16322828Y27886631D01*
X16322828Y27886631D02*
X16322828Y27672345D01*
X16322828Y27672345D02*
X16394257Y27529488D01*
X16394257Y27529488D02*
X16465685Y27458060D01*
X16465685Y27458060D02*
X16608542Y27386631D01*
X16608542Y27386631D02*
X17037114Y27386631D01*
X17037114Y27386631D02*
X17179971Y27458060D01*
X17179971Y27458060D02*
X17251400Y27529488D01*
X17251400Y27529488D02*
X17322828Y27672345D01*
X17322828Y27672345D02*
X17322828Y27886631D01*
X16322828Y26743774D02*
X17322828Y26743774D01*
X16465685Y26743774D02*
X16394257Y26672345D01*
X16394257Y26672345D02*
X16322828Y26529488D01*
X16322828Y26529488D02*
X16322828Y26315202D01*
X16322828Y26315202D02*
X16394257Y26172345D01*
X16394257Y26172345D02*
X16537114Y26100917D01*
X16537114Y26100917D02*
X17322828Y26100917D01*
X16322828Y25600916D02*
X16322828Y25029488D01*
X15822828Y25386631D02*
X17108542Y25386631D01*
X17108542Y25386631D02*
X17251400Y25315202D01*
X17251400Y25315202D02*
X17322828Y25172345D01*
X17322828Y25172345D02*
X17322828Y25029488D01*
X17322828Y24529488D02*
X16322828Y24529488D01*
X16608542Y24529488D02*
X16465685Y24458059D01*
X16465685Y24458059D02*
X16394257Y24386631D01*
X16394257Y24386631D02*
X16322828Y24243773D01*
X16322828Y24243773D02*
X16322828Y24100916D01*
X17322828Y23386631D02*
X17251400Y23529488D01*
X17251400Y23529488D02*
X17179971Y23600917D01*
X17179971Y23600917D02*
X17037114Y23672345D01*
X17037114Y23672345D02*
X16608542Y23672345D01*
X16608542Y23672345D02*
X16465685Y23600917D01*
X16465685Y23600917D02*
X16394257Y23529488D01*
X16394257Y23529488D02*
X16322828Y23386631D01*
X16322828Y23386631D02*
X16322828Y23172345D01*
X16322828Y23172345D02*
X16394257Y23029488D01*
X16394257Y23029488D02*
X16465685Y22958060D01*
X16465685Y22958060D02*
X16608542Y22886631D01*
X16608542Y22886631D02*
X17037114Y22886631D01*
X17037114Y22886631D02*
X17179971Y22958060D01*
X17179971Y22958060D02*
X17251400Y23029488D01*
X17251400Y23029488D02*
X17322828Y23172345D01*
X17322828Y23172345D02*
X17322828Y23386631D01*
X17322828Y22029488D02*
X17251400Y22172345D01*
X17251400Y22172345D02*
X17108542Y22243774D01*
X17108542Y22243774D02*
X15822828Y22243774D01*
X17322828Y21243774D02*
X17251400Y21386631D01*
X17251400Y21386631D02*
X17108542Y21458060D01*
X17108542Y21458060D02*
X15822828Y21458060D01*
X17251400Y20100917D02*
X17322828Y20243774D01*
X17322828Y20243774D02*
X17322828Y20529489D01*
X17322828Y20529489D02*
X17251400Y20672346D01*
X17251400Y20672346D02*
X17108542Y20743774D01*
X17108542Y20743774D02*
X16537114Y20743774D01*
X16537114Y20743774D02*
X16394257Y20672346D01*
X16394257Y20672346D02*
X16322828Y20529489D01*
X16322828Y20529489D02*
X16322828Y20243774D01*
X16322828Y20243774D02*
X16394257Y20100917D01*
X16394257Y20100917D02*
X16537114Y20029489D01*
X16537114Y20029489D02*
X16679971Y20029489D01*
X16679971Y20029489D02*
X16822828Y20743774D01*
X17322828Y19386632D02*
X16322828Y19386632D01*
X16608542Y19386632D02*
X16465685Y19315203D01*
X16465685Y19315203D02*
X16394257Y19243775D01*
X16394257Y19243775D02*
X16322828Y19100917D01*
X16322828Y19100917D02*
X16322828Y18958060D01*
X15822828Y17529489D02*
X17322828Y17029489D01*
X17322828Y17029489D02*
X15822828Y16529489D01*
X17322828Y15243775D02*
X17322828Y16100918D01*
X17322828Y15672347D02*
X15822828Y15672347D01*
X15822828Y15672347D02*
X16037114Y15815204D01*
X16037114Y15815204D02*
X16179971Y15958061D01*
X16179971Y15958061D02*
X16251400Y16100918D01*
X18237828Y36243774D02*
X18237828Y36100917D01*
X18237828Y36100917D02*
X18309257Y35958060D01*
X18309257Y35958060D02*
X18380685Y35886632D01*
X18380685Y35886632D02*
X18523542Y35815203D01*
X18523542Y35815203D02*
X18809257Y35743774D01*
X18809257Y35743774D02*
X19166400Y35743774D01*
X19166400Y35743774D02*
X19452114Y35815203D01*
X19452114Y35815203D02*
X19594971Y35886632D01*
X19594971Y35886632D02*
X19666400Y35958060D01*
X19666400Y35958060D02*
X19737828Y36100917D01*
X19737828Y36100917D02*
X19737828Y36243774D01*
X19737828Y36243774D02*
X19666400Y36386632D01*
X19666400Y36386632D02*
X19594971Y36458060D01*
X19594971Y36458060D02*
X19452114Y36529489D01*
X19452114Y36529489D02*
X19166400Y36600917D01*
X19166400Y36600917D02*
X18809257Y36600917D01*
X18809257Y36600917D02*
X18523542Y36529489D01*
X18523542Y36529489D02*
X18380685Y36458060D01*
X18380685Y36458060D02*
X18309257Y36386632D01*
X18309257Y36386632D02*
X18237828Y36243774D01*
X18380685Y35172346D02*
X18309257Y35100918D01*
X18309257Y35100918D02*
X18237828Y34958061D01*
X18237828Y34958061D02*
X18237828Y34600918D01*
X18237828Y34600918D02*
X18309257Y34458061D01*
X18309257Y34458061D02*
X18380685Y34386632D01*
X18380685Y34386632D02*
X18523542Y34315203D01*
X18523542Y34315203D02*
X18666400Y34315203D01*
X18666400Y34315203D02*
X18880685Y34386632D01*
X18880685Y34386632D02*
X19737828Y35243775D01*
X19737828Y35243775D02*
X19737828Y34315203D01*
X18166400Y32600918D02*
X20094971Y33886632D01*
X18380685Y32172346D02*
X18309257Y32100918D01*
X18309257Y32100918D02*
X18237828Y31958061D01*
X18237828Y31958061D02*
X18237828Y31600918D01*
X18237828Y31600918D02*
X18309257Y31458061D01*
X18309257Y31458061D02*
X18380685Y31386632D01*
X18380685Y31386632D02*
X18523542Y31315203D01*
X18523542Y31315203D02*
X18666400Y31315203D01*
X18666400Y31315203D02*
X18880685Y31386632D01*
X18880685Y31386632D02*
X19737828Y32243775D01*
X19737828Y32243775D02*
X19737828Y31315203D01*
X18237828Y30386632D02*
X18237828Y30243775D01*
X18237828Y30243775D02*
X18309257Y30100918D01*
X18309257Y30100918D02*
X18380685Y30029490D01*
X18380685Y30029490D02*
X18523542Y29958061D01*
X18523542Y29958061D02*
X18809257Y29886632D01*
X18809257Y29886632D02*
X19166400Y29886632D01*
X19166400Y29886632D02*
X19452114Y29958061D01*
X19452114Y29958061D02*
X19594971Y30029490D01*
X19594971Y30029490D02*
X19666400Y30100918D01*
X19666400Y30100918D02*
X19737828Y30243775D01*
X19737828Y30243775D02*
X19737828Y30386632D01*
X19737828Y30386632D02*
X19666400Y30529490D01*
X19666400Y30529490D02*
X19594971Y30600918D01*
X19594971Y30600918D02*
X19452114Y30672347D01*
X19452114Y30672347D02*
X19166400Y30743775D01*
X19166400Y30743775D02*
X18809257Y30743775D01*
X18809257Y30743775D02*
X18523542Y30672347D01*
X18523542Y30672347D02*
X18380685Y30600918D01*
X18380685Y30600918D02*
X18309257Y30529490D01*
X18309257Y30529490D02*
X18237828Y30386632D01*
X18380685Y29315204D02*
X18309257Y29243776D01*
X18309257Y29243776D02*
X18237828Y29100919D01*
X18237828Y29100919D02*
X18237828Y28743776D01*
X18237828Y28743776D02*
X18309257Y28600919D01*
X18309257Y28600919D02*
X18380685Y28529490D01*
X18380685Y28529490D02*
X18523542Y28458061D01*
X18523542Y28458061D02*
X18666400Y28458061D01*
X18666400Y28458061D02*
X18880685Y28529490D01*
X18880685Y28529490D02*
X19737828Y29386633D01*
X19737828Y29386633D02*
X19737828Y28458061D01*
X18737828Y27172348D02*
X19737828Y27172348D01*
X18166400Y27529490D02*
X19237828Y27886633D01*
X19237828Y27886633D02*
X19237828Y26958062D01*
X20724257Y35743774D02*
X20652828Y35886632D01*
X20652828Y35886632D02*
X20652828Y36100917D01*
X20652828Y36100917D02*
X20724257Y36315203D01*
X20724257Y36315203D02*
X20867114Y36458060D01*
X20867114Y36458060D02*
X21009971Y36529489D01*
X21009971Y36529489D02*
X21295685Y36600917D01*
X21295685Y36600917D02*
X21509971Y36600917D01*
X21509971Y36600917D02*
X21795685Y36529489D01*
X21795685Y36529489D02*
X21938542Y36458060D01*
X21938542Y36458060D02*
X22081400Y36315203D01*
X22081400Y36315203D02*
X22152828Y36100917D01*
X22152828Y36100917D02*
X22152828Y35958060D01*
X22152828Y35958060D02*
X22081400Y35743774D01*
X22081400Y35743774D02*
X22009971Y35672346D01*
X22009971Y35672346D02*
X21509971Y35672346D01*
X21509971Y35672346D02*
X21509971Y35958060D01*
X22152828Y35029489D02*
X21152828Y35029489D01*
X20652828Y35029489D02*
X20724257Y35100917D01*
X20724257Y35100917D02*
X20795685Y35029489D01*
X20795685Y35029489D02*
X20724257Y34958060D01*
X20724257Y34958060D02*
X20652828Y35029489D01*
X20652828Y35029489D02*
X20795685Y35029489D01*
X22152828Y34100917D02*
X22081400Y34243774D01*
X22081400Y34243774D02*
X22009971Y34315203D01*
X22009971Y34315203D02*
X21867114Y34386631D01*
X21867114Y34386631D02*
X21438542Y34386631D01*
X21438542Y34386631D02*
X21295685Y34315203D01*
X21295685Y34315203D02*
X21224257Y34243774D01*
X21224257Y34243774D02*
X21152828Y34100917D01*
X21152828Y34100917D02*
X21152828Y33886631D01*
X21152828Y33886631D02*
X21224257Y33743774D01*
X21224257Y33743774D02*
X21295685Y33672346D01*
X21295685Y33672346D02*
X21438542Y33600917D01*
X21438542Y33600917D02*
X21867114Y33600917D01*
X21867114Y33600917D02*
X22009971Y33672346D01*
X22009971Y33672346D02*
X22081400Y33743774D01*
X22081400Y33743774D02*
X22152828Y33886631D01*
X22152828Y33886631D02*
X22152828Y34100917D01*
X21152828Y32315203D02*
X22152828Y32315203D01*
X21152828Y32958060D02*
X21938542Y32958060D01*
X21938542Y32958060D02*
X22081400Y32886631D01*
X22081400Y32886631D02*
X22152828Y32743774D01*
X22152828Y32743774D02*
X22152828Y32529488D01*
X22152828Y32529488D02*
X22081400Y32386631D01*
X22081400Y32386631D02*
X22009971Y32315203D01*
X22152828Y31386631D02*
X22081400Y31529488D01*
X22081400Y31529488D02*
X21938542Y31600917D01*
X21938542Y31600917D02*
X20652828Y31600917D01*
X22081400Y30243774D02*
X22152828Y30386631D01*
X22152828Y30386631D02*
X22152828Y30672346D01*
X22152828Y30672346D02*
X22081400Y30815203D01*
X22081400Y30815203D02*
X21938542Y30886631D01*
X21938542Y30886631D02*
X21367114Y30886631D01*
X21367114Y30886631D02*
X21224257Y30815203D01*
X21224257Y30815203D02*
X21152828Y30672346D01*
X21152828Y30672346D02*
X21152828Y30386631D01*
X21152828Y30386631D02*
X21224257Y30243774D01*
X21224257Y30243774D02*
X21367114Y30172346D01*
X21367114Y30172346D02*
X21509971Y30172346D01*
X21509971Y30172346D02*
X21652828Y30886631D01*
X22152828Y29529489D02*
X20652828Y29529489D01*
X21581400Y29386632D02*
X22152828Y28958060D01*
X21152828Y28958060D02*
X21724257Y29529489D01*
X22152828Y27672346D02*
X21367114Y27672346D01*
X21367114Y27672346D02*
X21224257Y27743774D01*
X21224257Y27743774D02*
X21152828Y27886631D01*
X21152828Y27886631D02*
X21152828Y28172346D01*
X21152828Y28172346D02*
X21224257Y28315203D01*
X22081400Y27672346D02*
X22152828Y27815203D01*
X22152828Y27815203D02*
X22152828Y28172346D01*
X22152828Y28172346D02*
X22081400Y28315203D01*
X22081400Y28315203D02*
X21938542Y28386631D01*
X21938542Y28386631D02*
X21795685Y28386631D01*
X21795685Y28386631D02*
X21652828Y28315203D01*
X21652828Y28315203D02*
X21581400Y28172346D01*
X21581400Y28172346D02*
X21581400Y27815203D01*
X21581400Y27815203D02*
X21509971Y27672346D01*
X22081400Y27029488D02*
X22152828Y26886631D01*
X22152828Y26886631D02*
X22152828Y26600917D01*
X22152828Y26600917D02*
X22081400Y26458060D01*
X22081400Y26458060D02*
X21938542Y26386631D01*
X21938542Y26386631D02*
X21867114Y26386631D01*
X21867114Y26386631D02*
X21724257Y26458060D01*
X21724257Y26458060D02*
X21652828Y26600917D01*
X21652828Y26600917D02*
X21652828Y26815203D01*
X21652828Y26815203D02*
X21581400Y26958060D01*
X21581400Y26958060D02*
X21438542Y27029488D01*
X21438542Y27029488D02*
X21367114Y27029488D01*
X21367114Y27029488D02*
X21224257Y26958060D01*
X21224257Y26958060D02*
X21152828Y26815203D01*
X21152828Y26815203D02*
X21152828Y26600917D01*
X21152828Y26600917D02*
X21224257Y26458060D01*
X22152828Y24600917D02*
X20652828Y24600917D01*
X20652828Y24600917D02*
X22152828Y23743774D01*
X22152828Y23743774D02*
X20652828Y23743774D01*
X22152828Y23029488D02*
X21152828Y23029488D01*
X20652828Y23029488D02*
X20724257Y23100916D01*
X20724257Y23100916D02*
X20795685Y23029488D01*
X20795685Y23029488D02*
X20724257Y22958059D01*
X20724257Y22958059D02*
X20652828Y23029488D01*
X20652828Y23029488D02*
X20795685Y23029488D01*
X22152828Y22315202D02*
X20652828Y22315202D01*
X21581400Y22172345D02*
X22152828Y21743773D01*
X21152828Y21743773D02*
X21724257Y22315202D01*
X22152828Y20886630D02*
X22081400Y21029487D01*
X22081400Y21029487D02*
X22009971Y21100916D01*
X22009971Y21100916D02*
X21867114Y21172344D01*
X21867114Y21172344D02*
X21438542Y21172344D01*
X21438542Y21172344D02*
X21295685Y21100916D01*
X21295685Y21100916D02*
X21224257Y21029487D01*
X21224257Y21029487D02*
X21152828Y20886630D01*
X21152828Y20886630D02*
X21152828Y20672344D01*
X21152828Y20672344D02*
X21224257Y20529487D01*
X21224257Y20529487D02*
X21295685Y20458059D01*
X21295685Y20458059D02*
X21438542Y20386630D01*
X21438542Y20386630D02*
X21867114Y20386630D01*
X21867114Y20386630D02*
X22009971Y20458059D01*
X22009971Y20458059D02*
X22081400Y20529487D01*
X22081400Y20529487D02*
X22152828Y20672344D01*
X22152828Y20672344D02*
X22152828Y20886630D01*
X22081400Y19815201D02*
X22152828Y19672344D01*
X22152828Y19672344D02*
X22152828Y19386630D01*
X22152828Y19386630D02*
X22081400Y19243773D01*
X22081400Y19243773D02*
X21938542Y19172344D01*
X21938542Y19172344D02*
X21867114Y19172344D01*
X21867114Y19172344D02*
X21724257Y19243773D01*
X21724257Y19243773D02*
X21652828Y19386630D01*
X21652828Y19386630D02*
X21652828Y19600916D01*
X21652828Y19600916D02*
X21581400Y19743773D01*
X21581400Y19743773D02*
X21438542Y19815201D01*
X21438542Y19815201D02*
X21367114Y19815201D01*
X21367114Y19815201D02*
X21224257Y19743773D01*
X21224257Y19743773D02*
X21152828Y19600916D01*
X21152828Y19600916D02*
X21152828Y19386630D01*
X21152828Y19386630D02*
X21224257Y19243773D01*
X6303489Y1469171D02*
X6303489Y2969171D01*
X6303489Y2397742D02*
X6160632Y2469171D01*
X6160632Y2469171D02*
X5874917Y2469171D01*
X5874917Y2469171D02*
X5732060Y2397742D01*
X5732060Y2397742D02*
X5660632Y2326314D01*
X5660632Y2326314D02*
X5589203Y2183457D01*
X5589203Y2183457D02*
X5589203Y1754885D01*
X5589203Y1754885D02*
X5660632Y1612028D01*
X5660632Y1612028D02*
X5732060Y1540600D01*
X5732060Y1540600D02*
X5874917Y1469171D01*
X5874917Y1469171D02*
X6160632Y1469171D01*
X6160632Y1469171D02*
X6303489Y1540600D01*
X4732060Y1469171D02*
X4874917Y1540600D01*
X4874917Y1540600D02*
X4946346Y1612028D01*
X4946346Y1612028D02*
X5017774Y1754885D01*
X5017774Y1754885D02*
X5017774Y2183457D01*
X5017774Y2183457D02*
X4946346Y2326314D01*
X4946346Y2326314D02*
X4874917Y2397742D01*
X4874917Y2397742D02*
X4732060Y2469171D01*
X4732060Y2469171D02*
X4517774Y2469171D01*
X4517774Y2469171D02*
X4374917Y2397742D01*
X4374917Y2397742D02*
X4303489Y2326314D01*
X4303489Y2326314D02*
X4232060Y2183457D01*
X4232060Y2183457D02*
X4232060Y1754885D01*
X4232060Y1754885D02*
X4303489Y1612028D01*
X4303489Y1612028D02*
X4374917Y1540600D01*
X4374917Y1540600D02*
X4517774Y1469171D01*
X4517774Y1469171D02*
X4732060Y1469171D01*
X3803488Y2469171D02*
X3232060Y2469171D01*
X3589203Y2969171D02*
X3589203Y1683457D01*
X3589203Y1683457D02*
X3517774Y1540600D01*
X3517774Y1540600D02*
X3374917Y1469171D01*
X3374917Y1469171D02*
X3232060Y1469171D01*
D11*
X52524819Y20486666D02*
X52048628Y20819999D01*
X52524819Y21058094D02*
X51524819Y21058094D01*
X51524819Y21058094D02*
X51524819Y20677142D01*
X51524819Y20677142D02*
X51572438Y20581904D01*
X51572438Y20581904D02*
X51620057Y20534285D01*
X51620057Y20534285D02*
X51715295Y20486666D01*
X51715295Y20486666D02*
X51858152Y20486666D01*
X51858152Y20486666D02*
X51953390Y20534285D01*
X51953390Y20534285D02*
X52001009Y20581904D01*
X52001009Y20581904D02*
X52048628Y20677142D01*
X52048628Y20677142D02*
X52048628Y21058094D01*
X52524819Y20010475D02*
X52524819Y19819999D01*
X52524819Y19819999D02*
X52477200Y19724761D01*
X52477200Y19724761D02*
X52429580Y19677142D01*
X52429580Y19677142D02*
X52286723Y19581904D01*
X52286723Y19581904D02*
X52096247Y19534285D01*
X52096247Y19534285D02*
X51715295Y19534285D01*
X51715295Y19534285D02*
X51620057Y19581904D01*
X51620057Y19581904D02*
X51572438Y19629523D01*
X51572438Y19629523D02*
X51524819Y19724761D01*
X51524819Y19724761D02*
X51524819Y19915237D01*
X51524819Y19915237D02*
X51572438Y20010475D01*
X51572438Y20010475D02*
X51620057Y20058094D01*
X51620057Y20058094D02*
X51715295Y20105713D01*
X51715295Y20105713D02*
X51953390Y20105713D01*
X51953390Y20105713D02*
X52048628Y20058094D01*
X52048628Y20058094D02*
X52096247Y20010475D01*
X52096247Y20010475D02*
X52143866Y19915237D01*
X52143866Y19915237D02*
X52143866Y19724761D01*
X52143866Y19724761D02*
X52096247Y19629523D01*
X52096247Y19629523D02*
X52048628Y19581904D01*
X52048628Y19581904D02*
X51953390Y19534285D01*
X49492819Y15239904D02*
X50302342Y15239904D01*
X50302342Y15239904D02*
X50397580Y15192285D01*
X50397580Y15192285D02*
X50445200Y15144666D01*
X50445200Y15144666D02*
X50492819Y15049428D01*
X50492819Y15049428D02*
X50492819Y14858952D01*
X50492819Y14858952D02*
X50445200Y14763714D01*
X50445200Y14763714D02*
X50397580Y14716095D01*
X50397580Y14716095D02*
X50302342Y14668476D01*
X50302342Y14668476D02*
X49492819Y14668476D01*
X49588057Y14239904D02*
X49540438Y14192285D01*
X49540438Y14192285D02*
X49492819Y14097047D01*
X49492819Y14097047D02*
X49492819Y13858952D01*
X49492819Y13858952D02*
X49540438Y13763714D01*
X49540438Y13763714D02*
X49588057Y13716095D01*
X49588057Y13716095D02*
X49683295Y13668476D01*
X49683295Y13668476D02*
X49778533Y13668476D01*
X49778533Y13668476D02*
X49921390Y13716095D01*
X49921390Y13716095D02*
X50492819Y14287523D01*
X50492819Y14287523D02*
X50492819Y13668476D01*
X49449738Y18245942D02*
X49544976Y18293561D01*
X49544976Y18293561D02*
X49640214Y18388800D01*
X49640214Y18388800D02*
X49783071Y18531657D01*
X49783071Y18531657D02*
X49878309Y18579276D01*
X49878309Y18579276D02*
X49973547Y18579276D01*
X49925928Y18341180D02*
X50021166Y18388800D01*
X50021166Y18388800D02*
X50116404Y18484038D01*
X50116404Y18484038D02*
X50164023Y18674514D01*
X50164023Y18674514D02*
X50164023Y19007847D01*
X50164023Y19007847D02*
X50116404Y19198323D01*
X50116404Y19198323D02*
X50021166Y19293561D01*
X50021166Y19293561D02*
X49925928Y19341180D01*
X49925928Y19341180D02*
X49735452Y19341180D01*
X49735452Y19341180D02*
X49640214Y19293561D01*
X49640214Y19293561D02*
X49544976Y19198323D01*
X49544976Y19198323D02*
X49497357Y19007847D01*
X49497357Y19007847D02*
X49497357Y18674514D01*
X49497357Y18674514D02*
X49544976Y18484038D01*
X49544976Y18484038D02*
X49640214Y18388800D01*
X49640214Y18388800D02*
X49735452Y18341180D01*
X49735452Y18341180D02*
X49925928Y18341180D01*
X48544976Y18341180D02*
X49116404Y18341180D01*
X48830690Y18341180D02*
X48830690Y19341180D01*
X48830690Y19341180D02*
X48925928Y19198323D01*
X48925928Y19198323D02*
X49021166Y19103085D01*
X49021166Y19103085D02*
X49116404Y19055466D01*
X54048819Y20454857D02*
X53572628Y20788190D01*
X54048819Y21026285D02*
X53048819Y21026285D01*
X53048819Y21026285D02*
X53048819Y20645333D01*
X53048819Y20645333D02*
X53096438Y20550095D01*
X53096438Y20550095D02*
X53144057Y20502476D01*
X53144057Y20502476D02*
X53239295Y20454857D01*
X53239295Y20454857D02*
X53382152Y20454857D01*
X53382152Y20454857D02*
X53477390Y20502476D01*
X53477390Y20502476D02*
X53525009Y20550095D01*
X53525009Y20550095D02*
X53572628Y20645333D01*
X53572628Y20645333D02*
X53572628Y21026285D01*
X54048819Y19502476D02*
X54048819Y20073904D01*
X54048819Y19788190D02*
X53048819Y19788190D01*
X53048819Y19788190D02*
X53191676Y19883428D01*
X53191676Y19883428D02*
X53286914Y19978666D01*
X53286914Y19978666D02*
X53334533Y20073904D01*
X53048819Y18883428D02*
X53048819Y18788190D01*
X53048819Y18788190D02*
X53096438Y18692952D01*
X53096438Y18692952D02*
X53144057Y18645333D01*
X53144057Y18645333D02*
X53239295Y18597714D01*
X53239295Y18597714D02*
X53429771Y18550095D01*
X53429771Y18550095D02*
X53667866Y18550095D01*
X53667866Y18550095D02*
X53858342Y18597714D01*
X53858342Y18597714D02*
X53953580Y18645333D01*
X53953580Y18645333D02*
X54001200Y18692952D01*
X54001200Y18692952D02*
X54048819Y18788190D01*
X54048819Y18788190D02*
X54048819Y18883428D01*
X54048819Y18883428D02*
X54001200Y18978666D01*
X54001200Y18978666D02*
X53953580Y19026285D01*
X53953580Y19026285D02*
X53858342Y19073904D01*
X53858342Y19073904D02*
X53667866Y19121523D01*
X53667866Y19121523D02*
X53429771Y19121523D01*
X53429771Y19121523D02*
X53239295Y19073904D01*
X53239295Y19073904D02*
X53144057Y19026285D01*
X53144057Y19026285D02*
X53096438Y18978666D01*
X53096438Y18978666D02*
X53048819Y18883428D01*
X49449738Y26487942D02*
X49544976Y26535561D01*
X49544976Y26535561D02*
X49640214Y26630800D01*
X49640214Y26630800D02*
X49783071Y26773657D01*
X49783071Y26773657D02*
X49878309Y26821276D01*
X49878309Y26821276D02*
X49973547Y26821276D01*
X49925928Y26583180D02*
X50021166Y26630800D01*
X50021166Y26630800D02*
X50116404Y26726038D01*
X50116404Y26726038D02*
X50164023Y26916514D01*
X50164023Y26916514D02*
X50164023Y27249847D01*
X50164023Y27249847D02*
X50116404Y27440323D01*
X50116404Y27440323D02*
X50021166Y27535561D01*
X50021166Y27535561D02*
X49925928Y27583180D01*
X49925928Y27583180D02*
X49735452Y27583180D01*
X49735452Y27583180D02*
X49640214Y27535561D01*
X49640214Y27535561D02*
X49544976Y27440323D01*
X49544976Y27440323D02*
X49497357Y27249847D01*
X49497357Y27249847D02*
X49497357Y26916514D01*
X49497357Y26916514D02*
X49544976Y26726038D01*
X49544976Y26726038D02*
X49640214Y26630800D01*
X49640214Y26630800D02*
X49735452Y26583180D01*
X49735452Y26583180D02*
X49925928Y26583180D01*
X49116404Y27487942D02*
X49068785Y27535561D01*
X49068785Y27535561D02*
X48973547Y27583180D01*
X48973547Y27583180D02*
X48735452Y27583180D01*
X48735452Y27583180D02*
X48640214Y27535561D01*
X48640214Y27535561D02*
X48592595Y27487942D01*
X48592595Y27487942D02*
X48544976Y27392704D01*
X48544976Y27392704D02*
X48544976Y27297466D01*
X48544976Y27297466D02*
X48592595Y27154609D01*
X48592595Y27154609D02*
X49164023Y26583180D01*
X49164023Y26583180D02*
X48544976Y26583180D01*
X62081580Y17184666D02*
X62129200Y17232285D01*
X62129200Y17232285D02*
X62176819Y17375142D01*
X62176819Y17375142D02*
X62176819Y17470380D01*
X62176819Y17470380D02*
X62129200Y17613237D01*
X62129200Y17613237D02*
X62033961Y17708475D01*
X62033961Y17708475D02*
X61938723Y17756094D01*
X61938723Y17756094D02*
X61748247Y17803713D01*
X61748247Y17803713D02*
X61605390Y17803713D01*
X61605390Y17803713D02*
X61414914Y17756094D01*
X61414914Y17756094D02*
X61319676Y17708475D01*
X61319676Y17708475D02*
X61224438Y17613237D01*
X61224438Y17613237D02*
X61176819Y17470380D01*
X61176819Y17470380D02*
X61176819Y17375142D01*
X61176819Y17375142D02*
X61224438Y17232285D01*
X61224438Y17232285D02*
X61272057Y17184666D01*
X61176819Y16279904D02*
X61176819Y16756094D01*
X61176819Y16756094D02*
X61653009Y16803713D01*
X61653009Y16803713D02*
X61605390Y16756094D01*
X61605390Y16756094D02*
X61557771Y16660856D01*
X61557771Y16660856D02*
X61557771Y16422761D01*
X61557771Y16422761D02*
X61605390Y16327523D01*
X61605390Y16327523D02*
X61653009Y16279904D01*
X61653009Y16279904D02*
X61748247Y16232285D01*
X61748247Y16232285D02*
X61986342Y16232285D01*
X61986342Y16232285D02*
X62081580Y16279904D01*
X62081580Y16279904D02*
X62129200Y16327523D01*
X62129200Y16327523D02*
X62176819Y16422761D01*
X62176819Y16422761D02*
X62176819Y16660856D01*
X62176819Y16660856D02*
X62129200Y16756094D01*
X62129200Y16756094D02*
X62081580Y16803713D01*
X61066819Y31154666D02*
X60590628Y31487999D01*
X61066819Y31726094D02*
X60066819Y31726094D01*
X60066819Y31726094D02*
X60066819Y31345142D01*
X60066819Y31345142D02*
X60114438Y31249904D01*
X60114438Y31249904D02*
X60162057Y31202285D01*
X60162057Y31202285D02*
X60257295Y31154666D01*
X60257295Y31154666D02*
X60400152Y31154666D01*
X60400152Y31154666D02*
X60495390Y31202285D01*
X60495390Y31202285D02*
X60543009Y31249904D01*
X60543009Y31249904D02*
X60590628Y31345142D01*
X60590628Y31345142D02*
X60590628Y31726094D01*
X60400152Y30297523D02*
X61066819Y30297523D01*
X60019200Y30535618D02*
X60733485Y30773713D01*
X60733485Y30773713D02*
X60733485Y30154666D01*
D12*
X52592500Y23114724D02*
X52592500Y22605276D01*
X51547500Y23114724D02*
X51547500Y22605276D01*
X50693000Y14289000D02*
X50693000Y12339000D01*
X50693000Y14289000D02*
X50693000Y16239000D01*
X60813000Y14289000D02*
X60813000Y10839000D01*
X60813000Y14289000D02*
X60813000Y16239000D01*
X49354500Y19522000D02*
X50004500Y19522000D01*
X49354500Y19522000D02*
X48704500Y19522000D01*
X49354500Y22642000D02*
X51029500Y22642000D01*
X49354500Y22642000D02*
X48704500Y22642000D01*
X53071500Y22605276D02*
X53071500Y23114724D01*
X54116500Y22605276D02*
X54116500Y23114724D01*
X49354500Y23078000D02*
X50004500Y23078000D01*
X49354500Y23078000D02*
X48704500Y23078000D01*
X49354500Y26198000D02*
X51029500Y26198000D01*
X49354500Y26198000D02*
X48704500Y26198000D01*
X62232000Y14624267D02*
X62232000Y14331733D01*
X61212000Y14624267D02*
X61212000Y14331733D01*
X58659500Y30733276D02*
X58659500Y31242724D01*
X59704500Y30733276D02*
X59704500Y31242724D01*
%LPC*%
D13*
X36576000Y40640000D03*
X36576000Y45640000D03*
D14*
X31576000Y40640000D03*
X31576000Y45640000D03*
D13*
X30894000Y9652000D03*
X30894000Y4652000D03*
D14*
X35894000Y9652000D03*
X35894000Y4652000D03*
X40894000Y9652000D03*
X40894000Y4652000D03*
D15*
X34902000Y28194000D03*
X41402000Y28194000D03*
X34902000Y23694000D03*
X41402000Y23694000D03*
D13*
X12352000Y9652000D03*
X12352000Y4652000D03*
D14*
X17352000Y9652000D03*
X17352000Y4652000D03*
X22352000Y9652000D03*
X22352000Y4652000D03*
D16*
X9620000Y31058000D03*
X4620000Y31058000D03*
D17*
X9620000Y26058000D03*
X4620000Y26058000D03*
X9620000Y21058000D03*
X4620000Y21058000D03*
D18*
X49022000Y48152000D03*
D19*
X47752000Y46082000D03*
X46482000Y48152000D03*
D20*
X50450000Y5145000D03*
X56230000Y5145000D03*
D21*
X49020000Y5665000D03*
D22*
X49020000Y1465000D03*
D21*
X57660000Y5665000D03*
D22*
X57660000Y1465000D03*
D23*
X14478000Y44704000D03*
X14478000Y42164000D03*
X14478000Y39624000D03*
X22098000Y39624000D03*
X22098000Y42164000D03*
X22098000Y44704000D03*
D24*
X52070000Y23772500D03*
X52070000Y21947500D03*
D25*
X60198000Y11814000D03*
X58928000Y11814000D03*
X57658000Y11814000D03*
X56388000Y11814000D03*
X55118000Y11814000D03*
X53848000Y11814000D03*
X52578000Y11814000D03*
X51308000Y11814000D03*
X51308000Y16764000D03*
X52578000Y16764000D03*
X53848000Y16764000D03*
X55118000Y16764000D03*
X56388000Y16764000D03*
X57658000Y16764000D03*
X58928000Y16764000D03*
X60198000Y16764000D03*
D26*
X50292000Y22032000D03*
X50292000Y20132000D03*
X48417000Y21082000D03*
D27*
X53594000Y21947500D03*
X53594000Y23772500D03*
D26*
X50292000Y25588000D03*
X50292000Y23688000D03*
X48417000Y24638000D03*
D28*
X61722000Y15340500D03*
X61722000Y13615500D03*
D27*
X59182000Y30075500D03*
X59182000Y31900500D03*
%LPD*%
M02*
