M48
; DRILL file {KiCad 7.0.10} date Fri Feb 23 22:28:19 2024
; FORMAT={-:-/ absolute / metric / decimal}
; #@! TF.CreationDate,2024-02-23T22:28:19+01:00
; #@! TF.GenerationSoftware,Kicad,Pcbnew,7.0.10
; #@! TF.FileFunction,Plated,1,2,PTH
FMAT,2
METRIC
; #@! TA.AperFunction,Plated,PTH,ComponentDrill
T1C0.200
; #@! TA.AperFunction,Plated,PTH,ViaDrill
T2C0.400
; #@! TA.AperFunction,Plated,PTH,ComponentDrill
T3C0.600
; #@! TA.AperFunction,Plated,PTH,ComponentDrill
T4C0.750
; #@! TA.AperFunction,Plated,PTH,ComponentDrill
T5C0.762
; #@! TA.AperFunction,Plated,PTH,ComponentDrill
T6C1.100
; #@! TA.AperFunction,Plated,PTH,ComponentDrill
T7C1.150
%
G90
G05
T1
X55.624Y26.442
X55.624Y24.918
X56.386Y27.205
X56.386Y25.68
X56.386Y24.155
X57.149Y26.442
X57.149Y24.918
X57.911Y27.205
X57.911Y25.68
X57.911Y24.155
X58.674Y26.442
X58.674Y24.918
T2
X23.368Y25.908
X28.448Y27.178
X32.258Y22.098
X44.958Y21.336
X44.958Y19.304
X45.212Y17.272
X45.974Y14.478
X46.228Y16.25
X48.514Y36.322
X48.514Y27.432
X48.514Y22.606
X51.054Y7.62
X51.816Y32.258
X52.07Y18.542
X53.57Y27.662
X53.848Y45.212
X53.848Y9.906
X55.118Y9.906
X55.626Y7.62
X56.642Y20.32
X57.15Y18.552
X57.658Y8.636
X57.912Y20.574
X58.928Y9.398
X59.182Y39.624
X61.214Y32.004
X62.23Y8.636
X62.484Y31.242
X63.246Y12.7
X64.516Y42.926
T4
X46.482Y47.752
X47.752Y46.482
X49.022Y47.752
T5
X14.478Y44.704
X14.478Y42.164
X14.478Y39.624
X22.098Y44.704
X22.098Y42.164
X22.098Y39.624
T6
X34.902Y28.194
X34.902Y23.694
X41.402Y28.194
X41.402Y23.694
T7
X4.62Y31.058
X4.62Y26.058
X4.62Y21.058
X9.62Y31.058
X9.62Y26.058
X9.62Y21.058
X12.352Y9.652
X12.352Y4.652
X17.352Y9.652
X17.352Y4.652
X22.352Y9.652
X22.352Y4.652
X30.894Y9.652
X30.894Y4.652
X31.576Y45.64
X31.576Y40.64
X35.894Y9.652
X35.894Y4.652
X36.576Y45.64
X36.576Y40.64
X40.894Y9.652
X40.894Y4.652
T3
X49.02Y6.215G85X49.02Y5.115
G05
X49.02Y1.865G85X49.02Y1.065
G05
X57.66Y6.215G85X57.66Y5.115
G05
X57.66Y1.865G85X57.66Y1.065
G05
M30
